G04*
G04 #@! TF.GenerationSoftware,Altium Limited,Altium Designer,26.7.1 (11)*
G04*
G04 Layer_Color=8421504*
G04 Board_Origin=0|0*
%FSLAX44Y44*%
%MOMM*%
G71*
G04*
G04 #@! TF.SameCoordinates,6C30495D-F883-42B2-96C6-9C3B3C046095*
G04*
G04*
G04 #@! TF.FilePolarity,Positive*
G04*
G01*
G75*
%ADD12R,1.5000X0.9000*%
%ADD13R,0.9000X1.5000*%
%ADD14R,0.9000X0.9000*%
%ADD15R,1.5250X0.6500*%
%ADD16R,0.5200X0.5200*%
%ADD17R,0.8500X0.7500*%
%ADD18R,0.5725X0.5682*%
%ADD19R,1.2000X1.6500*%
D12*
X776100Y738400D02*
D03*
Y725700D02*
D03*
Y713000D02*
D03*
Y700300D02*
D03*
Y687600D02*
D03*
Y674900D02*
D03*
Y662200D02*
D03*
Y649500D02*
D03*
Y636800D02*
D03*
Y624100D02*
D03*
Y611400D02*
D03*
Y598700D02*
D03*
Y586000D02*
D03*
Y573300D02*
D03*
X951100D02*
D03*
Y586000D02*
D03*
Y598700D02*
D03*
Y611400D02*
D03*
Y624100D02*
D03*
Y636800D02*
D03*
Y649500D02*
D03*
Y662200D02*
D03*
Y674900D02*
D03*
Y687600D02*
D03*
Y700300D02*
D03*
Y713000D02*
D03*
Y725700D02*
D03*
Y738400D02*
D03*
D13*
X806451Y560800D02*
D03*
X819150D02*
D03*
X831851D02*
D03*
X844550D02*
D03*
X857251D02*
D03*
X869950D02*
D03*
X882651D02*
D03*
X895350D02*
D03*
X908051D02*
D03*
X920751D02*
D03*
D14*
X834600Y675200D02*
D03*
Y661200D02*
D03*
Y647200D02*
D03*
X848600D02*
D03*
X862600D02*
D03*
Y661200D02*
D03*
Y675200D02*
D03*
X848600D02*
D03*
Y661200D02*
D03*
D15*
X1130750Y679450D02*
D03*
Y666750D02*
D03*
Y654050D02*
D03*
Y641350D02*
D03*
Y628650D02*
D03*
Y615950D02*
D03*
Y603250D02*
D03*
Y590550D02*
D03*
X1076510D02*
D03*
Y603250D02*
D03*
Y615950D02*
D03*
Y628650D02*
D03*
Y641350D02*
D03*
Y654050D02*
D03*
Y666750D02*
D03*
Y679450D02*
D03*
D16*
X1046480Y570230D02*
D03*
Y578230D02*
D03*
X1051560Y826770D02*
D03*
Y834770D02*
D03*
X1024890Y826581D02*
D03*
Y834581D02*
D03*
X1003300Y826580D02*
D03*
Y834580D02*
D03*
D17*
X1071880Y837230D02*
D03*
Y824230D02*
D03*
D18*
X1115060Y826058D02*
D03*
Y835102D02*
D03*
X1092200D02*
D03*
Y826058D02*
D03*
D19*
X1046950Y793750D02*
D03*
X1073950D02*
D03*
M02*
