G04*
G04 #@! TF.GenerationSoftware,Altium Limited,Altium Designer,26.7.1 (11)*
G04*
G04 Layer_Physical_Order=5*
G04 Layer_Color=16440176*
G04 Board_Origin=0|0*
%FSLAX44Y44*%
%MOMM*%
G71*
G04*
G04 #@! TF.SameCoordinates,6C30495D-F883-42B2-96C6-9C3B3C046095*
G04*
G04*
G04 #@! TF.FilePolarity,Positive*
G04*
G01*
G75*
%ADD26C,1.2000*%
%ADD27R,1.2000X1.2000*%
%ADD29C,2.5000*%
%ADD30R,2.5000X2.5000*%
%ADD37C,0.2540*%
%ADD38C,2.1000*%
%ADD39C,1.6500*%
%ADD40R,1.6500X1.6500*%
%ADD41R,1.9500X1.9500*%
%ADD42C,1.9500*%
%ADD43C,3.6600*%
%ADD44C,1.2700*%
D26*
X1207770Y671860D02*
D03*
X1172210Y670620D02*
D03*
X1706880Y709960D02*
D03*
X1701800Y810230D02*
D03*
X1709420Y541050D02*
D03*
D27*
X1207770Y595600D02*
D03*
X1172210Y594360D02*
D03*
X1706880Y633700D02*
D03*
X1701800Y886490D02*
D03*
X1709420Y464790D02*
D03*
D29*
X1221740Y488240D02*
D03*
X881380Y942900D02*
D03*
D30*
X1175740Y488240D02*
D03*
X835380Y942900D02*
D03*
D37*
X991616Y729996D02*
X1022340Y699272D01*
Y483870D02*
Y699272D01*
X689610Y676910D02*
X813816Y552704D01*
X913506D01*
X982340Y483870D01*
X795150Y586000D02*
X1141330Y932180D01*
Y714864D02*
Y932180D01*
X1112266Y685800D02*
X1141330Y714864D01*
D38*
X1220470Y905510D02*
D03*
X1223010Y732790D02*
D03*
X1002030Y755650D02*
D03*
X1082040Y728980D02*
D03*
D39*
X1632650Y422910D02*
D03*
X1562650D02*
D03*
X1447650D02*
D03*
X1454000Y932180D02*
D03*
X1524000D02*
D03*
X1639000D02*
D03*
X1452030Y817890D02*
D03*
X1522030D02*
D03*
X1637030D02*
D03*
X1448920Y701040D02*
D03*
X1518920D02*
D03*
X1633920D02*
D03*
X1448920Y580390D02*
D03*
X1518920D02*
D03*
X1633920D02*
D03*
X689610Y727710D02*
D03*
Y676910D02*
D03*
X1166330Y932180D02*
D03*
X1141330D02*
D03*
X1116330D02*
D03*
X1091330D02*
D03*
X1066330D02*
D03*
D40*
X1447650Y469910D02*
D03*
X1639000Y885180D02*
D03*
X1637030Y770890D02*
D03*
X1633920Y654040D02*
D03*
Y533390D02*
D03*
X1041330Y932180D02*
D03*
D41*
X1337310Y774700D02*
D03*
D42*
Y723900D02*
D03*
Y673100D02*
D03*
Y622300D02*
D03*
Y571500D02*
D03*
D43*
X782340Y483870D02*
D03*
X822340D02*
D03*
X902340D02*
D03*
X942340D02*
D03*
X982340D02*
D03*
X1022340D02*
D03*
D44*
X994410Y544830D02*
D03*
X998220Y575310D02*
D03*
X1102106Y812038D02*
D03*
X1106932Y814832D02*
D03*
X810260Y708428D02*
D03*
X991616Y729996D02*
D03*
X1112012Y664718D02*
D03*
X1203452Y715264D02*
D03*
X758698Y917194D02*
D03*
X796798Y643890D02*
D03*
X751332Y598700D02*
D03*
X795150Y586000D02*
D03*
X1112266Y685800D02*
D03*
X1093470Y762000D02*
D03*
M02*
