G04*
G04 #@! TF.GenerationSoftware,Altium Limited,Altium Designer,26.7.1 (11)*
G04*
G04 Layer_Color=65535*
G04 Board_Origin=0|0*
%FSLAX44Y44*%
%MOMM*%
G71*
G04*
G04 #@! TF.SameCoordinates,6C30495D-F883-42B2-96C6-9C3B3C046095*
G04*
G04*
G04 #@! TF.FilePolarity,Positive*
G04*
G01*
G75*
%ADD10C,0.1000*%
%ADD11C,0.2000*%
D10*
X762600Y738400D02*
X763600D01*
X762600D01*
X1432650Y469910D02*
X1431650D01*
X1432650D01*
X1654000Y885180D02*
X1655000D01*
X1654000D01*
X1652030Y770890D02*
X1653030D01*
X1652030D01*
X1648920Y654040D02*
X1649920D01*
X1648920D01*
Y533390D02*
X1649920D01*
X1648920D01*
D11*
X773600Y745800D02*
Y813300D01*
X953600D01*
Y745800D02*
Y813300D01*
Y558300D02*
Y565800D01*
X928600Y558300D02*
X953600D01*
X773600D02*
X798600D01*
X773600D02*
Y565800D01*
X1126240Y513690D02*
X1317240D01*
X1126240Y405790D02*
Y513690D01*
Y405790D02*
X1317240D01*
Y513690D01*
X1068880Y686200D02*
X1084130D01*
X1087630Y585500D02*
Y684500D01*
Y585500D02*
X1119630D01*
Y684500D01*
X1087630D02*
X1119630D01*
X1572650Y411410D02*
X1622650D01*
X1437150Y429910D02*
Y456910D01*
X1457650Y411410D02*
X1547650D01*
X1642150Y439910D02*
Y481410D01*
X1460650D02*
X1642150D01*
X1040130Y569230D02*
Y579230D01*
X1052830Y569230D02*
Y579230D01*
X976880Y860450D02*
Y968350D01*
X785880Y860450D02*
X976880D01*
X785880D02*
Y968350D01*
X976880D01*
X1464000Y943680D02*
X1514000D01*
X1649500Y898180D02*
Y925180D01*
X1539000Y943680D02*
X1629000D01*
X1444500Y873680D02*
Y915180D01*
Y873680D02*
X1626000D01*
X1462030Y829390D02*
X1512030D01*
X1647530Y783890D02*
Y810890D01*
X1537030Y829390D02*
X1627030D01*
X1442530Y759390D02*
Y800890D01*
Y759390D02*
X1624030D01*
X1458920Y712540D02*
X1508920D01*
X1644420Y667040D02*
Y694040D01*
X1533920Y712540D02*
X1623920D01*
X1439420Y642540D02*
Y684040D01*
Y642540D02*
X1620920D01*
X1458920Y591890D02*
X1508920D01*
X1644420Y546390D02*
Y573390D01*
X1533920Y591890D02*
X1623920D01*
X1439420Y521890D02*
Y563390D01*
Y521890D02*
X1620920D01*
X1121923Y823218D02*
Y837942D01*
X1108197Y823218D02*
Y837942D01*
X1085337Y823218D02*
Y837942D01*
X1099063Y823218D02*
Y837942D01*
X1016830Y932180D02*
Y966180D01*
X1190830D01*
Y908680D02*
Y966180D01*
X1041330Y908680D02*
X1190830D01*
X1037450Y805500D02*
X1073950D01*
X1037450Y782000D02*
Y805500D01*
Y782000D02*
X1073950D01*
X1045210Y825770D02*
Y835770D01*
X1057910Y825770D02*
Y835770D01*
X1018540Y825580D02*
Y835580D01*
X1031240Y825580D02*
Y835580D01*
X996951Y825580D02*
Y835580D01*
X1009650Y825580D02*
Y835580D01*
M02*
