G04*
G04 #@! TF.GenerationSoftware,Altium Limited,Altium Designer,26.7.1 (11)*
G04*
G04 Layer_Physical_Order=1*
G04 Layer_Color=255*
G04 Board_Origin=0|0*
%FSLAX44Y44*%
%MOMM*%
G71*
G04*
G04 #@! TF.SameCoordinates,6C30495D-F883-42B2-96C6-9C3B3C046095*
G04*
G04*
G04 #@! TF.FilePolarity,Positive*
G04*
G01*
G75*
%ADD12R,1.5000X0.9000*%
%ADD13R,0.9000X1.5000*%
%ADD14R,0.9000X0.9000*%
%ADD15R,1.5250X0.6500*%
%ADD16R,0.5200X0.5200*%
%ADD17R,0.8500X0.7500*%
%ADD18R,0.5725X0.5682*%
%ADD19R,1.2000X1.6500*%
%ADD26C,1.2000*%
%ADD27R,1.2000X1.2000*%
%ADD29C,2.5000*%
%ADD30R,2.5000X2.5000*%
%ADD37C,0.2540*%
%ADD38C,2.1000*%
%ADD39C,1.6500*%
%ADD40R,1.6500X1.6500*%
%ADD41R,1.9500X1.9500*%
%ADD42C,1.9500*%
%ADD43C,3.6600*%
%ADD44C,1.2700*%
D12*
X776100Y738400D02*
D03*
Y725700D02*
D03*
Y713000D02*
D03*
Y700300D02*
D03*
Y687600D02*
D03*
Y674900D02*
D03*
Y662200D02*
D03*
Y649500D02*
D03*
Y636800D02*
D03*
Y624100D02*
D03*
Y611400D02*
D03*
Y598700D02*
D03*
Y586000D02*
D03*
Y573300D02*
D03*
X951100D02*
D03*
Y586000D02*
D03*
Y598700D02*
D03*
Y611400D02*
D03*
Y624100D02*
D03*
Y636800D02*
D03*
Y649500D02*
D03*
Y662200D02*
D03*
Y674900D02*
D03*
Y687600D02*
D03*
Y700300D02*
D03*
Y713000D02*
D03*
Y725700D02*
D03*
Y738400D02*
D03*
D13*
X806451Y560800D02*
D03*
X819150D02*
D03*
X831851D02*
D03*
X844550D02*
D03*
X857251D02*
D03*
X869950D02*
D03*
X882651D02*
D03*
X895350D02*
D03*
X908051D02*
D03*
X920751D02*
D03*
D14*
X834600Y675200D02*
D03*
Y661200D02*
D03*
Y647200D02*
D03*
X848600D02*
D03*
X862600D02*
D03*
Y661200D02*
D03*
Y675200D02*
D03*
X848600D02*
D03*
Y661200D02*
D03*
D15*
X1130750Y679450D02*
D03*
Y666750D02*
D03*
Y654050D02*
D03*
Y641350D02*
D03*
Y628650D02*
D03*
Y615950D02*
D03*
Y603250D02*
D03*
Y590550D02*
D03*
X1076510D02*
D03*
Y603250D02*
D03*
Y615950D02*
D03*
Y628650D02*
D03*
Y641350D02*
D03*
Y654050D02*
D03*
Y666750D02*
D03*
Y679450D02*
D03*
D16*
X1046480Y570230D02*
D03*
Y578230D02*
D03*
X1051560Y826770D02*
D03*
Y834770D02*
D03*
X1024890Y826581D02*
D03*
Y834581D02*
D03*
X1003300Y826580D02*
D03*
Y834580D02*
D03*
D17*
X1071880Y837230D02*
D03*
Y824230D02*
D03*
D18*
X1115060Y826058D02*
D03*
Y835102D02*
D03*
X1092200D02*
D03*
Y826058D02*
D03*
D19*
X1046950Y793750D02*
D03*
X1073950D02*
D03*
D26*
X1207770Y671860D02*
D03*
X1172210Y670620D02*
D03*
X1706880Y709960D02*
D03*
X1701800Y810230D02*
D03*
X1709420Y541050D02*
D03*
D27*
X1207770Y595600D02*
D03*
X1172210Y594360D02*
D03*
X1706880Y633700D02*
D03*
X1701800Y886490D02*
D03*
X1709420Y464790D02*
D03*
D29*
X1221740Y488240D02*
D03*
X881380Y942900D02*
D03*
D30*
X1175740Y488240D02*
D03*
X835380Y942900D02*
D03*
D37*
X965940Y573300D02*
X994410Y544830D01*
X951100Y573300D02*
X965940D01*
X1026157Y578230D02*
X1046480D01*
X1023237Y575310D02*
X1026157Y578230D01*
X998220Y575310D02*
X1023237D01*
X1193800Y762000D02*
X1223010Y732790D01*
X1093470Y762000D02*
X1193800D01*
X1082294Y773176D02*
X1093470Y762000D01*
X1056094Y773176D02*
X1082294D01*
X1106932Y785876D02*
X1115060Y794004D01*
X1104392Y812292D02*
X1104395Y812258D01*
X1106932Y785876D01*
X1083818Y781050D02*
X1090676D01*
X1102106D01*
X1051560Y826770D02*
X1056894Y821436D01*
X1102106Y792480D02*
Y812038D01*
X1090676Y781050D02*
X1102106Y792480D01*
X1056894Y787400D02*
Y821436D01*
X1071880Y817372D02*
Y824230D01*
Y817372D02*
X1083818Y805434D01*
Y781050D02*
Y805434D01*
X1063244Y781050D02*
X1083818D01*
X1104392Y812292D02*
X1106932Y814832D01*
X1102106Y781050D02*
X1106932Y785876D01*
X1115060Y794004D02*
Y826058D01*
X1056894Y787400D02*
X1063244Y781050D01*
X1046480Y570230D02*
X1110430D01*
X1130750Y590550D01*
X951100Y738400D02*
X960396D01*
X1015746Y793750D01*
X1046950D01*
X951100Y586000D02*
X1008402D01*
X1051052Y628650D01*
X1076510D01*
X782340Y483870D02*
X816884Y449326D01*
X1136826D01*
X1175740Y488240D01*
X792988Y725700D02*
X810260Y708428D01*
X776100Y725700D02*
X792988D01*
X1108101Y826058D02*
X1115060D01*
X1099058Y835102D02*
X1108101Y826058D01*
X1092200Y835102D02*
X1099058D01*
X1038288Y826770D02*
X1051560D01*
X1038098Y826581D02*
X1038288Y826770D01*
X1024890Y826581D02*
X1038098D01*
X1013968Y826580D02*
X1024890Y826581D01*
X1003300Y826580D02*
X1013968D01*
X1130750Y590550D02*
X1167160D01*
X1173480Y596870D01*
X1207770Y502210D02*
Y595600D01*
Y502210D02*
X1221740Y488240D01*
X1709420Y464790D02*
X1721866Y477236D01*
Y618714D01*
X1706880Y633700D02*
X1721866Y618714D01*
X1621790Y592520D02*
X1633920Y580390D01*
X1621790Y592520D02*
Y688910D01*
X1633920Y701040D01*
X1622552Y712408D02*
X1633920Y701040D01*
X1622552Y712408D02*
Y803412D01*
X1637030Y817890D01*
X1624584Y830336D02*
X1637030Y817890D01*
X1624584Y830336D02*
Y917764D01*
X1639000Y932180D01*
X767080Y713000D02*
X776100D01*
X764540Y715540D02*
X767080Y713000D01*
X764540Y715540D02*
Y872060D01*
X835380Y942900D01*
X806451Y499760D02*
X822340Y483870D01*
X806451Y499760D02*
Y560800D01*
Y619050D01*
X834600Y647200D01*
Y661200D01*
Y647200D02*
X848600D01*
X834600Y661200D02*
Y675200D01*
X848600Y647200D02*
X862600D01*
X834600Y675200D02*
X848600D01*
X862600Y647200D02*
Y661200D01*
X1046480Y578230D02*
X1058800Y590550D01*
X1076510D01*
X848600Y661200D02*
Y675200D01*
X862600Y661200D02*
Y675200D01*
X834600D02*
Y726760D01*
X822960Y738400D02*
X834600Y726760D01*
X776100Y738400D02*
X822960D01*
X1003300Y834580D02*
X1013969Y834581D01*
X1024890D01*
X1000696Y834580D02*
X1003300D01*
X996696Y830580D02*
X1000696Y834580D01*
X996696Y812800D02*
Y830580D01*
Y812800D02*
X1015746Y793750D01*
X1024890Y834581D02*
X1038098D01*
X1038288Y834770D01*
X1051560D01*
X1046950Y782320D02*
Y793750D01*
Y782320D02*
X1056094Y773176D01*
X951100Y674900D02*
X1011428D01*
X1015978Y679450D01*
X1076510D01*
X951100Y649500D02*
X1011958D01*
X1029208Y666750D01*
X1076510D01*
X951100Y636800D02*
X1010942D01*
X1028192Y654050D01*
X1076510D01*
X951100Y611400D02*
X1024658D01*
X1054608Y641350D01*
X1076510D01*
X1337310Y774700D02*
Y815490D01*
X1454000Y932180D01*
X1073950Y793750D02*
Y796036D01*
X1063752Y806234D02*
X1073950Y796036D01*
X1063752Y806234D02*
Y834182D01*
X1066800Y837230D01*
X1071880D01*
X1130750Y679450D02*
X1148842D01*
X1154938Y685546D01*
X1194084D01*
X1207770Y671860D01*
X1130750Y666750D02*
X1167100D01*
X1173480Y673130D01*
X1122680Y654050D02*
X1130750D01*
X1112012Y664718D02*
X1122680Y654050D01*
X1633920Y654040D02*
X1709420Y578540D01*
Y541050D02*
Y578540D01*
X1130750Y641350D02*
X1204722D01*
X1217676Y654304D01*
Y701040D01*
X1203452Y715264D02*
X1217676Y701040D01*
X1130750Y628650D02*
X1219708D01*
X1373124Y782066D01*
Y819658D01*
X1503680Y950214D01*
X1645920D01*
X1651254Y944880D01*
Y897434D02*
Y944880D01*
X1639000Y885180D02*
X1651254Y897434D01*
X1639000Y885180D02*
X1668780Y855400D01*
Y748060D02*
Y855400D01*
Y748060D02*
X1706880Y709960D01*
X1518920Y580390D02*
Y701040D01*
X1522030Y762570D01*
Y817890D01*
X1518920Y466640D02*
Y580390D01*
Y466640D02*
X1562650Y422910D01*
X1522030Y817890D02*
X1524000Y877000D01*
Y932180D01*
X951100Y687600D02*
X1040660D01*
X1082040Y728980D01*
X767058Y636800D02*
X776100D01*
X758698Y645160D02*
X767058Y636800D01*
X758698Y645160D02*
Y917194D01*
X1041330Y932180D02*
X1082548Y890962D01*
Y830580D02*
Y890962D01*
Y830580D02*
X1087070Y826058D01*
X1092200D01*
X764794Y624100D02*
X776100D01*
X748538Y640356D02*
X764794Y624100D01*
X748538Y640356D02*
Y948690D01*
X762000Y962152D01*
X1036358D01*
X1066330Y932180D01*
X1115060Y883450D01*
Y835102D02*
Y883450D01*
X761978Y611400D02*
X776100D01*
X743458Y629920D02*
X761978Y611400D01*
X743458Y629920D02*
Y955040D01*
X757936Y969518D01*
X1053992D01*
X1091330Y932180D01*
X776100Y611400D02*
X784860D01*
X796798Y623338D01*
Y643890D01*
X751332Y598700D02*
X776100D01*
Y586000D02*
X795150D01*
X951100Y700300D02*
X960120D01*
X962660Y702840D01*
Y716280D01*
X1002030Y755650D01*
X1431287Y380996D02*
X1428748Y383535D01*
X1423669D01*
X1421130Y380996D01*
Y378457D01*
X1423669Y375918D01*
X1428748D01*
X1431287Y373378D01*
Y370839D01*
X1428748Y368300D01*
X1423669D01*
X1421130Y370839D01*
X1436365Y368300D02*
Y378457D01*
X1438904D01*
X1441443Y375918D01*
Y368300D01*
Y375918D01*
X1443983Y378457D01*
X1446522Y375918D01*
Y368300D01*
X1454139Y378457D02*
X1459218D01*
X1461757Y375918D01*
Y368300D01*
X1454139D01*
X1451600Y370839D01*
X1454139Y373378D01*
X1461757D01*
X1466835Y378457D02*
Y368300D01*
Y373378D01*
X1469374Y375918D01*
X1471914Y378457D01*
X1474453D01*
X1484610Y380996D02*
Y378457D01*
X1482070D01*
X1487149D01*
X1484610D01*
Y370839D01*
X1487149Y368300D01*
X1510001Y383535D02*
Y368300D01*
Y375918D01*
X1520158D01*
Y383535D01*
Y368300D01*
X1527776D02*
X1532854D01*
X1535393Y370839D01*
Y375918D01*
X1532854Y378457D01*
X1527776D01*
X1525236Y375918D01*
Y370839D01*
X1527776Y368300D01*
X1540471D02*
Y378457D01*
X1543011D01*
X1545550Y375918D01*
Y368300D01*
Y375918D01*
X1548089Y378457D01*
X1550628Y375918D01*
Y368300D01*
X1563324D02*
X1558246D01*
X1555706Y370839D01*
Y375918D01*
X1558246Y378457D01*
X1563324D01*
X1565863Y375918D01*
Y373378D01*
X1555706D01*
X1586177Y368300D02*
Y378457D01*
X1591255Y383535D01*
X1596333Y378457D01*
Y368300D01*
Y375918D01*
X1586177D01*
X1601412Y378457D02*
Y370839D01*
X1603951Y368300D01*
X1611568D01*
Y378457D01*
X1619186Y380996D02*
Y378457D01*
X1616647D01*
X1621725D01*
X1619186D01*
Y370839D01*
X1621725Y368300D01*
X1631882D02*
X1636960D01*
X1639499Y370839D01*
Y375918D01*
X1636960Y378457D01*
X1631882D01*
X1629343Y375918D01*
Y370839D01*
X1631882Y368300D01*
X1644578D02*
Y378457D01*
X1647117D01*
X1649656Y375918D01*
Y368300D01*
Y375918D01*
X1652195Y378457D01*
X1654734Y375918D01*
Y368300D01*
X1662352Y378457D02*
X1667430D01*
X1669969Y375918D01*
Y368300D01*
X1662352D01*
X1659813Y370839D01*
X1662352Y373378D01*
X1669969D01*
X1677587Y380996D02*
Y378457D01*
X1675048D01*
X1680126D01*
X1677587D01*
Y370839D01*
X1680126Y368300D01*
X1687744D02*
X1692822D01*
X1690283D01*
Y378457D01*
X1687744D01*
X1702979Y368300D02*
X1708057D01*
X1710596Y370839D01*
Y375918D01*
X1708057Y378457D01*
X1702979D01*
X1700440Y375918D01*
Y370839D01*
X1702979Y368300D01*
X1715675D02*
Y378457D01*
X1723292D01*
X1725831Y375918D01*
Y368300D01*
D38*
X1220470Y905510D02*
D03*
X1223010Y732790D02*
D03*
X1002030Y755650D02*
D03*
X1082040Y728980D02*
D03*
D39*
X1632650Y422910D02*
D03*
X1562650D02*
D03*
X1447650D02*
D03*
X1454000Y932180D02*
D03*
X1524000D02*
D03*
X1639000D02*
D03*
X1452030Y817890D02*
D03*
X1522030D02*
D03*
X1637030D02*
D03*
X1448920Y701040D02*
D03*
X1518920D02*
D03*
X1633920D02*
D03*
X1448920Y580390D02*
D03*
X1518920D02*
D03*
X1633920D02*
D03*
X689610Y727710D02*
D03*
Y676910D02*
D03*
X1166330Y932180D02*
D03*
X1141330D02*
D03*
X1116330D02*
D03*
X1091330D02*
D03*
X1066330D02*
D03*
D40*
X1447650Y469910D02*
D03*
X1639000Y885180D02*
D03*
X1637030Y770890D02*
D03*
X1633920Y654040D02*
D03*
Y533390D02*
D03*
X1041330Y932180D02*
D03*
D41*
X1337310Y774700D02*
D03*
D42*
Y723900D02*
D03*
Y673100D02*
D03*
Y622300D02*
D03*
Y571500D02*
D03*
D43*
X782340Y483870D02*
D03*
X822340D02*
D03*
X902340D02*
D03*
X942340D02*
D03*
X982340D02*
D03*
X1022340D02*
D03*
D44*
X994410Y544830D02*
D03*
X998220Y575310D02*
D03*
X1102106Y812038D02*
D03*
X1106932Y814832D02*
D03*
X810260Y708428D02*
D03*
X991616Y729996D02*
D03*
X1112012Y664718D02*
D03*
X1203452Y715264D02*
D03*
X758698Y917194D02*
D03*
X796798Y643890D02*
D03*
X751332Y598700D02*
D03*
X795150Y586000D02*
D03*
X1112266Y685800D02*
D03*
X1093470Y762000D02*
D03*
M02*
