M48
;Layer_Color=9474304
;FILE_FORMAT=4:4
METRIC,LZ
;TYPE=PLATED
T01F00S00C0.7000
T02F00S00C0.7112
T03F00S00C1.1000
T04F00S00C1.3000
T05F00S00C1.6000
T06F00S00C1.6500
T07F00S00C2.4400
%
T01
X0170942Y0046479
Y0054105
X0170688Y006337
Y0070996
X0120777Y0067186
Y005956
X0117221Y0059436
Y0067062
X017018Y0081023
Y0088649
T02
X01203452Y00715264
X01112266Y006858
X01112012Y00664718
X0109347Y00762
X00991616Y00729996
X0099822Y0057531
X0099441Y0054483
X0079515Y00586
X00796798Y0064389
X0081026Y00708428
X00751332Y005987
X00758698Y00917194
X01102106Y00812038
X01106932Y00814832
T03
X0163265Y0042291
X0163392Y0053339
Y0058039
Y0065404
Y0070104
X0163703Y0077089
X0151892Y0070104
X0144892
Y0058039
X0151892
X0144765Y0046991
Y0042291
X0156265
X0068961Y0067691
Y0072771
X0104133Y0093218
X0106633
X0109133
X0111633
X0114133
X0116633
X01454
X01524
X0152203Y0081789
X0145203
X0163703
X01639Y0088518
Y0093218
T04
X0133731Y005715
Y006223
Y006731
Y007239
Y007747
T05
X0122301Y0073279
X0108204Y0072898
X0100203Y0075565
X0122047Y0090551
T06
X0122174Y0048824
X0117574
X0088138Y009429
X0083538
T07
X0082234Y0048387
X0090234
X0094234
X0098234
X0102234
X0078234
M30
