G04*
G04 #@! TF.GenerationSoftware,Altium Limited,Altium Designer,26.7.1 (11)*
G04*
G04 Layer_Physical_Order=6*
G04 Layer_Color=16711680*
G04 Board_Origin=0|0*
%FSLAX44Y44*%
%MOMM*%
G71*
G04*
G04 #@! TF.SameCoordinates,6C30495D-F883-42B2-96C6-9C3B3C046095*
G04*
G04*
G04 #@! TF.FilePolarity,Positive*
G04*
G01*
G75*
%ADD16R,0.5200X0.5200*%
%ADD18R,0.5725X0.5682*%
%ADD26C,1.2000*%
%ADD27R,1.2000X1.2000*%
%ADD29C,2.5000*%
%ADD30R,2.5000X2.5000*%
%ADD37C,0.2540*%
%ADD38C,2.1000*%
%ADD39C,1.6500*%
%ADD40R,1.6500X1.6500*%
%ADD41R,1.9500X1.9500*%
%ADD42C,1.9500*%
%ADD43C,3.6600*%
%ADD44C,1.2700*%
%ADD57R,1.5000X1.2000*%
%ADD58R,1.5000X3.3000*%
%ADD59R,0.5200X0.5200*%
%ADD60R,4.2400X3.8100*%
D16*
X1008380Y625030D02*
D03*
Y617030D02*
D03*
X1098550Y798830D02*
D03*
Y790830D02*
D03*
X1021080Y788480D02*
D03*
Y796480D02*
D03*
X981710Y826770D02*
D03*
Y834770D02*
D03*
D18*
X908050Y676352D02*
D03*
Y667308D02*
D03*
X721360Y618643D02*
D03*
Y609600D02*
D03*
X810260Y675082D02*
D03*
Y666038D02*
D03*
X1118870Y789940D02*
D03*
Y798983D02*
D03*
D26*
X1207770Y671860D02*
D03*
X1172210Y670620D02*
D03*
X1706880Y709960D02*
D03*
X1701800Y810230D02*
D03*
X1709420Y541050D02*
D03*
D27*
X1207770Y595600D02*
D03*
X1172210Y594360D02*
D03*
X1706880Y633700D02*
D03*
X1701800Y886490D02*
D03*
X1709420Y464790D02*
D03*
D29*
X1221740Y488240D02*
D03*
X881380Y942900D02*
D03*
D30*
X1175740Y488240D02*
D03*
X835380Y942900D02*
D03*
D37*
X994410Y544830D02*
X1011428Y561848D01*
X1016508D01*
Y619760D01*
X1011238Y625030D02*
X1016508Y619760D01*
X998220Y575310D02*
X1008380Y585470D01*
Y617030D01*
X1070610Y843534D02*
X1087374Y826770D01*
X977138Y843534D02*
X1070610D01*
X781050D02*
X977138D01*
X683260Y664718D02*
X721360Y626618D01*
X677418Y670560D02*
X683260Y664718D01*
X721360Y618643D02*
Y626618D01*
X677418Y739902D02*
X781050Y843534D01*
X726440Y675082D02*
X810260D01*
X716076Y664718D02*
X726440Y675082D01*
X683260Y664718D02*
X716076D01*
X677418Y670560D02*
Y739902D01*
X984186Y788480D02*
X1021080D01*
X970026Y802640D02*
X984186Y788480D01*
X970026Y802640D02*
Y836422D01*
X977138Y843534D01*
X981710Y826770D02*
X1087374D01*
X1102106Y812038D01*
X1114044Y807720D02*
X1173230D01*
X1106932Y814832D02*
X1114044Y807720D01*
X810260Y675082D02*
X858520D01*
X859790Y676352D01*
X908050D01*
X810260Y675082D02*
Y708428D01*
X1173230Y807720D02*
X1237230D01*
X1607810Y788670D02*
X1637030Y817890D01*
X1271270Y788670D02*
X1607810D01*
X1271270Y763270D02*
Y788670D01*
Y801116D01*
X1271650Y801496D01*
Y814070D01*
Y818910D01*
X1257449Y833111D02*
X1271650Y818910D01*
X1220839Y833111D02*
X1257449D01*
X1218449Y830720D02*
X1220839Y833111D01*
X1173230Y830720D02*
X1218449D01*
X1008380Y625030D02*
X1011238D01*
X1161796Y846836D02*
X1220470Y905510D01*
X1161796Y822960D02*
Y846836D01*
Y822960D02*
X1165606Y819150D01*
X1216923D01*
X1225804Y828031D01*
X1248664D01*
Y787409D02*
Y828031D01*
X1225804Y787409D02*
X1248664D01*
X1215399Y797814D02*
X1225804Y787409D01*
X1131570Y797814D02*
X1215399D01*
X1130401Y798983D02*
X1131570Y797814D01*
X1118870Y798983D02*
X1130401D01*
X1108609D02*
X1118870D01*
X1108456Y798830D02*
X1108609Y798983D01*
X1098550Y798830D02*
X1108456D01*
X822340Y483870D02*
X955500Y617030D01*
X1008380D01*
X1223010Y732790D02*
X1249680D01*
X1263270Y746380D01*
Y763270D01*
Y788670D01*
Y801116D01*
X1263650Y801496D01*
Y814070D01*
X1256929Y782329D02*
X1263270Y788670D01*
X1220839Y782329D02*
X1256929D01*
X1218449Y784720D02*
X1220839Y782329D01*
X1173230Y784720D02*
X1218449D01*
X1146670D02*
X1173230D01*
X1145032Y783082D02*
X1146670Y784720D01*
X1106298Y783082D02*
X1145032D01*
X1098550Y790830D02*
X1106298Y783082D01*
X1062544Y790830D02*
X1098550D01*
X1056894Y796480D02*
X1062544Y790830D01*
X1021080Y796480D02*
X1056894D01*
X999300D02*
X1021080D01*
X975106Y820674D02*
X999300Y796480D01*
X975106Y820674D02*
Y831976D01*
X977900Y834770D01*
X981710D01*
X1337310Y571500D02*
X1422400Y486410D01*
Y420878D02*
Y486410D01*
Y420878D02*
X1432560Y410718D01*
X1620458D01*
X1632650Y422910D01*
X894180Y744221D02*
X977392D01*
X991616Y729996D01*
X1173480Y673130D02*
X1186912Y686562D01*
X1293368D01*
X1446540Y533390D01*
X1633920D01*
X830480Y715518D02*
Y744221D01*
Y715518D02*
X843180Y702818D01*
X1393952D01*
X1404366Y713232D01*
X1506728D01*
X1518920Y701040D01*
X706121Y744221D02*
X830480D01*
X689610Y727710D02*
X706121Y744221D01*
X796798Y643890D02*
X810260Y657352D01*
Y666038D01*
X721360Y609600D02*
X740432D01*
X751332Y598700D01*
X682498Y609600D02*
X721360D01*
X672338Y619760D02*
X682498Y609600D01*
X672338Y619760D02*
Y771398D01*
X792988Y892048D01*
X1076198D01*
X1116330Y932180D01*
X1093774Y667308D02*
X1112266Y685800D01*
X908050Y667308D02*
X1093774D01*
D38*
X1220470Y905510D02*
D03*
X1223010Y732790D02*
D03*
X1002030Y755650D02*
D03*
X1082040Y728980D02*
D03*
D39*
X1632650Y422910D02*
D03*
X1562650D02*
D03*
X1447650D02*
D03*
X1454000Y932180D02*
D03*
X1524000D02*
D03*
X1639000D02*
D03*
X1452030Y817890D02*
D03*
X1522030D02*
D03*
X1637030D02*
D03*
X1448920Y701040D02*
D03*
X1518920D02*
D03*
X1633920D02*
D03*
X1448920Y580390D02*
D03*
X1518920D02*
D03*
X1633920D02*
D03*
X689610Y727710D02*
D03*
Y676910D02*
D03*
X1166330Y932180D02*
D03*
X1141330D02*
D03*
X1116330D02*
D03*
X1091330D02*
D03*
X1066330D02*
D03*
D40*
X1447650Y469910D02*
D03*
X1639000Y885180D02*
D03*
X1637030Y770890D02*
D03*
X1633920Y654040D02*
D03*
Y533390D02*
D03*
X1041330Y932180D02*
D03*
D41*
X1337310Y774700D02*
D03*
D42*
Y723900D02*
D03*
Y673100D02*
D03*
Y622300D02*
D03*
Y571500D02*
D03*
D43*
X782340Y483870D02*
D03*
X822340D02*
D03*
X902340D02*
D03*
X942340D02*
D03*
X982340D02*
D03*
X1022340D02*
D03*
D44*
X994410Y544830D02*
D03*
X998220Y575310D02*
D03*
X1102106Y812038D02*
D03*
X1106932Y814832D02*
D03*
X810260Y708428D02*
D03*
X991616Y729996D02*
D03*
X1112012Y664718D02*
D03*
X1203452Y715264D02*
D03*
X758698Y917194D02*
D03*
X796798Y643890D02*
D03*
X751332Y598700D02*
D03*
X795150Y586000D02*
D03*
X1112266Y685800D02*
D03*
X1093470Y762000D02*
D03*
D57*
X1173230Y784720D02*
D03*
Y807720D02*
D03*
Y830720D02*
D03*
D58*
X1237230Y807720D02*
D03*
D59*
X1271270Y788670D02*
D03*
X1263270D02*
D03*
X1271270Y763270D02*
D03*
X1263270D02*
D03*
X1271650Y814070D02*
D03*
X1263650D02*
D03*
D60*
X830480Y744221D02*
D03*
X894180D02*
D03*
M02*
