G04*
G04 #@! TF.GenerationSoftware,Altium Limited,Altium Designer,26.7.1 (11)*
G04*
G04 Layer_Physical_Order=4*
G04 Layer_Color=128*
G04 Board_Origin=0|0*
%FSLAX44Y44*%
%MOMM*%
G71*
G04*
G04 #@! TF.SameCoordinates,6C30495D-F883-42B2-96C6-9C3B3C046095*
G04*
G04*
G04 #@! TF.FilePolarity,Negative*
G04*
G01*
G75*
%ADD45C,1.0160*%
%ADD46C,1.7160*%
%ADD48C,2.6160*%
%ADD50C,2.6660*%
%ADD51C,2.1160*%
%ADD53C,2.3160*%
%ADD54C,3.4560*%
%ADD55C,1.7272*%
G04:AMPARAMS|DCode=56|XSize=2.2352mm|YSize=2.2352mm|CornerRadius=0mm|HoleSize=0mm|Usage=FLASHONLY|Rotation=0.000|XOffset=0mm|YOffset=0mm|HoleType=Round|Shape=Relief|Width=0.254mm|Gap=0.254mm|Entries=4|*
%AMTHD56*
7,0,0,2.2352,1.7272,0.2540,45*
%
%ADD56THD56*%
D45*
X624840Y332740D02*
Y1016000D01*
X1751330D01*
Y332740D02*
Y1016000D01*
X624840Y332740D02*
X1751330D01*
D46*
X1207770Y671860D02*
D03*
Y595600D02*
D03*
X1172210Y670620D02*
D03*
Y594360D02*
D03*
X1706880Y633700D02*
D03*
Y709960D02*
D03*
X1701800Y886490D02*
D03*
Y810230D02*
D03*
X1709420Y464790D02*
D03*
Y541050D02*
D03*
D48*
X1220470Y905510D02*
D03*
X1223010Y732790D02*
D03*
X1002030Y755650D02*
D03*
X1082040Y728980D02*
D03*
D50*
X1221740Y488240D02*
D03*
X1175740D02*
D03*
X835380Y942900D02*
D03*
X881380D02*
D03*
D51*
X1632650Y422910D02*
D03*
X1562650D02*
D03*
X1447650D02*
D03*
Y469910D02*
D03*
X1454000Y932180D02*
D03*
X1524000D02*
D03*
X1639000D02*
D03*
Y885180D02*
D03*
X1452030Y817890D02*
D03*
X1522030D02*
D03*
X1637030D02*
D03*
Y770890D02*
D03*
X1448920Y701040D02*
D03*
X1518920D02*
D03*
X1633920D02*
D03*
Y654040D02*
D03*
X1448920Y580390D02*
D03*
X1518920D02*
D03*
X1633920D02*
D03*
Y533390D02*
D03*
X689610Y727710D02*
D03*
Y676910D02*
D03*
X1166330Y932180D02*
D03*
X1141330D02*
D03*
X1116330D02*
D03*
X1091330D02*
D03*
X1066330D02*
D03*
X1041330D02*
D03*
D53*
X1337310Y774700D02*
D03*
Y723900D02*
D03*
Y673100D02*
D03*
Y622300D02*
D03*
Y571500D02*
D03*
D54*
X782340Y483870D02*
D03*
X822340D02*
D03*
X902340D02*
D03*
X942340D02*
D03*
X982340D02*
D03*
X1022340D02*
D03*
D55*
X994410Y544830D02*
D03*
X998220Y575310D02*
D03*
X991616Y729996D02*
D03*
X1112012Y664718D02*
D03*
X1203452Y715264D02*
D03*
X758698Y917194D02*
D03*
X796798Y643890D02*
D03*
X751332Y598700D02*
D03*
X795150Y586000D02*
D03*
X1112266Y685800D02*
D03*
X1093470Y762000D02*
D03*
D56*
X1102106Y812038D02*
D03*
X1106932Y814832D02*
D03*
X810260Y708428D02*
D03*
M02*
