G04*
G04 #@! TF.GenerationSoftware,Altium Limited,Altium Designer,26.7.1 (11)*
G04*
G04 Layer_Color=16711935*
G04 Board_Origin=0|0*
%FSLAX44Y44*%
%MOMM*%
G71*
G04*
G04 #@! TF.SameCoordinates,9F73497C-8F47-4EB9-A377-0E366E99F9EA*
G04*
G04*
G04 #@! TF.FilePolarity,Positive*
G04*
G01*
G75*
%ADD12C,0.2000*%
G36*
X1001578Y692570D02*
X995930D01*
Y689421D01*
X995174D01*
Y693420D01*
X1001578D01*
Y692570D01*
D02*
G37*
G36*
Y683766D02*
X1000822D01*
Y687546D01*
X998867D01*
Y684004D01*
X998111D01*
Y687546D01*
X995930D01*
Y683616D01*
X995174D01*
Y688396D01*
X1001578D01*
Y683766D01*
D02*
G37*
G36*
Y680055D02*
X1001572Y679986D01*
Y679905D01*
X1001566Y679824D01*
X1001553Y679636D01*
X1001541Y679449D01*
X1001516Y679267D01*
X1001503Y679180D01*
X1001485Y679105D01*
Y679099D01*
X1001478Y679080D01*
X1001472Y679049D01*
X1001460Y679011D01*
X1001447Y678961D01*
X1001428Y678911D01*
X1001403Y678849D01*
X1001378Y678780D01*
X1001316Y678630D01*
X1001235Y678474D01*
X1001141Y678311D01*
X1001022Y678161D01*
X1001016Y678155D01*
X1001003Y678136D01*
X1000978Y678111D01*
X1000947Y678080D01*
X1000904Y678036D01*
X1000854Y677987D01*
X1000791Y677936D01*
X1000729Y677874D01*
X1000654Y677818D01*
X1000566Y677755D01*
X1000479Y677693D01*
X1000385Y677630D01*
X1000279Y677568D01*
X1000166Y677512D01*
X999929Y677405D01*
X999923D01*
X999898Y677393D01*
X999860Y677380D01*
X999810Y677368D01*
X999748Y677343D01*
X999673Y677324D01*
X999585Y677299D01*
X999491Y677274D01*
X999385Y677255D01*
X999267Y677230D01*
X999141Y677205D01*
X999010Y677187D01*
X998867Y677174D01*
X998723Y677162D01*
X998410Y677149D01*
X998404D01*
X998379D01*
X998342D01*
X998286D01*
X998223Y677155D01*
X998148D01*
X998067Y677162D01*
X997973Y677168D01*
X997873Y677180D01*
X997773Y677193D01*
X997554Y677224D01*
X997329Y677268D01*
X997111Y677324D01*
X997104D01*
X997086Y677330D01*
X997055Y677343D01*
X997017Y677355D01*
X996967Y677374D01*
X996911Y677393D01*
X996848Y677418D01*
X996786Y677443D01*
X996636Y677505D01*
X996480Y677580D01*
X996323Y677668D01*
X996180Y677762D01*
X996173D01*
X996161Y677774D01*
X996142Y677786D01*
X996117Y677805D01*
X996055Y677861D01*
X995967Y677930D01*
X995874Y678018D01*
X995780Y678118D01*
X995686Y678224D01*
X995599Y678343D01*
Y678349D01*
X995592Y678355D01*
X995580Y678374D01*
X995561Y678399D01*
X995549Y678430D01*
X995524Y678468D01*
X995480Y678555D01*
X995430Y678668D01*
X995374Y678799D01*
X995324Y678949D01*
X995280Y679111D01*
Y679117D01*
X995274Y679130D01*
X995267Y679155D01*
X995261Y679192D01*
X995255Y679230D01*
X995249Y679280D01*
X995236Y679342D01*
X995230Y679405D01*
X995218Y679480D01*
X995205Y679555D01*
X995192Y679730D01*
X995180Y679923D01*
X995174Y680136D01*
Y682448D01*
X1001578D01*
Y680055D01*
D02*
G37*
G36*
X999997Y675693D02*
X1000004Y675668D01*
X1000023Y675637D01*
X1000048Y675587D01*
X1000079Y675531D01*
X1000116Y675468D01*
X1000154Y675393D01*
X1000204Y675312D01*
X1000310Y675131D01*
X1000441Y674937D01*
X1000585Y674743D01*
X1000741Y674550D01*
X1000747Y674544D01*
X1000760Y674531D01*
X1000785Y674500D01*
X1000816Y674469D01*
X1000860Y674431D01*
X1000904Y674381D01*
X1000960Y674331D01*
X1001016Y674275D01*
X1001147Y674162D01*
X1001291Y674050D01*
X1001447Y673944D01*
X1001522Y673894D01*
X1001603Y673856D01*
Y673344D01*
X995174D01*
Y674131D01*
X1000179D01*
Y674137D01*
X1000166Y674144D01*
X1000154Y674162D01*
X1000135Y674181D01*
X1000079Y674244D01*
X1000010Y674331D01*
X999929Y674437D01*
X999835Y674569D01*
X999735Y674718D01*
X999635Y674881D01*
Y674887D01*
X999623Y674900D01*
X999610Y674925D01*
X999591Y674956D01*
X999566Y675000D01*
X999541Y675043D01*
X999485Y675156D01*
X999423Y675281D01*
X999354Y675418D01*
X999292Y675562D01*
X999235Y675699D01*
X999991D01*
X999997Y675693D01*
D02*
G37*
G36*
X998517Y671326D02*
X998617D01*
X998723Y671319D01*
X998848Y671313D01*
X998985Y671301D01*
X999129Y671288D01*
X999279Y671276D01*
X999579Y671232D01*
X999885Y671176D01*
X1000023Y671138D01*
X1000160Y671101D01*
X1000166D01*
X1000191Y671088D01*
X1000229Y671076D01*
X1000273Y671057D01*
X1000335Y671032D01*
X1000397Y671001D01*
X1000472Y670969D01*
X1000554Y670926D01*
X1000729Y670832D01*
X1000904Y670713D01*
X1001072Y670570D01*
X1001153Y670488D01*
X1001228Y670407D01*
X1001235Y670401D01*
X1001247Y670388D01*
X1001266Y670357D01*
X1001285Y670326D01*
X1001316Y670276D01*
X1001347Y670226D01*
X1001378Y670157D01*
X1001416Y670089D01*
X1001453Y670007D01*
X1001485Y669920D01*
X1001516Y669826D01*
X1001547Y669720D01*
X1001566Y669614D01*
X1001585Y669495D01*
X1001597Y669376D01*
X1001603Y669245D01*
Y669157D01*
X1001597Y669114D01*
X1001591Y669064D01*
X1001585Y669001D01*
X1001578Y668939D01*
X1001553Y668801D01*
X1001516Y668651D01*
X1001460Y668495D01*
X1001391Y668345D01*
Y668339D01*
X1001378Y668326D01*
X1001372Y668308D01*
X1001353Y668276D01*
X1001303Y668208D01*
X1001241Y668114D01*
X1001153Y668014D01*
X1001053Y667908D01*
X1000929Y667802D01*
X1000791Y667702D01*
X1000785D01*
X1000772Y667689D01*
X1000754Y667677D01*
X1000722Y667658D01*
X1000685Y667639D01*
X1000641Y667614D01*
X1000585Y667589D01*
X1000529Y667558D01*
X1000460Y667527D01*
X1000391Y667495D01*
X1000229Y667433D01*
X1000041Y667364D01*
X999841Y667308D01*
X999835D01*
X999816Y667302D01*
X999785Y667295D01*
X999741Y667283D01*
X999685Y667270D01*
X999616Y667258D01*
X999535Y667245D01*
X999441Y667233D01*
X999342Y667221D01*
X999223Y667208D01*
X999104Y667196D01*
X998967Y667183D01*
X998823Y667170D01*
X998667Y667164D01*
X998504Y667158D01*
X998329D01*
X998317D01*
X998279D01*
X998223D01*
X998142Y667164D01*
X998048D01*
X997936Y667170D01*
X997817Y667177D01*
X997679Y667189D01*
X997536Y667202D01*
X997392Y667214D01*
X997086Y667258D01*
X996786Y667314D01*
X996648Y667352D01*
X996511Y667395D01*
X996505D01*
X996480Y667408D01*
X996442Y667420D01*
X996398Y667439D01*
X996336Y667464D01*
X996273Y667495D01*
X996199Y667527D01*
X996117Y667570D01*
X995949Y667664D01*
X995767Y667783D01*
X995599Y667926D01*
X995517Y668008D01*
X995443Y668089D01*
X995436Y668095D01*
X995424Y668108D01*
X995405Y668133D01*
X995386Y668170D01*
X995355Y668214D01*
X995324Y668270D01*
X995293Y668333D01*
X995255Y668401D01*
X995218Y668483D01*
X995186Y668570D01*
X995155Y668664D01*
X995124Y668770D01*
X995105Y668876D01*
X995086Y668995D01*
X995074Y669114D01*
X995068Y669245D01*
Y669289D01*
X995074Y669332D01*
X995080Y669401D01*
X995086Y669476D01*
X995105Y669570D01*
X995124Y669670D01*
X995149Y669776D01*
X995186Y669889D01*
X995230Y670007D01*
X995280Y670132D01*
X995342Y670251D01*
X995417Y670370D01*
X995505Y670488D01*
X995611Y670601D01*
X995724Y670701D01*
X995736Y670707D01*
X995761Y670726D01*
X995811Y670757D01*
X995880Y670801D01*
X995967Y670844D01*
X996074Y670901D01*
X996205Y670957D01*
X996355Y671013D01*
X996523Y671076D01*
X996717Y671132D01*
X996930Y671188D01*
X997161Y671232D01*
X997423Y671276D01*
X997698Y671307D01*
X998004Y671326D01*
X998329Y671332D01*
X998335D01*
X998342D01*
X998379D01*
X998442D01*
X998517Y671326D01*
D02*
G37*
G36*
X1192530Y820978D02*
X1191680D01*
Y826626D01*
X1188531D01*
Y827382D01*
X1192530D01*
Y820978D01*
D02*
G37*
G36*
X1187506D02*
X1182876D01*
Y821734D01*
X1186656D01*
Y823690D01*
X1183114D01*
Y824446D01*
X1186656D01*
Y826626D01*
X1182726D01*
Y827382D01*
X1187506D01*
Y820978D01*
D02*
G37*
G36*
X1181558D02*
X1179165D01*
X1179096Y820984D01*
X1179015D01*
X1178933Y820990D01*
X1178746Y821003D01*
X1178559Y821015D01*
X1178377Y821040D01*
X1178290Y821053D01*
X1178215Y821072D01*
X1178209D01*
X1178190Y821078D01*
X1178159Y821084D01*
X1178121Y821097D01*
X1178071Y821109D01*
X1178021Y821128D01*
X1177959Y821153D01*
X1177890Y821178D01*
X1177740Y821240D01*
X1177584Y821321D01*
X1177421Y821415D01*
X1177271Y821534D01*
X1177265Y821540D01*
X1177246Y821553D01*
X1177221Y821578D01*
X1177190Y821609D01*
X1177146Y821653D01*
X1177096Y821703D01*
X1177047Y821765D01*
X1176984Y821828D01*
X1176928Y821903D01*
X1176865Y821990D01*
X1176803Y822078D01*
X1176740Y822171D01*
X1176678Y822278D01*
X1176622Y822390D01*
X1176515Y822627D01*
Y822634D01*
X1176503Y822659D01*
X1176490Y822696D01*
X1176478Y822746D01*
X1176453Y822809D01*
X1176434Y822884D01*
X1176409Y822971D01*
X1176384Y823065D01*
X1176365Y823171D01*
X1176340Y823290D01*
X1176315Y823415D01*
X1176297Y823546D01*
X1176284Y823690D01*
X1176272Y823833D01*
X1176259Y824146D01*
Y824152D01*
Y824177D01*
Y824214D01*
Y824271D01*
X1176265Y824333D01*
Y824408D01*
X1176272Y824489D01*
X1176278Y824583D01*
X1176290Y824683D01*
X1176303Y824783D01*
X1176334Y825002D01*
X1176378Y825227D01*
X1176434Y825445D01*
Y825452D01*
X1176440Y825470D01*
X1176453Y825502D01*
X1176465Y825539D01*
X1176484Y825589D01*
X1176503Y825645D01*
X1176528Y825708D01*
X1176553Y825770D01*
X1176615Y825920D01*
X1176690Y826077D01*
X1176778Y826233D01*
X1176871Y826376D01*
Y826383D01*
X1176884Y826395D01*
X1176897Y826414D01*
X1176915Y826439D01*
X1176972Y826501D01*
X1177040Y826589D01*
X1177128Y826683D01*
X1177228Y826776D01*
X1177334Y826870D01*
X1177453Y826958D01*
X1177459D01*
X1177465Y826964D01*
X1177484Y826976D01*
X1177509Y826995D01*
X1177540Y827008D01*
X1177578Y827032D01*
X1177665Y827076D01*
X1177777Y827126D01*
X1177909Y827182D01*
X1178059Y827233D01*
X1178221Y827276D01*
X1178227D01*
X1178240Y827282D01*
X1178265Y827289D01*
X1178302Y827295D01*
X1178340Y827301D01*
X1178390Y827308D01*
X1178452Y827320D01*
X1178515Y827326D01*
X1178590Y827339D01*
X1178665Y827351D01*
X1178840Y827364D01*
X1179034Y827376D01*
X1179246Y827382D01*
X1181558D01*
Y820978D01*
D02*
G37*
G36*
X1173241Y822377D02*
X1173247D01*
X1173254Y822390D01*
X1173272Y822402D01*
X1173291Y822421D01*
X1173354Y822477D01*
X1173441Y822546D01*
X1173547Y822627D01*
X1173679Y822721D01*
X1173829Y822821D01*
X1173991Y822921D01*
X1173997D01*
X1174010Y822934D01*
X1174035Y822946D01*
X1174066Y822965D01*
X1174110Y822990D01*
X1174154Y823015D01*
X1174266Y823071D01*
X1174391Y823133D01*
X1174528Y823202D01*
X1174672Y823265D01*
X1174809Y823321D01*
Y822565D01*
X1174803Y822559D01*
X1174778Y822552D01*
X1174747Y822534D01*
X1174697Y822509D01*
X1174641Y822477D01*
X1174578Y822440D01*
X1174503Y822402D01*
X1174422Y822353D01*
X1174241Y822246D01*
X1174047Y822115D01*
X1173854Y821971D01*
X1173660Y821815D01*
X1173654Y821809D01*
X1173641Y821796D01*
X1173610Y821771D01*
X1173579Y821740D01*
X1173541Y821696D01*
X1173491Y821653D01*
X1173441Y821596D01*
X1173385Y821540D01*
X1173272Y821409D01*
X1173160Y821265D01*
X1173054Y821109D01*
X1173004Y821034D01*
X1172966Y820953D01*
X1172454D01*
Y827382D01*
X1173241D01*
Y822377D01*
D02*
G37*
G36*
X1195782Y923590D02*
X1190134D01*
Y920441D01*
X1189378D01*
Y924440D01*
X1195782D01*
Y923590D01*
D02*
G37*
G36*
Y914786D02*
X1195026D01*
Y918567D01*
X1193070D01*
Y915024D01*
X1192314D01*
Y918567D01*
X1190134D01*
Y914636D01*
X1189378D01*
Y919416D01*
X1195782D01*
Y914786D01*
D02*
G37*
G36*
Y911075D02*
X1195776Y911006D01*
Y910925D01*
X1195770Y910844D01*
X1195757Y910656D01*
X1195745Y910469D01*
X1195720Y910287D01*
X1195707Y910200D01*
X1195688Y910125D01*
Y910119D01*
X1195682Y910100D01*
X1195676Y910069D01*
X1195663Y910031D01*
X1195651Y909981D01*
X1195632Y909931D01*
X1195607Y909869D01*
X1195582Y909800D01*
X1195520Y909650D01*
X1195439Y909494D01*
X1195345Y909331D01*
X1195226Y909181D01*
X1195220Y909175D01*
X1195207Y909156D01*
X1195182Y909131D01*
X1195151Y909100D01*
X1195107Y909056D01*
X1195057Y909007D01*
X1194995Y908957D01*
X1194932Y908894D01*
X1194857Y908838D01*
X1194770Y908775D01*
X1194682Y908713D01*
X1194589Y908650D01*
X1194482Y908588D01*
X1194370Y908532D01*
X1194133Y908425D01*
X1194126D01*
X1194101Y908413D01*
X1194064Y908400D01*
X1194014Y908388D01*
X1193951Y908363D01*
X1193876Y908344D01*
X1193789Y908319D01*
X1193695Y908294D01*
X1193589Y908275D01*
X1193470Y908250D01*
X1193345Y908225D01*
X1193214Y908207D01*
X1193070Y908194D01*
X1192927Y908182D01*
X1192614Y908169D01*
X1192608D01*
X1192583D01*
X1192545D01*
X1192489D01*
X1192427Y908175D01*
X1192352D01*
X1192271Y908182D01*
X1192177Y908188D01*
X1192077Y908200D01*
X1191977Y908213D01*
X1191758Y908244D01*
X1191533Y908288D01*
X1191315Y908344D01*
X1191308D01*
X1191290Y908350D01*
X1191258Y908363D01*
X1191221Y908375D01*
X1191171Y908394D01*
X1191115Y908413D01*
X1191052Y908438D01*
X1190990Y908463D01*
X1190840Y908525D01*
X1190684Y908600D01*
X1190527Y908688D01*
X1190384Y908782D01*
X1190377D01*
X1190365Y908794D01*
X1190346Y908807D01*
X1190321Y908825D01*
X1190259Y908882D01*
X1190171Y908950D01*
X1190077Y909038D01*
X1189984Y909138D01*
X1189890Y909244D01*
X1189802Y909363D01*
Y909369D01*
X1189796Y909375D01*
X1189784Y909394D01*
X1189765Y909419D01*
X1189753Y909450D01*
X1189727Y909488D01*
X1189684Y909575D01*
X1189634Y909688D01*
X1189577Y909819D01*
X1189528Y909969D01*
X1189484Y910131D01*
Y910137D01*
X1189477Y910150D01*
X1189471Y910175D01*
X1189465Y910212D01*
X1189459Y910250D01*
X1189453Y910300D01*
X1189440Y910362D01*
X1189434Y910425D01*
X1189421Y910500D01*
X1189409Y910575D01*
X1189396Y910750D01*
X1189384Y910944D01*
X1189378Y911156D01*
Y913468D01*
X1195782D01*
Y911075D01*
D02*
G37*
G36*
X1189553Y907419D02*
X1189634Y907407D01*
X1189727Y907394D01*
X1189821Y907369D01*
X1189921Y907338D01*
X1189927D01*
X1189940Y907332D01*
X1189965Y907319D01*
X1189996Y907307D01*
X1190034Y907288D01*
X1190077Y907269D01*
X1190190Y907213D01*
X1190321Y907138D01*
X1190465Y907051D01*
X1190615Y906945D01*
X1190771Y906820D01*
X1190777Y906813D01*
X1190790Y906801D01*
X1190815Y906782D01*
X1190846Y906751D01*
X1190883Y906713D01*
X1190933Y906670D01*
X1190990Y906620D01*
X1191052Y906557D01*
X1191115Y906488D01*
X1191190Y906413D01*
X1191271Y906326D01*
X1191358Y906238D01*
X1191446Y906138D01*
X1191540Y906032D01*
X1191639Y905913D01*
X1191740Y905795D01*
X1191752Y905782D01*
X1191777Y905751D01*
X1191821Y905695D01*
X1191883Y905626D01*
X1191952Y905539D01*
X1192039Y905445D01*
X1192133Y905339D01*
X1192233Y905226D01*
X1192452Y904989D01*
X1192677Y904758D01*
X1192789Y904651D01*
X1192902Y904551D01*
X1193002Y904458D01*
X1193102Y904383D01*
X1193108Y904376D01*
X1193127Y904364D01*
X1193152Y904345D01*
X1193189Y904326D01*
X1193233Y904295D01*
X1193283Y904264D01*
X1193345Y904233D01*
X1193408Y904195D01*
X1193551Y904127D01*
X1193708Y904064D01*
X1193795Y904045D01*
X1193876Y904026D01*
X1193964Y904014D01*
X1194045Y904008D01*
X1194051D01*
X1194064D01*
X1194089D01*
X1194126Y904014D01*
X1194164Y904020D01*
X1194208Y904026D01*
X1194320Y904052D01*
X1194445Y904089D01*
X1194576Y904152D01*
X1194639Y904189D01*
X1194707Y904233D01*
X1194770Y904283D01*
X1194832Y904345D01*
X1194839Y904351D01*
X1194845Y904358D01*
X1194864Y904383D01*
X1194882Y904408D01*
X1194907Y904439D01*
X1194932Y904483D01*
X1194964Y904526D01*
X1194995Y904583D01*
X1195026Y904639D01*
X1195057Y904708D01*
X1195107Y904857D01*
X1195145Y905026D01*
X1195151Y905120D01*
X1195157Y905220D01*
Y905276D01*
X1195151Y905314D01*
X1195145Y905364D01*
X1195139Y905420D01*
X1195126Y905482D01*
X1195114Y905545D01*
X1195076Y905695D01*
X1195014Y905845D01*
X1194976Y905920D01*
X1194926Y905995D01*
X1194876Y906064D01*
X1194814Y906132D01*
X1194807Y906138D01*
X1194801Y906145D01*
X1194776Y906163D01*
X1194751Y906182D01*
X1194720Y906207D01*
X1194676Y906238D01*
X1194626Y906270D01*
X1194570Y906301D01*
X1194508Y906332D01*
X1194439Y906363D01*
X1194358Y906388D01*
X1194276Y906420D01*
X1194189Y906438D01*
X1194089Y906457D01*
X1193989Y906463D01*
X1193876Y906470D01*
X1193958Y907276D01*
X1193970D01*
X1193995Y907269D01*
X1194045Y907263D01*
X1194108Y907257D01*
X1194183Y907238D01*
X1194270Y907219D01*
X1194364Y907194D01*
X1194470Y907169D01*
X1194576Y907132D01*
X1194689Y907088D01*
X1194801Y907038D01*
X1194920Y906982D01*
X1195032Y906913D01*
X1195139Y906838D01*
X1195239Y906751D01*
X1195332Y906657D01*
X1195339Y906651D01*
X1195351Y906632D01*
X1195376Y906601D01*
X1195407Y906557D01*
X1195445Y906501D01*
X1195482Y906438D01*
X1195526Y906357D01*
X1195570Y906270D01*
X1195613Y906170D01*
X1195657Y906064D01*
X1195695Y905945D01*
X1195732Y905814D01*
X1195763Y905676D01*
X1195788Y905526D01*
X1195801Y905370D01*
X1195807Y905201D01*
Y905157D01*
X1195801Y905114D01*
Y905045D01*
X1195795Y904970D01*
X1195782Y904883D01*
X1195763Y904782D01*
X1195745Y904670D01*
X1195713Y904558D01*
X1195682Y904439D01*
X1195639Y904314D01*
X1195589Y904195D01*
X1195532Y904070D01*
X1195463Y903958D01*
X1195382Y903845D01*
X1195295Y903739D01*
X1195288Y903733D01*
X1195270Y903714D01*
X1195245Y903689D01*
X1195201Y903658D01*
X1195151Y903614D01*
X1195095Y903570D01*
X1195026Y903520D01*
X1194945Y903470D01*
X1194857Y903420D01*
X1194757Y903370D01*
X1194658Y903327D01*
X1194545Y903283D01*
X1194426Y903252D01*
X1194295Y903227D01*
X1194164Y903208D01*
X1194026Y903202D01*
X1194020D01*
X1194008D01*
X1193989D01*
X1193964D01*
X1193926Y903208D01*
X1193889D01*
X1193789Y903220D01*
X1193677Y903239D01*
X1193545Y903270D01*
X1193408Y903308D01*
X1193270Y903364D01*
X1193264D01*
X1193252Y903370D01*
X1193233Y903383D01*
X1193208Y903395D01*
X1193170Y903414D01*
X1193133Y903433D01*
X1193033Y903489D01*
X1192920Y903558D01*
X1192783Y903652D01*
X1192639Y903758D01*
X1192489Y903889D01*
X1192483Y903895D01*
X1192470Y903908D01*
X1192446Y903926D01*
X1192414Y903958D01*
X1192371Y904001D01*
X1192321Y904045D01*
X1192264Y904108D01*
X1192196Y904176D01*
X1192121Y904251D01*
X1192033Y904345D01*
X1191939Y904439D01*
X1191839Y904551D01*
X1191733Y904670D01*
X1191615Y904801D01*
X1191496Y904945D01*
X1191365Y905095D01*
X1191358Y905101D01*
X1191340Y905126D01*
X1191308Y905164D01*
X1191271Y905207D01*
X1191221Y905264D01*
X1191165Y905326D01*
X1191040Y905476D01*
X1190908Y905626D01*
X1190777Y905776D01*
X1190715Y905845D01*
X1190652Y905907D01*
X1190602Y905964D01*
X1190558Y906007D01*
X1190552Y906013D01*
X1190521Y906039D01*
X1190477Y906076D01*
X1190427Y906126D01*
X1190359Y906176D01*
X1190290Y906232D01*
X1190215Y906288D01*
X1190134Y906338D01*
Y903195D01*
X1189378D01*
Y907426D01*
X1189384D01*
X1189390D01*
X1189427D01*
X1189477D01*
X1189553Y907419D01*
D02*
G37*
G36*
X1182230Y1010256D02*
X1182286D01*
X1182361Y1010250D01*
X1182442Y1010238D01*
X1182536Y1010219D01*
X1182642Y1010200D01*
X1182748Y1010175D01*
X1182861Y1010137D01*
X1182980Y1010100D01*
X1183092Y1010050D01*
X1183211Y1009994D01*
X1183330Y1009925D01*
X1183442Y1009850D01*
X1183548Y1009763D01*
X1183555Y1009756D01*
X1183573Y1009738D01*
X1183598Y1009713D01*
X1183636Y1009669D01*
X1183680Y1009619D01*
X1183729Y1009563D01*
X1183780Y1009494D01*
X1183836Y1009413D01*
X1183892Y1009325D01*
X1183948Y1009225D01*
X1183998Y1009119D01*
X1184048Y1009000D01*
X1184092Y1008875D01*
X1184129Y1008744D01*
X1184161Y1008607D01*
X1184179Y1008457D01*
X1183392Y1008350D01*
Y1008357D01*
X1183386Y1008382D01*
X1183380Y1008413D01*
X1183367Y1008463D01*
X1183355Y1008513D01*
X1183336Y1008582D01*
X1183311Y1008650D01*
X1183286Y1008725D01*
X1183223Y1008882D01*
X1183142Y1009044D01*
X1183048Y1009194D01*
X1182992Y1009257D01*
X1182936Y1009319D01*
X1182930D01*
X1182924Y1009331D01*
X1182905Y1009344D01*
X1182880Y1009363D01*
X1182849Y1009388D01*
X1182811Y1009413D01*
X1182717Y1009463D01*
X1182598Y1009519D01*
X1182461Y1009569D01*
X1182311Y1009600D01*
X1182230Y1009606D01*
X1182142Y1009613D01*
X1182086D01*
X1182049Y1009606D01*
X1181999Y1009600D01*
X1181949Y1009594D01*
X1181886Y1009581D01*
X1181817Y1009563D01*
X1181667Y1009519D01*
X1181593Y1009488D01*
X1181511Y1009450D01*
X1181430Y1009406D01*
X1181355Y1009356D01*
X1181280Y1009300D01*
X1181205Y1009231D01*
X1181199Y1009225D01*
X1181186Y1009213D01*
X1181168Y1009194D01*
X1181143Y1009163D01*
X1181118Y1009125D01*
X1181086Y1009081D01*
X1181049Y1009032D01*
X1181012Y1008969D01*
X1180980Y1008906D01*
X1180943Y1008832D01*
X1180880Y1008669D01*
X1180862Y1008582D01*
X1180843Y1008488D01*
X1180830Y1008388D01*
X1180824Y1008282D01*
Y1008276D01*
Y1008257D01*
Y1008232D01*
X1180830Y1008188D01*
X1180836Y1008144D01*
X1180843Y1008088D01*
X1180855Y1008032D01*
X1180868Y1007963D01*
X1180911Y1007826D01*
X1180937Y1007751D01*
X1180974Y1007676D01*
X1181018Y1007601D01*
X1181061Y1007526D01*
X1181118Y1007457D01*
X1181180Y1007388D01*
X1181186Y1007382D01*
X1181199Y1007376D01*
X1181218Y1007357D01*
X1181243Y1007332D01*
X1181280Y1007307D01*
X1181324Y1007276D01*
X1181368Y1007244D01*
X1181424Y1007213D01*
X1181486Y1007182D01*
X1181555Y1007151D01*
X1181711Y1007094D01*
X1181886Y1007051D01*
X1181980Y1007045D01*
X1182080Y1007038D01*
X1182117D01*
X1182167Y1007045D01*
X1182230Y1007051D01*
X1182311Y1007057D01*
X1182405Y1007069D01*
X1182511Y1007094D01*
X1182630Y1007120D01*
X1182542Y1006432D01*
X1182530D01*
X1182499Y1006438D01*
X1182455Y1006445D01*
X1182367D01*
X1182330Y1006438D01*
X1182286D01*
X1182236Y1006432D01*
X1182180Y1006420D01*
X1182117Y1006413D01*
X1181974Y1006382D01*
X1181824Y1006332D01*
X1181667Y1006270D01*
X1181511Y1006182D01*
X1181505Y1006176D01*
X1181493Y1006170D01*
X1181474Y1006157D01*
X1181449Y1006132D01*
X1181418Y1006107D01*
X1181380Y1006070D01*
X1181349Y1006032D01*
X1181305Y1005982D01*
X1181268Y1005932D01*
X1181236Y1005870D01*
X1181199Y1005801D01*
X1181168Y1005732D01*
X1181143Y1005651D01*
X1181124Y1005564D01*
X1181111Y1005476D01*
X1181105Y1005376D01*
Y1005370D01*
Y1005358D01*
Y1005332D01*
X1181111Y1005301D01*
Y1005264D01*
X1181118Y1005220D01*
X1181143Y1005120D01*
X1181174Y1005007D01*
X1181230Y1004889D01*
X1181299Y1004770D01*
X1181349Y1004714D01*
X1181399Y1004658D01*
X1181405Y1004651D01*
X1181411Y1004645D01*
X1181430Y1004633D01*
X1181449Y1004614D01*
X1181518Y1004564D01*
X1181605Y1004514D01*
X1181711Y1004464D01*
X1181842Y1004414D01*
X1181992Y1004383D01*
X1182067Y1004370D01*
X1182199D01*
X1182230Y1004377D01*
X1182274D01*
X1182317Y1004383D01*
X1182424Y1004408D01*
X1182549Y1004439D01*
X1182673Y1004495D01*
X1182805Y1004564D01*
X1182867Y1004614D01*
X1182924Y1004664D01*
X1182930Y1004670D01*
X1182936Y1004676D01*
X1182955Y1004695D01*
X1182973Y1004720D01*
X1182998Y1004745D01*
X1183023Y1004783D01*
X1183055Y1004826D01*
X1183086Y1004876D01*
X1183117Y1004939D01*
X1183155Y1005001D01*
X1183186Y1005070D01*
X1183217Y1005151D01*
X1183242Y1005232D01*
X1183273Y1005326D01*
X1183292Y1005420D01*
X1183311Y1005526D01*
X1184098Y1005389D01*
Y1005382D01*
X1184092Y1005351D01*
X1184079Y1005314D01*
X1184067Y1005257D01*
X1184048Y1005195D01*
X1184023Y1005114D01*
X1183998Y1005033D01*
X1183961Y1004939D01*
X1183923Y1004845D01*
X1183873Y1004745D01*
X1183823Y1004639D01*
X1183761Y1004539D01*
X1183698Y1004439D01*
X1183623Y1004339D01*
X1183536Y1004251D01*
X1183448Y1004164D01*
X1183442Y1004158D01*
X1183423Y1004145D01*
X1183398Y1004127D01*
X1183355Y1004095D01*
X1183305Y1004064D01*
X1183248Y1004026D01*
X1183173Y1003983D01*
X1183098Y1003945D01*
X1183011Y1003902D01*
X1182911Y1003864D01*
X1182805Y1003827D01*
X1182692Y1003795D01*
X1182574Y1003764D01*
X1182449Y1003745D01*
X1182311Y1003733D01*
X1182174Y1003727D01*
X1182124D01*
X1182086Y1003733D01*
X1182036D01*
X1181986Y1003739D01*
X1181924Y1003745D01*
X1181855Y1003752D01*
X1181705Y1003783D01*
X1181549Y1003820D01*
X1181380Y1003877D01*
X1181211Y1003952D01*
X1181205D01*
X1181193Y1003964D01*
X1181168Y1003977D01*
X1181136Y1003995D01*
X1181099Y1004014D01*
X1181061Y1004045D01*
X1180962Y1004114D01*
X1180849Y1004202D01*
X1180736Y1004308D01*
X1180630Y1004433D01*
X1180537Y1004570D01*
Y1004576D01*
X1180524Y1004589D01*
X1180512Y1004608D01*
X1180499Y1004639D01*
X1180480Y1004670D01*
X1180462Y1004714D01*
X1180418Y1004820D01*
X1180374Y1004939D01*
X1180337Y1005082D01*
X1180312Y1005232D01*
X1180299Y1005395D01*
Y1005401D01*
Y1005414D01*
Y1005432D01*
X1180305Y1005464D01*
Y1005501D01*
X1180312Y1005545D01*
X1180324Y1005645D01*
X1180355Y1005764D01*
X1180393Y1005889D01*
X1180449Y1006020D01*
X1180524Y1006151D01*
Y1006157D01*
X1180537Y1006163D01*
X1180549Y1006182D01*
X1180568Y1006207D01*
X1180618Y1006270D01*
X1180693Y1006345D01*
X1180787Y1006432D01*
X1180899Y1006520D01*
X1181030Y1006607D01*
X1181186Y1006688D01*
X1181180D01*
X1181161Y1006695D01*
X1181130Y1006701D01*
X1181093Y1006713D01*
X1181043Y1006732D01*
X1180993Y1006751D01*
X1180862Y1006807D01*
X1180724Y1006876D01*
X1180574Y1006976D01*
X1180430Y1007088D01*
X1180368Y1007157D01*
X1180305Y1007232D01*
X1180299Y1007238D01*
X1180293Y1007251D01*
X1180274Y1007276D01*
X1180255Y1007307D01*
X1180230Y1007344D01*
X1180205Y1007394D01*
X1180174Y1007451D01*
X1180143Y1007513D01*
X1180118Y1007588D01*
X1180087Y1007663D01*
X1180062Y1007751D01*
X1180037Y1007838D01*
X1179999Y1008038D01*
X1179993Y1008150D01*
X1179987Y1008263D01*
Y1008269D01*
Y1008300D01*
X1179993Y1008344D01*
Y1008400D01*
X1180005Y1008475D01*
X1180018Y1008557D01*
X1180037Y1008650D01*
X1180062Y1008757D01*
X1180093Y1008863D01*
X1180137Y1008975D01*
X1180187Y1009094D01*
X1180243Y1009213D01*
X1180318Y1009331D01*
X1180399Y1009456D01*
X1180493Y1009569D01*
X1180599Y1009681D01*
X1180605Y1009688D01*
X1180624Y1009706D01*
X1180661Y1009738D01*
X1180712Y1009769D01*
X1180768Y1009819D01*
X1180843Y1009863D01*
X1180924Y1009919D01*
X1181024Y1009969D01*
X1181130Y1010025D01*
X1181249Y1010081D01*
X1181374Y1010125D01*
X1181511Y1010169D01*
X1181655Y1010206D01*
X1181811Y1010238D01*
X1181974Y1010256D01*
X1182149Y1010262D01*
X1182186D01*
X1182230Y1010256D01*
D02*
G37*
G36*
X1201300Y1003752D02*
X1200450D01*
Y1009400D01*
X1197301D01*
Y1010156D01*
X1201300D01*
Y1003752D01*
D02*
G37*
G36*
X1196276D02*
X1191646D01*
Y1004508D01*
X1195426D01*
Y1006463D01*
X1191884D01*
Y1007219D01*
X1195426D01*
Y1009400D01*
X1191496D01*
Y1010156D01*
X1196276D01*
Y1003752D01*
D02*
G37*
G36*
X1190328D02*
X1187935D01*
X1187866Y1003758D01*
X1187785D01*
X1187703Y1003764D01*
X1187516Y1003777D01*
X1187329Y1003789D01*
X1187147Y1003814D01*
X1187060Y1003827D01*
X1186985Y1003845D01*
X1186979D01*
X1186960Y1003852D01*
X1186929Y1003858D01*
X1186891Y1003870D01*
X1186841Y1003883D01*
X1186791Y1003902D01*
X1186729Y1003927D01*
X1186660Y1003952D01*
X1186510Y1004014D01*
X1186354Y1004095D01*
X1186191Y1004189D01*
X1186041Y1004308D01*
X1186035Y1004314D01*
X1186016Y1004326D01*
X1185991Y1004352D01*
X1185960Y1004383D01*
X1185916Y1004426D01*
X1185866Y1004476D01*
X1185816Y1004539D01*
X1185754Y1004601D01*
X1185698Y1004676D01*
X1185635Y1004764D01*
X1185573Y1004851D01*
X1185510Y1004945D01*
X1185448Y1005051D01*
X1185392Y1005164D01*
X1185285Y1005401D01*
Y1005407D01*
X1185273Y1005432D01*
X1185260Y1005470D01*
X1185248Y1005520D01*
X1185223Y1005582D01*
X1185204Y1005657D01*
X1185179Y1005745D01*
X1185154Y1005839D01*
X1185135Y1005945D01*
X1185110Y1006064D01*
X1185085Y1006189D01*
X1185067Y1006320D01*
X1185054Y1006463D01*
X1185042Y1006607D01*
X1185029Y1006920D01*
Y1006926D01*
Y1006951D01*
Y1006988D01*
Y1007045D01*
X1185035Y1007107D01*
Y1007182D01*
X1185042Y1007263D01*
X1185048Y1007357D01*
X1185060Y1007457D01*
X1185073Y1007557D01*
X1185104Y1007776D01*
X1185148Y1008000D01*
X1185204Y1008219D01*
Y1008225D01*
X1185210Y1008244D01*
X1185223Y1008276D01*
X1185235Y1008313D01*
X1185254Y1008363D01*
X1185273Y1008419D01*
X1185298Y1008482D01*
X1185323Y1008544D01*
X1185385Y1008694D01*
X1185460Y1008850D01*
X1185548Y1009007D01*
X1185641Y1009150D01*
Y1009156D01*
X1185654Y1009169D01*
X1185667Y1009188D01*
X1185685Y1009213D01*
X1185742Y1009275D01*
X1185810Y1009363D01*
X1185898Y1009456D01*
X1185998Y1009550D01*
X1186104Y1009644D01*
X1186223Y1009731D01*
X1186229D01*
X1186235Y1009738D01*
X1186254Y1009750D01*
X1186279Y1009769D01*
X1186310Y1009781D01*
X1186348Y1009806D01*
X1186435Y1009850D01*
X1186547Y1009900D01*
X1186679Y1009956D01*
X1186829Y1010006D01*
X1186991Y1010050D01*
X1186997D01*
X1187010Y1010056D01*
X1187035Y1010062D01*
X1187072Y1010069D01*
X1187110Y1010075D01*
X1187160Y1010081D01*
X1187222Y1010094D01*
X1187285Y1010100D01*
X1187360Y1010113D01*
X1187435Y1010125D01*
X1187610Y1010137D01*
X1187803Y1010150D01*
X1188016Y1010156D01*
X1190328D01*
Y1003752D01*
D02*
G37*
G36*
X1119222Y1149456D02*
X1120752D01*
Y1148669D01*
X1119222D01*
Y1145888D01*
X1118503D01*
X1114348Y1148812D01*
Y1149456D01*
X1118503D01*
Y1150318D01*
X1119222D01*
Y1149456D01*
D02*
G37*
G36*
X1117703Y1145295D02*
X1117778D01*
X1117859Y1145288D01*
X1117953Y1145282D01*
X1118053Y1145270D01*
X1118153Y1145257D01*
X1118372Y1145226D01*
X1118597Y1145182D01*
X1118815Y1145126D01*
X1118822D01*
X1118840Y1145120D01*
X1118872Y1145107D01*
X1118909Y1145095D01*
X1118959Y1145076D01*
X1119015Y1145057D01*
X1119078Y1145032D01*
X1119140Y1145007D01*
X1119290Y1144945D01*
X1119446Y1144870D01*
X1119603Y1144782D01*
X1119746Y1144688D01*
X1119753D01*
X1119765Y1144676D01*
X1119784Y1144663D01*
X1119809Y1144645D01*
X1119871Y1144588D01*
X1119959Y1144520D01*
X1120053Y1144432D01*
X1120146Y1144332D01*
X1120240Y1144226D01*
X1120328Y1144107D01*
Y1144101D01*
X1120334Y1144095D01*
X1120346Y1144076D01*
X1120365Y1144051D01*
X1120378Y1144020D01*
X1120403Y1143982D01*
X1120446Y1143895D01*
X1120496Y1143783D01*
X1120553Y1143651D01*
X1120602Y1143501D01*
X1120646Y1143339D01*
Y1143333D01*
X1120652Y1143320D01*
X1120659Y1143295D01*
X1120665Y1143258D01*
X1120671Y1143220D01*
X1120677Y1143170D01*
X1120690Y1143108D01*
X1120696Y1143045D01*
X1120709Y1142970D01*
X1120721Y1142895D01*
X1120734Y1142720D01*
X1120746Y1142526D01*
X1120752Y1142314D01*
Y1140002D01*
X1114348D01*
Y1142395D01*
X1114354Y1142464D01*
Y1142545D01*
X1114360Y1142626D01*
X1114373Y1142814D01*
X1114385Y1143001D01*
X1114410Y1143183D01*
X1114423Y1143270D01*
X1114442Y1143345D01*
Y1143351D01*
X1114448Y1143370D01*
X1114454Y1143401D01*
X1114467Y1143439D01*
X1114479Y1143489D01*
X1114498Y1143539D01*
X1114523Y1143601D01*
X1114548Y1143670D01*
X1114610Y1143820D01*
X1114691Y1143976D01*
X1114785Y1144139D01*
X1114904Y1144289D01*
X1114910Y1144295D01*
X1114923Y1144314D01*
X1114948Y1144339D01*
X1114979Y1144370D01*
X1115023Y1144414D01*
X1115073Y1144464D01*
X1115135Y1144513D01*
X1115198Y1144576D01*
X1115273Y1144632D01*
X1115360Y1144695D01*
X1115448Y1144757D01*
X1115541Y1144820D01*
X1115648Y1144882D01*
X1115760Y1144938D01*
X1115997Y1145045D01*
X1116004D01*
X1116029Y1145057D01*
X1116066Y1145070D01*
X1116116Y1145082D01*
X1116179Y1145107D01*
X1116254Y1145126D01*
X1116341Y1145151D01*
X1116435Y1145176D01*
X1116541Y1145195D01*
X1116660Y1145220D01*
X1116785Y1145245D01*
X1116916Y1145263D01*
X1117060Y1145276D01*
X1117203Y1145288D01*
X1117516Y1145301D01*
X1117522D01*
X1117547D01*
X1117585D01*
X1117641D01*
X1117703Y1145295D01*
D02*
G37*
G36*
X1120752Y1134054D02*
X1114348D01*
Y1138684D01*
X1115104D01*
Y1134903D01*
X1117060D01*
Y1138446D01*
X1117816D01*
Y1134903D01*
X1119996D01*
Y1138834D01*
X1120752D01*
Y1134054D01*
D02*
G37*
G36*
Y1129030D02*
X1114348D01*
Y1129880D01*
X1119996D01*
Y1133029D01*
X1120752D01*
Y1129030D01*
D02*
G37*
G36*
X1004259Y1146577D02*
X1004322D01*
X1004397Y1146571D01*
X1004484Y1146558D01*
X1004584Y1146540D01*
X1004690Y1146521D01*
X1004803Y1146490D01*
X1004928Y1146458D01*
X1005053Y1146415D01*
X1005178Y1146365D01*
X1005303Y1146308D01*
X1005434Y1146240D01*
X1005559Y1146158D01*
X1005678Y1146071D01*
X1005684Y1146065D01*
X1005709Y1146040D01*
X1005746Y1146008D01*
X1005796Y1145958D01*
X1005859Y1145896D01*
X1005921Y1145821D01*
X1005990Y1145733D01*
X1006065Y1145633D01*
X1006140Y1145515D01*
X1006209Y1145390D01*
X1006271Y1145252D01*
X1006334Y1145102D01*
X1006384Y1144940D01*
X1006421Y1144771D01*
X1006446Y1144584D01*
X1006452Y1144390D01*
Y1144353D01*
X1006446Y1144309D01*
Y1144246D01*
X1006440Y1144171D01*
X1006428Y1144084D01*
X1006409Y1143990D01*
X1006390Y1143884D01*
X1006365Y1143772D01*
X1006334Y1143659D01*
X1006296Y1143540D01*
X1006246Y1143415D01*
X1006190Y1143297D01*
X1006127Y1143178D01*
X1006052Y1143065D01*
X1005965Y1142959D01*
X1005959Y1142953D01*
X1005940Y1142934D01*
X1005915Y1142909D01*
X1005878Y1142872D01*
X1005828Y1142828D01*
X1005765Y1142784D01*
X1005696Y1142728D01*
X1005621Y1142678D01*
X1005534Y1142622D01*
X1005434Y1142566D01*
X1005328Y1142516D01*
X1005209Y1142466D01*
X1005084Y1142422D01*
X1004953Y1142384D01*
X1004815Y1142353D01*
X1004665Y1142334D01*
X1004597Y1143159D01*
X1004603D01*
X1004622Y1143165D01*
X1004653Y1143172D01*
X1004697Y1143178D01*
X1004747Y1143190D01*
X1004803Y1143203D01*
X1004940Y1143247D01*
X1005084Y1143303D01*
X1005234Y1143372D01*
X1005384Y1143465D01*
X1005446Y1143522D01*
X1005509Y1143578D01*
X1005515Y1143584D01*
X1005521Y1143596D01*
X1005534Y1143615D01*
X1005553Y1143640D01*
X1005578Y1143671D01*
X1005603Y1143709D01*
X1005659Y1143809D01*
X1005715Y1143928D01*
X1005759Y1144065D01*
X1005796Y1144221D01*
X1005803Y1144303D01*
X1005809Y1144390D01*
Y1144446D01*
X1005803Y1144484D01*
X1005796Y1144534D01*
X1005784Y1144590D01*
X1005771Y1144652D01*
X1005753Y1144721D01*
X1005703Y1144877D01*
X1005671Y1144952D01*
X1005628Y1145034D01*
X1005578Y1145115D01*
X1005521Y1145196D01*
X1005459Y1145277D01*
X1005384Y1145352D01*
X1005378Y1145359D01*
X1005365Y1145371D01*
X1005340Y1145390D01*
X1005303Y1145415D01*
X1005265Y1145446D01*
X1005209Y1145477D01*
X1005146Y1145515D01*
X1005078Y1145552D01*
X1005003Y1145583D01*
X1004915Y1145621D01*
X1004822Y1145652D01*
X1004722Y1145684D01*
X1004615Y1145708D01*
X1004497Y1145727D01*
X1004378Y1145740D01*
X1004247Y1145746D01*
X1004240D01*
X1004215D01*
X1004184D01*
X1004134Y1145740D01*
X1004078Y1145733D01*
X1004016Y1145727D01*
X1003941Y1145715D01*
X1003859Y1145696D01*
X1003691Y1145652D01*
X1003603Y1145621D01*
X1003516Y1145583D01*
X1003428Y1145540D01*
X1003341Y1145490D01*
X1003260Y1145434D01*
X1003185Y1145365D01*
X1003178Y1145359D01*
X1003166Y1145346D01*
X1003147Y1145327D01*
X1003122Y1145296D01*
X1003091Y1145259D01*
X1003060Y1145215D01*
X1003022Y1145159D01*
X1002985Y1145102D01*
X1002953Y1145034D01*
X1002916Y1144959D01*
X1002885Y1144877D01*
X1002853Y1144790D01*
X1002828Y1144690D01*
X1002810Y1144590D01*
X1002797Y1144484D01*
X1002791Y1144371D01*
Y1144309D01*
X1002797Y1144271D01*
Y1144234D01*
X1002810Y1144140D01*
X1002835Y1144034D01*
X1002866Y1143922D01*
X1002910Y1143803D01*
X1002966Y1143684D01*
Y1143678D01*
X1002972Y1143671D01*
X1002997Y1143634D01*
X1003035Y1143578D01*
X1003085Y1143515D01*
X1003153Y1143434D01*
X1003228Y1143359D01*
X1003316Y1143278D01*
X1003410Y1143209D01*
X1003316Y1142472D01*
X1000023Y1143090D01*
Y1146283D01*
X1000773D01*
Y1143715D01*
X1002504Y1143372D01*
X1002497Y1143378D01*
X1002485Y1143397D01*
X1002466Y1143428D01*
X1002441Y1143472D01*
X1002410Y1143522D01*
X1002372Y1143590D01*
X1002341Y1143659D01*
X1002297Y1143740D01*
X1002260Y1143828D01*
X1002228Y1143922D01*
X1002160Y1144128D01*
X1002135Y1144234D01*
X1002116Y1144346D01*
X1002104Y1144465D01*
X1002097Y1144584D01*
Y1144621D01*
X1002104Y1144665D01*
Y1144727D01*
X1002116Y1144796D01*
X1002129Y1144884D01*
X1002147Y1144977D01*
X1002172Y1145077D01*
X1002204Y1145184D01*
X1002241Y1145302D01*
X1002285Y1145421D01*
X1002341Y1145540D01*
X1002410Y1145658D01*
X1002485Y1145777D01*
X1002578Y1145890D01*
X1002678Y1146002D01*
X1002685Y1146008D01*
X1002703Y1146027D01*
X1002741Y1146058D01*
X1002785Y1146096D01*
X1002841Y1146140D01*
X1002910Y1146183D01*
X1002991Y1146240D01*
X1003085Y1146296D01*
X1003185Y1146346D01*
X1003297Y1146402D01*
X1003422Y1146446D01*
X1003553Y1146496D01*
X1003697Y1146527D01*
X1003847Y1146558D01*
X1004009Y1146577D01*
X1004178Y1146583D01*
X1004191D01*
X1004215D01*
X1004259Y1146577D01*
D02*
G37*
G36*
X1003297Y1141485D02*
X1003372D01*
X1003453Y1141478D01*
X1003547Y1141472D01*
X1003647Y1141460D01*
X1003747Y1141447D01*
X1003966Y1141416D01*
X1004191Y1141372D01*
X1004409Y1141316D01*
X1004416D01*
X1004434Y1141310D01*
X1004465Y1141297D01*
X1004503Y1141285D01*
X1004553Y1141266D01*
X1004609Y1141247D01*
X1004672Y1141222D01*
X1004734Y1141197D01*
X1004884Y1141135D01*
X1005040Y1141060D01*
X1005197Y1140972D01*
X1005340Y1140879D01*
X1005347D01*
X1005359Y1140866D01*
X1005378Y1140854D01*
X1005403Y1140835D01*
X1005465Y1140779D01*
X1005553Y1140710D01*
X1005646Y1140622D01*
X1005740Y1140522D01*
X1005834Y1140416D01*
X1005921Y1140297D01*
Y1140291D01*
X1005928Y1140285D01*
X1005940Y1140266D01*
X1005959Y1140241D01*
X1005971Y1140210D01*
X1005996Y1140172D01*
X1006040Y1140085D01*
X1006090Y1139973D01*
X1006146Y1139841D01*
X1006196Y1139691D01*
X1006240Y1139529D01*
Y1139523D01*
X1006246Y1139510D01*
X1006253Y1139485D01*
X1006259Y1139448D01*
X1006265Y1139410D01*
X1006271Y1139360D01*
X1006284Y1139298D01*
X1006290Y1139235D01*
X1006302Y1139160D01*
X1006315Y1139085D01*
X1006328Y1138910D01*
X1006340Y1138717D01*
X1006346Y1138504D01*
Y1136192D01*
X999942D01*
Y1138585D01*
X999948Y1138654D01*
Y1138735D01*
X999954Y1138817D01*
X999967Y1139004D01*
X999979Y1139191D01*
X1000004Y1139373D01*
X1000017Y1139460D01*
X1000035Y1139535D01*
Y1139541D01*
X1000042Y1139560D01*
X1000048Y1139591D01*
X1000060Y1139629D01*
X1000073Y1139679D01*
X1000092Y1139729D01*
X1000117Y1139791D01*
X1000142Y1139860D01*
X1000204Y1140010D01*
X1000285Y1140166D01*
X1000379Y1140329D01*
X1000498Y1140479D01*
X1000504Y1140485D01*
X1000517Y1140504D01*
X1000542Y1140529D01*
X1000573Y1140560D01*
X1000616Y1140604D01*
X1000666Y1140654D01*
X1000729Y1140704D01*
X1000791Y1140766D01*
X1000866Y1140822D01*
X1000954Y1140885D01*
X1001041Y1140947D01*
X1001135Y1141010D01*
X1001241Y1141072D01*
X1001354Y1141128D01*
X1001591Y1141235D01*
X1001597D01*
X1001622Y1141247D01*
X1001660Y1141260D01*
X1001710Y1141272D01*
X1001772Y1141297D01*
X1001847Y1141316D01*
X1001935Y1141341D01*
X1002029Y1141366D01*
X1002135Y1141385D01*
X1002253Y1141410D01*
X1002378Y1141435D01*
X1002510Y1141453D01*
X1002653Y1141466D01*
X1002797Y1141478D01*
X1003110Y1141491D01*
X1003116D01*
X1003141D01*
X1003178D01*
X1003234D01*
X1003297Y1141485D01*
D02*
G37*
G36*
X1006346Y1130244D02*
X999942D01*
Y1134874D01*
X1000698D01*
Y1131094D01*
X1002653D01*
Y1134636D01*
X1003410D01*
Y1131094D01*
X1005590D01*
Y1135024D01*
X1006346D01*
Y1130244D01*
D02*
G37*
G36*
Y1125220D02*
X999942D01*
Y1126070D01*
X1005590D01*
Y1129219D01*
X1006346D01*
Y1125220D01*
D02*
G37*
G36*
X865982Y1110586D02*
X866051Y1110580D01*
X866132Y1110567D01*
X866232Y1110555D01*
X866339Y1110530D01*
X866457Y1110505D01*
X866582Y1110468D01*
X866707Y1110417D01*
X866845Y1110361D01*
X866976Y1110286D01*
X867113Y1110205D01*
X867245Y1110111D01*
X867370Y1109999D01*
X867488Y1109874D01*
X867495Y1109868D01*
X867513Y1109836D01*
X867544Y1109799D01*
X867582Y1109736D01*
X867632Y1109655D01*
X867682Y1109555D01*
X867738Y1109443D01*
X867794Y1109305D01*
X867857Y1109149D01*
X867913Y1108974D01*
X867963Y1108780D01*
X868007Y1108562D01*
X868051Y1108331D01*
X868082Y1108068D01*
X868101Y1107793D01*
X868107Y1107493D01*
Y1107487D01*
Y1107475D01*
Y1107449D01*
Y1107412D01*
Y1107368D01*
X868101Y1107318D01*
Y1107256D01*
X868094Y1107187D01*
Y1107118D01*
X868088Y1107037D01*
X868069Y1106862D01*
X868051Y1106668D01*
X868019Y1106462D01*
X867988Y1106244D01*
X867938Y1106019D01*
X867888Y1105794D01*
X867819Y1105569D01*
X867745Y1105356D01*
X867651Y1105150D01*
X867544Y1104963D01*
X867426Y1104794D01*
X867420Y1104788D01*
X867401Y1104763D01*
X867363Y1104725D01*
X867313Y1104681D01*
X867257Y1104625D01*
X867182Y1104563D01*
X867095Y1104494D01*
X867001Y1104425D01*
X866888Y1104357D01*
X866770Y1104288D01*
X866638Y1104225D01*
X866495Y1104169D01*
X866339Y1104125D01*
X866176Y1104088D01*
X866001Y1104063D01*
X865814Y1104057D01*
X865739D01*
X865689Y1104063D01*
X865620Y1104069D01*
X865545Y1104082D01*
X865464Y1104094D01*
X865370Y1104107D01*
X865176Y1104163D01*
X865070Y1104194D01*
X864970Y1104238D01*
X864864Y1104282D01*
X864764Y1104344D01*
X864664Y1104407D01*
X864570Y1104482D01*
X864564Y1104488D01*
X864551Y1104500D01*
X864527Y1104525D01*
X864495Y1104557D01*
X864458Y1104600D01*
X864414Y1104657D01*
X864364Y1104719D01*
X864314Y1104788D01*
X864264Y1104863D01*
X864214Y1104956D01*
X864170Y1105050D01*
X864120Y1105156D01*
X864077Y1105269D01*
X864045Y1105387D01*
X864014Y1105512D01*
X863989Y1105650D01*
X864770Y1105712D01*
Y1105706D01*
X864777Y1105694D01*
X864783Y1105669D01*
X864789Y1105638D01*
X864801Y1105600D01*
X864814Y1105556D01*
X864845Y1105456D01*
X864889Y1105344D01*
X864939Y1105231D01*
X865001Y1105125D01*
X865070Y1105038D01*
X865076Y1105031D01*
X865083Y1105025D01*
X865101Y1105006D01*
X865126Y1104988D01*
X865158Y1104956D01*
X865195Y1104931D01*
X865289Y1104869D01*
X865401Y1104806D01*
X865539Y1104750D01*
X865689Y1104713D01*
X865770Y1104706D01*
X865857Y1104700D01*
X865920D01*
X865989Y1104713D01*
X866082Y1104725D01*
X866182Y1104750D01*
X866295Y1104788D01*
X866407Y1104844D01*
X866520Y1104913D01*
X866526D01*
X866538Y1104925D01*
X866557Y1104938D01*
X866582Y1104963D01*
X866645Y1105025D01*
X866732Y1105113D01*
X866826Y1105225D01*
X866926Y1105362D01*
X867020Y1105519D01*
X867107Y1105706D01*
Y1105712D01*
X867113Y1105731D01*
X867126Y1105762D01*
X867138Y1105800D01*
X867157Y1105856D01*
X867176Y1105919D01*
X867195Y1106000D01*
X867213Y1106087D01*
X867232Y1106187D01*
X867251Y1106293D01*
X867270Y1106419D01*
X867288Y1106550D01*
X867301Y1106693D01*
X867313Y1106850D01*
X867320Y1107012D01*
X867326Y1107187D01*
X867320Y1107181D01*
X867313Y1107168D01*
X867295Y1107143D01*
X867276Y1107118D01*
X867251Y1107081D01*
X867213Y1107037D01*
X867132Y1106943D01*
X867032Y1106837D01*
X866913Y1106731D01*
X866782Y1106631D01*
X866632Y1106544D01*
X866626D01*
X866613Y1106537D01*
X866589Y1106525D01*
X866563Y1106512D01*
X866520Y1106494D01*
X866476Y1106475D01*
X866426Y1106456D01*
X866370Y1106437D01*
X866239Y1106400D01*
X866095Y1106362D01*
X865939Y1106337D01*
X865770Y1106331D01*
X865732D01*
X865695Y1106337D01*
X865639D01*
X865570Y1106350D01*
X865489Y1106362D01*
X865401Y1106381D01*
X865308Y1106406D01*
X865208Y1106437D01*
X865095Y1106475D01*
X864989Y1106518D01*
X864876Y1106575D01*
X864758Y1106644D01*
X864645Y1106718D01*
X864539Y1106812D01*
X864433Y1106912D01*
X864427Y1106918D01*
X864408Y1106937D01*
X864383Y1106975D01*
X864345Y1107018D01*
X864302Y1107075D01*
X864258Y1107143D01*
X864208Y1107225D01*
X864152Y1107318D01*
X864102Y1107418D01*
X864052Y1107531D01*
X864008Y1107656D01*
X863964Y1107787D01*
X863927Y1107931D01*
X863902Y1108081D01*
X863883Y1108237D01*
X863877Y1108406D01*
Y1108412D01*
Y1108430D01*
Y1108462D01*
X863883Y1108505D01*
Y1108562D01*
X863889Y1108624D01*
X863895Y1108693D01*
X863908Y1108774D01*
X863939Y1108949D01*
X863989Y1109137D01*
X864052Y1109330D01*
X864139Y1109530D01*
Y1109537D01*
X864152Y1109555D01*
X864164Y1109580D01*
X864189Y1109611D01*
X864214Y1109655D01*
X864245Y1109705D01*
X864327Y1109818D01*
X864433Y1109949D01*
X864551Y1110080D01*
X864695Y1110205D01*
X864858Y1110318D01*
X864864D01*
X864876Y1110330D01*
X864901Y1110342D01*
X864939Y1110361D01*
X864983Y1110380D01*
X865033Y1110405D01*
X865089Y1110430D01*
X865158Y1110455D01*
X865226Y1110480D01*
X865308Y1110505D01*
X865482Y1110549D01*
X865676Y1110580D01*
X865782Y1110586D01*
X865889Y1110592D01*
X865932D01*
X865982Y1110586D01*
D02*
G37*
G36*
X885190Y1104082D02*
X884340D01*
Y1109730D01*
X881191D01*
Y1110486D01*
X885190D01*
Y1104082D01*
D02*
G37*
G36*
X880166D02*
X875536D01*
Y1104838D01*
X879316D01*
Y1106793D01*
X875774D01*
Y1107550D01*
X879316D01*
Y1109730D01*
X875386D01*
Y1110486D01*
X880166D01*
Y1104082D01*
D02*
G37*
G36*
X874218D02*
X871825D01*
X871756Y1104088D01*
X871675D01*
X871593Y1104094D01*
X871406Y1104107D01*
X871219Y1104119D01*
X871037Y1104144D01*
X870950Y1104157D01*
X870875Y1104175D01*
X870869D01*
X870850Y1104182D01*
X870819Y1104188D01*
X870781Y1104200D01*
X870731Y1104213D01*
X870681Y1104232D01*
X870619Y1104257D01*
X870550Y1104282D01*
X870400Y1104344D01*
X870244Y1104425D01*
X870081Y1104519D01*
X869931Y1104638D01*
X869925Y1104644D01*
X869906Y1104657D01*
X869881Y1104681D01*
X869850Y1104713D01*
X869806Y1104756D01*
X869756Y1104806D01*
X869706Y1104869D01*
X869644Y1104931D01*
X869588Y1105006D01*
X869525Y1105094D01*
X869463Y1105181D01*
X869400Y1105275D01*
X869338Y1105381D01*
X869282Y1105494D01*
X869175Y1105731D01*
Y1105737D01*
X869163Y1105762D01*
X869150Y1105800D01*
X869138Y1105850D01*
X869113Y1105912D01*
X869094Y1105987D01*
X869069Y1106075D01*
X869044Y1106169D01*
X869025Y1106275D01*
X869000Y1106394D01*
X868975Y1106518D01*
X868957Y1106650D01*
X868944Y1106793D01*
X868932Y1106937D01*
X868919Y1107250D01*
Y1107256D01*
Y1107281D01*
Y1107318D01*
Y1107374D01*
X868925Y1107437D01*
Y1107512D01*
X868932Y1107593D01*
X868938Y1107687D01*
X868950Y1107787D01*
X868963Y1107887D01*
X868994Y1108106D01*
X869038Y1108331D01*
X869094Y1108549D01*
Y1108556D01*
X869100Y1108574D01*
X869113Y1108605D01*
X869125Y1108643D01*
X869144Y1108693D01*
X869163Y1108749D01*
X869188Y1108812D01*
X869213Y1108874D01*
X869275Y1109024D01*
X869350Y1109180D01*
X869438Y1109336D01*
X869531Y1109480D01*
Y1109486D01*
X869544Y1109499D01*
X869557Y1109518D01*
X869575Y1109543D01*
X869632Y1109605D01*
X869700Y1109693D01*
X869788Y1109786D01*
X869888Y1109880D01*
X869994Y1109974D01*
X870113Y1110061D01*
X870119D01*
X870125Y1110068D01*
X870144Y1110080D01*
X870169Y1110099D01*
X870200Y1110111D01*
X870238Y1110136D01*
X870325Y1110180D01*
X870437Y1110230D01*
X870569Y1110286D01*
X870719Y1110336D01*
X870881Y1110380D01*
X870887D01*
X870900Y1110386D01*
X870925Y1110393D01*
X870962Y1110399D01*
X871000Y1110405D01*
X871050Y1110411D01*
X871112Y1110424D01*
X871175Y1110430D01*
X871250Y1110443D01*
X871325Y1110455D01*
X871500Y1110468D01*
X871693Y1110480D01*
X871906Y1110486D01*
X874218D01*
Y1104082D01*
D02*
G37*
G36*
X793738Y1025877D02*
X793763Y1025858D01*
X793800Y1025821D01*
X793850Y1025777D01*
X793919Y1025721D01*
X793994Y1025658D01*
X794088Y1025583D01*
X794194Y1025502D01*
X794313Y1025415D01*
X794444Y1025315D01*
X794587Y1025215D01*
X794744Y1025108D01*
X794906Y1025002D01*
X795081Y1024890D01*
X795268Y1024777D01*
X795469Y1024665D01*
X795481Y1024659D01*
X795518Y1024640D01*
X795575Y1024609D01*
X795656Y1024565D01*
X795750Y1024515D01*
X795868Y1024459D01*
X796000Y1024396D01*
X796150Y1024327D01*
X796312Y1024252D01*
X796481Y1024177D01*
X796668Y1024096D01*
X796856Y1024021D01*
X797056Y1023946D01*
X797262Y1023871D01*
X797474Y1023803D01*
X797687Y1023740D01*
X797693D01*
X797724Y1023728D01*
X797768Y1023715D01*
X797824Y1023703D01*
X797899Y1023684D01*
X797993Y1023659D01*
X798093Y1023640D01*
X798205Y1023615D01*
X798330Y1023590D01*
X798468Y1023565D01*
X798611Y1023540D01*
X798768Y1023515D01*
X798924Y1023490D01*
X799092Y1023471D01*
X799442Y1023440D01*
Y1022634D01*
X799436D01*
X799405D01*
X799368Y1022640D01*
X799311D01*
X799236Y1022647D01*
X799149Y1022653D01*
X799049Y1022665D01*
X798936Y1022678D01*
X798805Y1022690D01*
X798668Y1022709D01*
X798518Y1022734D01*
X798362Y1022765D01*
X798186Y1022797D01*
X798012Y1022834D01*
X797818Y1022878D01*
X797624Y1022928D01*
X797618D01*
X797612Y1022934D01*
X797574Y1022940D01*
X797518Y1022959D01*
X797443Y1022978D01*
X797343Y1023009D01*
X797231Y1023046D01*
X797105Y1023084D01*
X796962Y1023134D01*
X796812Y1023190D01*
X796649Y1023253D01*
X796475Y1023315D01*
X796300Y1023390D01*
X795931Y1023553D01*
X795556Y1023740D01*
X795543Y1023746D01*
X795512Y1023765D01*
X795462Y1023796D01*
X795387Y1023834D01*
X795306Y1023884D01*
X795206Y1023940D01*
X795094Y1024009D01*
X794975Y1024084D01*
X794844Y1024165D01*
X794706Y1024252D01*
X794425Y1024440D01*
X794144Y1024652D01*
X794006Y1024759D01*
X793875Y1024871D01*
Y1021741D01*
X793119D01*
Y1025883D01*
X793731D01*
X793738Y1025877D01*
D02*
G37*
G36*
X796393Y1020835D02*
X796468D01*
X796549Y1020828D01*
X796643Y1020822D01*
X796743Y1020810D01*
X796843Y1020797D01*
X797062Y1020766D01*
X797287Y1020722D01*
X797505Y1020666D01*
X797512D01*
X797530Y1020660D01*
X797562Y1020647D01*
X797599Y1020635D01*
X797649Y1020616D01*
X797705Y1020597D01*
X797768Y1020572D01*
X797830Y1020547D01*
X797980Y1020485D01*
X798137Y1020410D01*
X798293Y1020322D01*
X798437Y1020229D01*
X798443D01*
X798455Y1020216D01*
X798474Y1020203D01*
X798499Y1020185D01*
X798561Y1020128D01*
X798649Y1020060D01*
X798743Y1019972D01*
X798836Y1019872D01*
X798930Y1019766D01*
X799018Y1019647D01*
Y1019641D01*
X799024Y1019635D01*
X799036Y1019616D01*
X799055Y1019591D01*
X799068Y1019560D01*
X799092Y1019522D01*
X799136Y1019435D01*
X799186Y1019323D01*
X799242Y1019191D01*
X799293Y1019041D01*
X799336Y1018879D01*
Y1018873D01*
X799342Y1018860D01*
X799349Y1018835D01*
X799355Y1018798D01*
X799361Y1018760D01*
X799368Y1018710D01*
X799380Y1018648D01*
X799386Y1018585D01*
X799399Y1018510D01*
X799411Y1018435D01*
X799424Y1018260D01*
X799436Y1018066D01*
X799442Y1017854D01*
Y1015542D01*
X793038D01*
Y1017935D01*
X793044Y1018004D01*
Y1018085D01*
X793050Y1018167D01*
X793063Y1018354D01*
X793075Y1018541D01*
X793100Y1018723D01*
X793113Y1018810D01*
X793132Y1018885D01*
Y1018891D01*
X793138Y1018910D01*
X793144Y1018941D01*
X793157Y1018979D01*
X793169Y1019029D01*
X793188Y1019079D01*
X793213Y1019141D01*
X793238Y1019210D01*
X793300Y1019360D01*
X793382Y1019516D01*
X793475Y1019679D01*
X793594Y1019829D01*
X793600Y1019835D01*
X793613Y1019854D01*
X793638Y1019879D01*
X793669Y1019910D01*
X793713Y1019954D01*
X793763Y1020004D01*
X793825Y1020053D01*
X793888Y1020116D01*
X793963Y1020172D01*
X794050Y1020235D01*
X794138Y1020297D01*
X794231Y1020360D01*
X794337Y1020422D01*
X794450Y1020478D01*
X794687Y1020585D01*
X794694D01*
X794719Y1020597D01*
X794756Y1020610D01*
X794806Y1020622D01*
X794869Y1020647D01*
X794944Y1020666D01*
X795031Y1020691D01*
X795125Y1020716D01*
X795231Y1020735D01*
X795350Y1020760D01*
X795475Y1020785D01*
X795606Y1020803D01*
X795750Y1020816D01*
X795893Y1020828D01*
X796206Y1020841D01*
X796212D01*
X796237D01*
X796274D01*
X796331D01*
X796393Y1020835D01*
D02*
G37*
G36*
X799442Y1009594D02*
X793038D01*
Y1014224D01*
X793794D01*
Y1010443D01*
X795750D01*
Y1013986D01*
X796506D01*
Y1010443D01*
X798686D01*
Y1014374D01*
X799442D01*
Y1009594D01*
D02*
G37*
G36*
Y1004570D02*
X793038D01*
Y1005420D01*
X798686D01*
Y1008569D01*
X799442D01*
Y1004570D01*
D02*
G37*
G36*
X803937Y898889D02*
X803993D01*
X804062Y898877D01*
X804143Y898865D01*
X804237Y898846D01*
X804337Y898821D01*
X804443Y898790D01*
X804555Y898752D01*
X804668Y898708D01*
X804787Y898652D01*
X804905Y898583D01*
X805018Y898508D01*
X805130Y898415D01*
X805236Y898315D01*
X805243Y898308D01*
X805261Y898290D01*
X805286Y898252D01*
X805324Y898208D01*
X805368Y898152D01*
X805411Y898083D01*
X805461Y897996D01*
X805511Y897908D01*
X805567Y897802D01*
X805618Y897684D01*
X805661Y897559D01*
X805705Y897421D01*
X805742Y897278D01*
X805768Y897121D01*
X805786Y896959D01*
X805792Y896784D01*
Y896740D01*
X805786Y896690D01*
Y896628D01*
X805774Y896546D01*
X805761Y896453D01*
X805749Y896346D01*
X805724Y896234D01*
X805693Y896115D01*
X805655Y895990D01*
X805611Y895865D01*
X805555Y895740D01*
X805492Y895609D01*
X805417Y895484D01*
X805336Y895365D01*
X805236Y895253D01*
X805230Y895247D01*
X805211Y895228D01*
X805180Y895203D01*
X805136Y895165D01*
X805080Y895122D01*
X805011Y895072D01*
X804936Y895022D01*
X804849Y894966D01*
X804755Y894909D01*
X804649Y894859D01*
X804530Y894809D01*
X804405Y894766D01*
X804274Y894734D01*
X804137Y894703D01*
X803993Y894684D01*
X803837Y894678D01*
X803830D01*
X803812D01*
X803774D01*
X803730Y894684D01*
X803680Y894691D01*
X803618Y894697D01*
X803549Y894703D01*
X803474Y894716D01*
X803306Y894753D01*
X803131Y894809D01*
X803043Y894847D01*
X802956Y894891D01*
X802874Y894934D01*
X802793Y894990D01*
X802787Y894997D01*
X802775Y895003D01*
X802756Y895022D01*
X802725Y895047D01*
X802687Y895084D01*
X802650Y895122D01*
X802606Y895172D01*
X802562Y895222D01*
X802512Y895284D01*
X802468Y895353D01*
X802418Y895428D01*
X802368Y895509D01*
X802325Y895597D01*
X802287Y895690D01*
X802250Y895790D01*
X802218Y895897D01*
Y895890D01*
X802212Y895878D01*
X802200Y895847D01*
X802187Y895815D01*
X802168Y895778D01*
X802143Y895728D01*
X802087Y895622D01*
X802012Y895503D01*
X801925Y895378D01*
X801825Y895266D01*
X801706Y895165D01*
X801700D01*
X801693Y895153D01*
X801675Y895147D01*
X801650Y895128D01*
X801612Y895109D01*
X801575Y895090D01*
X801481Y895053D01*
X801369Y895009D01*
X801231Y894972D01*
X801081Y894947D01*
X800912Y894934D01*
X800906D01*
X800881D01*
X800844Y894941D01*
X800794D01*
X800738Y894947D01*
X800669Y894959D01*
X800587Y894978D01*
X800500Y894997D01*
X800413Y895022D01*
X800319Y895059D01*
X800219Y895097D01*
X800119Y895147D01*
X800025Y895203D01*
X799925Y895272D01*
X799831Y895347D01*
X799738Y895434D01*
X799732Y895440D01*
X799719Y895459D01*
X799694Y895484D01*
X799663Y895528D01*
X799625Y895578D01*
X799588Y895634D01*
X799544Y895709D01*
X799494Y895790D01*
X799450Y895878D01*
X799407Y895978D01*
X799369Y896090D01*
X799332Y896209D01*
X799300Y896340D01*
X799275Y896471D01*
X799263Y896621D01*
X799257Y896771D01*
Y896853D01*
X799263Y896909D01*
X799269Y896984D01*
X799282Y897065D01*
X799300Y897152D01*
X799319Y897253D01*
X799344Y897359D01*
X799375Y897471D01*
X799413Y897584D01*
X799463Y897696D01*
X799519Y897809D01*
X799582Y897915D01*
X799657Y898021D01*
X799744Y898121D01*
X799750Y898127D01*
X799769Y898146D01*
X799794Y898171D01*
X799831Y898202D01*
X799875Y898240D01*
X799938Y898283D01*
X800000Y898327D01*
X800075Y898377D01*
X800156Y898427D01*
X800250Y898471D01*
X800344Y898515D01*
X800450Y898552D01*
X800563Y898583D01*
X800681Y898615D01*
X800800Y898627D01*
X800931Y898633D01*
X800937D01*
X800950D01*
X800975D01*
X801006Y898627D01*
X801044D01*
X801094Y898621D01*
X801200Y898602D01*
X801319Y898577D01*
X801450Y898533D01*
X801581Y898477D01*
X801712Y898396D01*
X801719D01*
X801725Y898383D01*
X801768Y898352D01*
X801825Y898296D01*
X801900Y898221D01*
X801981Y898121D01*
X802062Y898002D01*
X802143Y897859D01*
X802218Y897690D01*
Y897696D01*
X802225Y897715D01*
X802237Y897746D01*
X802256Y897784D01*
X802275Y897834D01*
X802300Y897890D01*
X802368Y898021D01*
X802456Y898165D01*
X802562Y898315D01*
X802687Y898458D01*
X802762Y898521D01*
X802837Y898583D01*
X802843Y898590D01*
X802856Y898596D01*
X802881Y898615D01*
X802912Y898633D01*
X802956Y898658D01*
X802999Y898683D01*
X803062Y898708D01*
X803124Y898740D01*
X803193Y898771D01*
X803274Y898796D01*
X803443Y898846D01*
X803643Y898883D01*
X803743Y898889D01*
X803855Y898896D01*
X803862D01*
X803893D01*
X803937Y898889D01*
D02*
G37*
G36*
X802637Y893835D02*
X802712D01*
X802793Y893828D01*
X802887Y893822D01*
X802987Y893810D01*
X803087Y893797D01*
X803306Y893766D01*
X803531Y893722D01*
X803749Y893666D01*
X803755D01*
X803774Y893660D01*
X803805Y893647D01*
X803843Y893635D01*
X803893Y893616D01*
X803949Y893597D01*
X804012Y893572D01*
X804074Y893547D01*
X804224Y893485D01*
X804380Y893410D01*
X804537Y893322D01*
X804680Y893229D01*
X804687D01*
X804699Y893216D01*
X804718Y893204D01*
X804743Y893185D01*
X804805Y893129D01*
X804893Y893060D01*
X804986Y892972D01*
X805080Y892872D01*
X805174Y892766D01*
X805261Y892647D01*
Y892641D01*
X805268Y892635D01*
X805280Y892616D01*
X805299Y892591D01*
X805311Y892560D01*
X805336Y892522D01*
X805380Y892435D01*
X805430Y892322D01*
X805486Y892191D01*
X805536Y892041D01*
X805580Y891879D01*
Y891873D01*
X805586Y891860D01*
X805592Y891835D01*
X805599Y891798D01*
X805605Y891760D01*
X805611Y891710D01*
X805624Y891648D01*
X805630Y891585D01*
X805642Y891510D01*
X805655Y891435D01*
X805667Y891260D01*
X805680Y891067D01*
X805686Y890854D01*
Y888542D01*
X799282D01*
Y890935D01*
X799288Y891004D01*
Y891085D01*
X799294Y891167D01*
X799307Y891354D01*
X799319Y891541D01*
X799344Y891723D01*
X799357Y891810D01*
X799375Y891885D01*
Y891891D01*
X799382Y891910D01*
X799388Y891941D01*
X799400Y891979D01*
X799413Y892029D01*
X799432Y892079D01*
X799457Y892141D01*
X799482Y892210D01*
X799544Y892360D01*
X799625Y892516D01*
X799719Y892679D01*
X799838Y892829D01*
X799844Y892835D01*
X799856Y892854D01*
X799882Y892879D01*
X799913Y892910D01*
X799956Y892954D01*
X800006Y893003D01*
X800069Y893054D01*
X800131Y893116D01*
X800206Y893172D01*
X800294Y893235D01*
X800381Y893297D01*
X800475Y893360D01*
X800581Y893422D01*
X800694Y893478D01*
X800931Y893585D01*
X800937D01*
X800962Y893597D01*
X801000Y893610D01*
X801050Y893622D01*
X801112Y893647D01*
X801187Y893666D01*
X801275Y893691D01*
X801369Y893716D01*
X801475Y893735D01*
X801593Y893760D01*
X801719Y893785D01*
X801850Y893803D01*
X801993Y893816D01*
X802137Y893828D01*
X802450Y893841D01*
X802456D01*
X802481D01*
X802518D01*
X802574D01*
X802637Y893835D01*
D02*
G37*
G36*
X805686Y882594D02*
X799282D01*
Y887224D01*
X800038D01*
Y883444D01*
X801993D01*
Y886986D01*
X802749D01*
Y883444D01*
X804930D01*
Y887374D01*
X805686D01*
Y882594D01*
D02*
G37*
G36*
Y877570D02*
X799282D01*
Y878420D01*
X804930D01*
Y881569D01*
X805686D01*
Y877570D01*
D02*
G37*
G36*
X885106Y776970D02*
X885212D01*
X885331Y776963D01*
X885462Y776951D01*
X885612Y776945D01*
X885762Y776926D01*
X885924Y776913D01*
X886249Y776863D01*
X886412Y776832D01*
X886568Y776795D01*
X886718Y776757D01*
X886862Y776707D01*
X886868D01*
X886893Y776695D01*
X886930Y776682D01*
X886980Y776657D01*
X887043Y776626D01*
X887112Y776595D01*
X887187Y776557D01*
X887274Y776507D01*
X887449Y776395D01*
X887636Y776257D01*
X887811Y776101D01*
X887893Y776007D01*
X887968Y775914D01*
X887974Y775907D01*
X887986Y775889D01*
X888005Y775864D01*
X888024Y775820D01*
X888055Y775770D01*
X888086Y775707D01*
X888118Y775639D01*
X888155Y775564D01*
X888193Y775476D01*
X888224Y775382D01*
X888255Y775283D01*
X888286Y775170D01*
X888305Y775058D01*
X888324Y774939D01*
X888336Y774814D01*
X888342Y774683D01*
Y774608D01*
X888336Y774558D01*
X888330Y774495D01*
X888317Y774420D01*
X888305Y774333D01*
X888292Y774245D01*
X888242Y774052D01*
X888211Y773945D01*
X888167Y773845D01*
X888124Y773739D01*
X888067Y773639D01*
X888005Y773545D01*
X887930Y773452D01*
X887924Y773445D01*
X887911Y773433D01*
X887886Y773408D01*
X887855Y773377D01*
X887811Y773339D01*
X887755Y773296D01*
X887699Y773252D01*
X887624Y773202D01*
X887549Y773152D01*
X887455Y773102D01*
X887361Y773058D01*
X887255Y773014D01*
X887143Y772971D01*
X887018Y772933D01*
X886887Y772908D01*
X886749Y772883D01*
X886680Y773639D01*
X886687D01*
X886705Y773645D01*
X886730Y773652D01*
X886768Y773658D01*
X886812Y773670D01*
X886862Y773683D01*
X886980Y773720D01*
X887105Y773770D01*
X887236Y773833D01*
X887355Y773908D01*
X887411Y773952D01*
X887461Y774002D01*
Y774008D01*
X887474Y774014D01*
X887499Y774052D01*
X887536Y774108D01*
X887580Y774189D01*
X887624Y774289D01*
X887661Y774408D01*
X887686Y774545D01*
X887699Y774695D01*
Y774758D01*
X887693Y774826D01*
X887680Y774914D01*
X887661Y775007D01*
X887630Y775120D01*
X887593Y775226D01*
X887536Y775332D01*
Y775339D01*
X887530Y775345D01*
X887505Y775376D01*
X887468Y775426D01*
X887418Y775489D01*
X887355Y775564D01*
X887280Y775639D01*
X887193Y775707D01*
X887093Y775776D01*
X887086D01*
X887080Y775782D01*
X887061Y775795D01*
X887043Y775807D01*
X886980Y775839D01*
X886893Y775876D01*
X886787Y775926D01*
X886655Y775976D01*
X886512Y776026D01*
X886343Y776070D01*
X886337D01*
X886324Y776076D01*
X886293Y776082D01*
X886262Y776088D01*
X886218Y776095D01*
X886168Y776107D01*
X886112Y776120D01*
X886043Y776132D01*
X885899Y776151D01*
X885737Y776170D01*
X885562Y776182D01*
X885381Y776189D01*
X885368D01*
X885337D01*
X885293D01*
X885231D01*
X885243Y776176D01*
X885262Y776163D01*
X885287Y776145D01*
X885356Y776095D01*
X885443Y776020D01*
X885537Y775926D01*
X885637Y775814D01*
X885737Y775682D01*
X885831Y775539D01*
Y775532D01*
X885843Y775520D01*
X885849Y775501D01*
X885868Y775470D01*
X885887Y775432D01*
X885906Y775382D01*
X885924Y775332D01*
X885943Y775276D01*
X885987Y775145D01*
X886024Y774995D01*
X886049Y774833D01*
X886062Y774658D01*
Y774620D01*
X886056Y774583D01*
Y774526D01*
X886043Y774458D01*
X886031Y774377D01*
X886012Y774289D01*
X885987Y774195D01*
X885962Y774089D01*
X885924Y773983D01*
X885874Y773870D01*
X885818Y773758D01*
X885756Y773645D01*
X885674Y773533D01*
X885587Y773420D01*
X885487Y773314D01*
X885481Y773308D01*
X885462Y773289D01*
X885424Y773264D01*
X885381Y773227D01*
X885324Y773189D01*
X885256Y773139D01*
X885174Y773089D01*
X885081Y773039D01*
X884981Y772989D01*
X884862Y772939D01*
X884737Y772889D01*
X884606Y772852D01*
X884456Y772814D01*
X884306Y772789D01*
X884144Y772771D01*
X883969Y772764D01*
X883956D01*
X883925D01*
X883875Y772771D01*
X883806D01*
X883725Y772783D01*
X883631Y772796D01*
X883525Y772814D01*
X883406Y772833D01*
X883288Y772864D01*
X883156Y772902D01*
X883025Y772952D01*
X882894Y773002D01*
X882763Y773071D01*
X882638Y773146D01*
X882513Y773233D01*
X882400Y773333D01*
X882394Y773339D01*
X882375Y773358D01*
X882344Y773389D01*
X882307Y773439D01*
X882263Y773495D01*
X882213Y773558D01*
X882157Y773639D01*
X882100Y773727D01*
X882050Y773827D01*
X881994Y773939D01*
X881944Y774058D01*
X881900Y774183D01*
X881863Y774320D01*
X881832Y774464D01*
X881813Y774620D01*
X881807Y774776D01*
Y774839D01*
X881813Y774883D01*
X881819Y774939D01*
X881825Y775001D01*
X881832Y775076D01*
X881850Y775151D01*
X881888Y775332D01*
X881950Y775520D01*
X881988Y775620D01*
X882032Y775720D01*
X882082Y775820D01*
X882144Y775920D01*
X882150Y775926D01*
X882157Y775945D01*
X882181Y775970D01*
X882206Y776007D01*
X882244Y776051D01*
X882281Y776101D01*
X882331Y776151D01*
X882388Y776214D01*
X882457Y776276D01*
X882525Y776339D01*
X882606Y776407D01*
X882694Y776470D01*
X882788Y776532D01*
X882888Y776595D01*
X882994Y776657D01*
X883106Y776707D01*
X883112Y776713D01*
X883138Y776720D01*
X883169Y776732D01*
X883219Y776751D01*
X883288Y776770D01*
X883363Y776795D01*
X883456Y776820D01*
X883562Y776845D01*
X883681Y776870D01*
X883819Y776888D01*
X883962Y776913D01*
X884125Y776932D01*
X884300Y776951D01*
X884487Y776963D01*
X884693Y776976D01*
X884906D01*
X884912D01*
X884918D01*
X884937D01*
X884962D01*
X885024D01*
X885106Y776970D01*
D02*
G37*
G36*
X885187Y771915D02*
X885262D01*
X885343Y771908D01*
X885437Y771902D01*
X885537Y771890D01*
X885637Y771877D01*
X885856Y771846D01*
X886080Y771802D01*
X886299Y771746D01*
X886305D01*
X886324Y771740D01*
X886356Y771727D01*
X886393Y771715D01*
X886443Y771696D01*
X886499Y771677D01*
X886562Y771652D01*
X886624Y771627D01*
X886774Y771565D01*
X886930Y771490D01*
X887086Y771402D01*
X887230Y771309D01*
X887236D01*
X887249Y771296D01*
X887268Y771283D01*
X887293Y771265D01*
X887355Y771208D01*
X887443Y771140D01*
X887536Y771052D01*
X887630Y770952D01*
X887724Y770846D01*
X887811Y770727D01*
Y770721D01*
X887818Y770715D01*
X887830Y770696D01*
X887849Y770671D01*
X887861Y770640D01*
X887886Y770602D01*
X887930Y770515D01*
X887980Y770403D01*
X888036Y770271D01*
X888086Y770121D01*
X888130Y769959D01*
Y769953D01*
X888136Y769940D01*
X888142Y769915D01*
X888149Y769878D01*
X888155Y769840D01*
X888161Y769790D01*
X888174Y769728D01*
X888180Y769665D01*
X888193Y769590D01*
X888205Y769515D01*
X888217Y769340D01*
X888230Y769146D01*
X888236Y768934D01*
Y766622D01*
X881832D01*
Y769015D01*
X881838Y769084D01*
Y769165D01*
X881844Y769247D01*
X881857Y769434D01*
X881869Y769621D01*
X881894Y769803D01*
X881907Y769890D01*
X881925Y769965D01*
Y769971D01*
X881932Y769990D01*
X881938Y770021D01*
X881950Y770059D01*
X881963Y770109D01*
X881982Y770159D01*
X882007Y770221D01*
X882032Y770290D01*
X882094Y770440D01*
X882175Y770596D01*
X882269Y770759D01*
X882388Y770909D01*
X882394Y770915D01*
X882406Y770934D01*
X882431Y770959D01*
X882463Y770990D01*
X882506Y771034D01*
X882556Y771084D01*
X882619Y771133D01*
X882681Y771196D01*
X882756Y771252D01*
X882844Y771315D01*
X882931Y771377D01*
X883025Y771440D01*
X883131Y771502D01*
X883244Y771558D01*
X883481Y771665D01*
X883487D01*
X883512Y771677D01*
X883550Y771690D01*
X883600Y771702D01*
X883662Y771727D01*
X883737Y771746D01*
X883825Y771771D01*
X883919Y771796D01*
X884025Y771815D01*
X884144Y771840D01*
X884268Y771865D01*
X884400Y771883D01*
X884543Y771896D01*
X884687Y771908D01*
X885000Y771921D01*
X885006D01*
X885031D01*
X885068D01*
X885125D01*
X885187Y771915D01*
D02*
G37*
G36*
X888236Y760674D02*
X881832D01*
Y765304D01*
X882588D01*
Y761524D01*
X884543D01*
Y765066D01*
X885300D01*
Y761524D01*
X887480D01*
Y765454D01*
X888236D01*
Y760674D01*
D02*
G37*
G36*
Y755650D02*
X881832D01*
Y756500D01*
X887480D01*
Y759649D01*
X888236D01*
Y755650D01*
D02*
G37*
%LPC*%
G36*
X1000822Y681598D02*
X995930D01*
Y680130D01*
X995936Y680080D01*
Y680017D01*
X995942Y679948D01*
Y679874D01*
X995955Y679711D01*
X995980Y679549D01*
X996005Y679386D01*
X996024Y679311D01*
X996042Y679242D01*
Y679236D01*
X996049Y679224D01*
X996055Y679205D01*
X996067Y679180D01*
X996092Y679117D01*
X996130Y679036D01*
X996180Y678942D01*
X996236Y678849D01*
X996305Y678755D01*
X996380Y678668D01*
X996386Y678661D01*
X996392Y678655D01*
X996411Y678636D01*
X996436Y678617D01*
X996467Y678593D01*
X996498Y678561D01*
X996592Y678493D01*
X996711Y678418D01*
X996848Y678336D01*
X997005Y678261D01*
X997186Y678193D01*
X997192D01*
X997211Y678186D01*
X997236Y678174D01*
X997280Y678168D01*
X997329Y678155D01*
X997386Y678136D01*
X997454Y678124D01*
X997536Y678105D01*
X997617Y678093D01*
X997711Y678080D01*
X997817Y678061D01*
X997923Y678049D01*
X998042Y678036D01*
X998160Y678030D01*
X998423Y678024D01*
X998435D01*
X998467D01*
X998517D01*
X998585Y678030D01*
X998673Y678036D01*
X998767Y678043D01*
X998873Y678049D01*
X998992Y678068D01*
X999110Y678080D01*
X999235Y678105D01*
X999491Y678161D01*
X999616Y678199D01*
X999741Y678243D01*
X999854Y678299D01*
X999960Y678355D01*
X999966Y678361D01*
X999985Y678368D01*
X1000010Y678386D01*
X1000048Y678411D01*
X1000091Y678449D01*
X1000141Y678486D01*
X1000254Y678580D01*
X1000379Y678699D01*
X1000497Y678836D01*
X1000604Y678992D01*
X1000654Y679074D01*
X1000691Y679161D01*
Y679167D01*
X1000697Y679180D01*
X1000704Y679199D01*
X1000710Y679224D01*
X1000722Y679261D01*
X1000735Y679305D01*
X1000747Y679361D01*
X1000760Y679424D01*
X1000766Y679499D01*
X1000779Y679574D01*
X1000791Y679667D01*
X1000804Y679767D01*
X1000810Y679874D01*
X1000816Y679992D01*
X1000822Y680117D01*
Y681598D01*
D02*
G37*
G36*
X998329Y670526D02*
X998323D01*
X998310D01*
X998292D01*
X998260D01*
X998223D01*
X998179D01*
X998129Y670520D01*
X998073D01*
X997948Y670513D01*
X997804Y670507D01*
X997642Y670495D01*
X997473Y670482D01*
X997123Y670438D01*
X996948Y670407D01*
X996780Y670370D01*
X996617Y670326D01*
X996467Y670276D01*
X996336Y670220D01*
X996230Y670157D01*
X996224Y670151D01*
X996205Y670138D01*
X996180Y670120D01*
X996149Y670089D01*
X996111Y670057D01*
X996067Y670014D01*
X996017Y669964D01*
X995974Y669907D01*
X995924Y669838D01*
X995874Y669770D01*
X995792Y669614D01*
X995761Y669532D01*
X995736Y669439D01*
X995717Y669345D01*
X995711Y669245D01*
Y669220D01*
X995717Y669195D01*
Y669157D01*
X995730Y669108D01*
X995736Y669057D01*
X995755Y668995D01*
X995774Y668932D01*
X995805Y668857D01*
X995836Y668789D01*
X995880Y668714D01*
X995930Y668639D01*
X995992Y668558D01*
X996061Y668483D01*
X996136Y668408D01*
X996230Y668339D01*
X996236Y668333D01*
X996255Y668320D01*
X996286Y668301D01*
X996336Y668283D01*
X996398Y668251D01*
X996480Y668220D01*
X996573Y668189D01*
X996692Y668151D01*
X996823Y668114D01*
X996973Y668083D01*
X997142Y668052D01*
X997336Y668020D01*
X997548Y668001D01*
X997786Y667983D01*
X998048Y667970D01*
X998329Y667964D01*
X998335D01*
X998348D01*
X998367D01*
X998398D01*
X998435D01*
X998479D01*
X998529Y667970D01*
X998585D01*
X998710Y667977D01*
X998854Y667983D01*
X999016Y667995D01*
X999185Y668008D01*
X999535Y668052D01*
X999710Y668083D01*
X999885Y668120D01*
X1000041Y668164D01*
X1000191Y668208D01*
X1000322Y668270D01*
X1000429Y668333D01*
X1000435Y668339D01*
X1000454Y668351D01*
X1000479Y668370D01*
X1000510Y668401D01*
X1000554Y668433D01*
X1000597Y668476D01*
X1000641Y668526D01*
X1000691Y668589D01*
X1000741Y668651D01*
X1000785Y668720D01*
X1000872Y668876D01*
X1000904Y668964D01*
X1000929Y669057D01*
X1000947Y669157D01*
X1000954Y669257D01*
Y669307D01*
X1000947Y669345D01*
X1000941Y669395D01*
X1000929Y669445D01*
X1000897Y669570D01*
X1000872Y669639D01*
X1000841Y669707D01*
X1000804Y669782D01*
X1000760Y669851D01*
X1000704Y669926D01*
X1000641Y669995D01*
X1000572Y670063D01*
X1000491Y670126D01*
X1000485Y670132D01*
X1000466Y670145D01*
X1000429Y670163D01*
X1000372Y670188D01*
X1000310Y670220D01*
X1000222Y670251D01*
X1000123Y670288D01*
X1000004Y670326D01*
X999860Y670363D01*
X999704Y670401D01*
X999529Y670432D01*
X999329Y670463D01*
X999117Y670488D01*
X998873Y670507D01*
X998610Y670520D01*
X998329Y670526D01*
D02*
G37*
G36*
X1180708Y826626D02*
X1179240D01*
X1179190Y826620D01*
X1179127D01*
X1179058Y826614D01*
X1178984D01*
X1178821Y826601D01*
X1178659Y826576D01*
X1178496Y826551D01*
X1178421Y826533D01*
X1178352Y826514D01*
X1178346D01*
X1178334Y826508D01*
X1178315Y826501D01*
X1178290Y826489D01*
X1178227Y826464D01*
X1178146Y826426D01*
X1178053Y826376D01*
X1177959Y826320D01*
X1177865Y826252D01*
X1177777Y826177D01*
X1177771Y826170D01*
X1177765Y826164D01*
X1177746Y826145D01*
X1177728Y826120D01*
X1177702Y826089D01*
X1177671Y826058D01*
X1177603Y825964D01*
X1177528Y825845D01*
X1177446Y825708D01*
X1177371Y825552D01*
X1177303Y825370D01*
Y825364D01*
X1177296Y825346D01*
X1177284Y825321D01*
X1177278Y825277D01*
X1177265Y825227D01*
X1177246Y825171D01*
X1177234Y825102D01*
X1177215Y825021D01*
X1177203Y824939D01*
X1177190Y824846D01*
X1177171Y824739D01*
X1177159Y824633D01*
X1177146Y824514D01*
X1177140Y824396D01*
X1177134Y824133D01*
Y824121D01*
Y824090D01*
Y824040D01*
X1177140Y823971D01*
X1177146Y823883D01*
X1177153Y823790D01*
X1177159Y823683D01*
X1177178Y823565D01*
X1177190Y823446D01*
X1177215Y823321D01*
X1177271Y823065D01*
X1177309Y822940D01*
X1177353Y822815D01*
X1177409Y822702D01*
X1177465Y822596D01*
X1177471Y822590D01*
X1177478Y822571D01*
X1177496Y822546D01*
X1177521Y822509D01*
X1177559Y822465D01*
X1177596Y822415D01*
X1177690Y822302D01*
X1177809Y822178D01*
X1177946Y822059D01*
X1178102Y821953D01*
X1178184Y821903D01*
X1178271Y821865D01*
X1178277D01*
X1178290Y821859D01*
X1178309Y821853D01*
X1178334Y821846D01*
X1178371Y821834D01*
X1178415Y821821D01*
X1178471Y821809D01*
X1178534Y821796D01*
X1178609Y821790D01*
X1178683Y821778D01*
X1178777Y821765D01*
X1178877Y821753D01*
X1178984Y821746D01*
X1179102Y821740D01*
X1179227Y821734D01*
X1180708D01*
Y826626D01*
D02*
G37*
G36*
X1195026Y912618D02*
X1190134D01*
Y911150D01*
X1190140Y911100D01*
Y911037D01*
X1190146Y910968D01*
Y910893D01*
X1190159Y910731D01*
X1190184Y910569D01*
X1190209Y910406D01*
X1190227Y910331D01*
X1190246Y910262D01*
Y910256D01*
X1190252Y910244D01*
X1190259Y910225D01*
X1190271Y910200D01*
X1190296Y910137D01*
X1190334Y910056D01*
X1190384Y909962D01*
X1190440Y909869D01*
X1190508Y909775D01*
X1190583Y909688D01*
X1190590Y909681D01*
X1190596Y909675D01*
X1190615Y909656D01*
X1190640Y909638D01*
X1190671Y909613D01*
X1190702Y909581D01*
X1190796Y909513D01*
X1190915Y909438D01*
X1191052Y909356D01*
X1191208Y909281D01*
X1191389Y909213D01*
X1191396D01*
X1191414Y909206D01*
X1191440Y909194D01*
X1191483Y909188D01*
X1191533Y909175D01*
X1191590Y909156D01*
X1191658Y909144D01*
X1191740Y909125D01*
X1191821Y909113D01*
X1191914Y909100D01*
X1192021Y909081D01*
X1192127Y909069D01*
X1192246Y909056D01*
X1192364Y909050D01*
X1192627Y909044D01*
X1192639D01*
X1192671D01*
X1192720D01*
X1192789Y909050D01*
X1192877Y909056D01*
X1192970Y909063D01*
X1193077Y909069D01*
X1193195Y909088D01*
X1193314Y909100D01*
X1193439Y909125D01*
X1193695Y909181D01*
X1193820Y909219D01*
X1193945Y909263D01*
X1194058Y909319D01*
X1194164Y909375D01*
X1194170Y909381D01*
X1194189Y909388D01*
X1194214Y909406D01*
X1194251Y909431D01*
X1194295Y909469D01*
X1194345Y909506D01*
X1194457Y909600D01*
X1194583Y909719D01*
X1194701Y909856D01*
X1194807Y910013D01*
X1194857Y910094D01*
X1194895Y910181D01*
Y910187D01*
X1194901Y910200D01*
X1194907Y910219D01*
X1194914Y910244D01*
X1194926Y910281D01*
X1194939Y910325D01*
X1194951Y910381D01*
X1194964Y910444D01*
X1194970Y910519D01*
X1194982Y910594D01*
X1194995Y910687D01*
X1195007Y910787D01*
X1195014Y910893D01*
X1195020Y911012D01*
X1195026Y911137D01*
Y912618D01*
D02*
G37*
G36*
X1189478Y1009400D02*
X1188010D01*
X1187960Y1009394D01*
X1187897D01*
X1187829Y1009388D01*
X1187754D01*
X1187591Y1009375D01*
X1187429Y1009350D01*
X1187266Y1009325D01*
X1187191Y1009306D01*
X1187122Y1009288D01*
X1187116D01*
X1187104Y1009281D01*
X1187085Y1009275D01*
X1187060Y1009263D01*
X1186997Y1009238D01*
X1186916Y1009200D01*
X1186823Y1009150D01*
X1186729Y1009094D01*
X1186635Y1009025D01*
X1186547Y1008950D01*
X1186541Y1008944D01*
X1186535Y1008938D01*
X1186516Y1008919D01*
X1186498Y1008894D01*
X1186473Y1008863D01*
X1186441Y1008832D01*
X1186373Y1008738D01*
X1186298Y1008619D01*
X1186216Y1008482D01*
X1186141Y1008325D01*
X1186073Y1008144D01*
Y1008138D01*
X1186066Y1008119D01*
X1186054Y1008094D01*
X1186048Y1008051D01*
X1186035Y1008000D01*
X1186016Y1007944D01*
X1186004Y1007876D01*
X1185985Y1007794D01*
X1185973Y1007713D01*
X1185960Y1007619D01*
X1185941Y1007513D01*
X1185929Y1007407D01*
X1185916Y1007288D01*
X1185910Y1007169D01*
X1185904Y1006907D01*
Y1006895D01*
Y1006863D01*
Y1006813D01*
X1185910Y1006745D01*
X1185916Y1006657D01*
X1185923Y1006563D01*
X1185929Y1006457D01*
X1185948Y1006338D01*
X1185960Y1006220D01*
X1185985Y1006095D01*
X1186041Y1005839D01*
X1186079Y1005714D01*
X1186123Y1005589D01*
X1186179Y1005476D01*
X1186235Y1005370D01*
X1186241Y1005364D01*
X1186248Y1005345D01*
X1186266Y1005320D01*
X1186291Y1005283D01*
X1186329Y1005239D01*
X1186366Y1005189D01*
X1186460Y1005076D01*
X1186579Y1004951D01*
X1186716Y1004833D01*
X1186872Y1004726D01*
X1186954Y1004676D01*
X1187041Y1004639D01*
X1187047D01*
X1187060Y1004633D01*
X1187079Y1004626D01*
X1187104Y1004620D01*
X1187141Y1004608D01*
X1187185Y1004595D01*
X1187241Y1004583D01*
X1187304Y1004570D01*
X1187379Y1004564D01*
X1187454Y1004551D01*
X1187547Y1004539D01*
X1187647Y1004526D01*
X1187754Y1004520D01*
X1187872Y1004514D01*
X1187997Y1004508D01*
X1189478D01*
Y1009400D01*
D02*
G37*
G36*
X1118503Y1148669D02*
X1115610D01*
X1118503Y1146657D01*
Y1148669D01*
D02*
G37*
G36*
X1117503Y1144426D02*
X1117491D01*
X1117459D01*
X1117410D01*
X1117341Y1144420D01*
X1117253Y1144414D01*
X1117160Y1144407D01*
X1117053Y1144401D01*
X1116935Y1144382D01*
X1116816Y1144370D01*
X1116691Y1144345D01*
X1116435Y1144289D01*
X1116310Y1144251D01*
X1116185Y1144207D01*
X1116072Y1144151D01*
X1115966Y1144095D01*
X1115960Y1144089D01*
X1115941Y1144082D01*
X1115916Y1144064D01*
X1115879Y1144039D01*
X1115835Y1144001D01*
X1115785Y1143964D01*
X1115673Y1143870D01*
X1115547Y1143751D01*
X1115429Y1143614D01*
X1115323Y1143458D01*
X1115273Y1143376D01*
X1115235Y1143289D01*
Y1143283D01*
X1115229Y1143270D01*
X1115223Y1143251D01*
X1115216Y1143226D01*
X1115204Y1143189D01*
X1115191Y1143145D01*
X1115179Y1143089D01*
X1115166Y1143026D01*
X1115160Y1142951D01*
X1115148Y1142877D01*
X1115135Y1142783D01*
X1115123Y1142683D01*
X1115116Y1142577D01*
X1115110Y1142458D01*
X1115104Y1142333D01*
Y1140852D01*
X1119996D01*
Y1142320D01*
X1119990Y1142370D01*
Y1142433D01*
X1119984Y1142502D01*
Y1142577D01*
X1119971Y1142739D01*
X1119946Y1142901D01*
X1119921Y1143064D01*
X1119903Y1143139D01*
X1119884Y1143208D01*
Y1143214D01*
X1119878Y1143226D01*
X1119871Y1143245D01*
X1119859Y1143270D01*
X1119834Y1143333D01*
X1119796Y1143414D01*
X1119746Y1143508D01*
X1119690Y1143601D01*
X1119622Y1143695D01*
X1119547Y1143783D01*
X1119540Y1143789D01*
X1119534Y1143795D01*
X1119515Y1143814D01*
X1119490Y1143832D01*
X1119459Y1143857D01*
X1119428Y1143889D01*
X1119334Y1143957D01*
X1119215Y1144032D01*
X1119078Y1144114D01*
X1118922Y1144189D01*
X1118740Y1144257D01*
X1118734D01*
X1118716Y1144264D01*
X1118690Y1144276D01*
X1118647Y1144282D01*
X1118597Y1144295D01*
X1118540Y1144314D01*
X1118472Y1144326D01*
X1118391Y1144345D01*
X1118309Y1144357D01*
X1118216Y1144370D01*
X1118109Y1144389D01*
X1118003Y1144401D01*
X1117884Y1144414D01*
X1117766Y1144420D01*
X1117503Y1144426D01*
D02*
G37*
G36*
X1003097Y1140616D02*
X1003085D01*
X1003053D01*
X1003003D01*
X1002935Y1140610D01*
X1002847Y1140604D01*
X1002753Y1140597D01*
X1002647Y1140591D01*
X1002528Y1140572D01*
X1002410Y1140560D01*
X1002285Y1140535D01*
X1002029Y1140479D01*
X1001904Y1140441D01*
X1001779Y1140397D01*
X1001666Y1140341D01*
X1001560Y1140285D01*
X1001554Y1140279D01*
X1001535Y1140272D01*
X1001510Y1140254D01*
X1001472Y1140229D01*
X1001429Y1140191D01*
X1001379Y1140154D01*
X1001266Y1140060D01*
X1001141Y1139941D01*
X1001023Y1139804D01*
X1000916Y1139648D01*
X1000866Y1139566D01*
X1000829Y1139479D01*
Y1139473D01*
X1000823Y1139460D01*
X1000816Y1139441D01*
X1000810Y1139416D01*
X1000798Y1139379D01*
X1000785Y1139335D01*
X1000773Y1139279D01*
X1000760Y1139216D01*
X1000754Y1139141D01*
X1000741Y1139066D01*
X1000729Y1138973D01*
X1000716Y1138873D01*
X1000710Y1138766D01*
X1000704Y1138648D01*
X1000698Y1138523D01*
Y1137042D01*
X1005590D01*
Y1138510D01*
X1005584Y1138560D01*
Y1138623D01*
X1005578Y1138692D01*
Y1138766D01*
X1005565Y1138929D01*
X1005540Y1139091D01*
X1005515Y1139254D01*
X1005496Y1139329D01*
X1005478Y1139398D01*
Y1139404D01*
X1005471Y1139416D01*
X1005465Y1139435D01*
X1005453Y1139460D01*
X1005428Y1139523D01*
X1005390Y1139604D01*
X1005340Y1139697D01*
X1005284Y1139791D01*
X1005215Y1139885D01*
X1005140Y1139973D01*
X1005134Y1139979D01*
X1005128Y1139985D01*
X1005109Y1140004D01*
X1005084Y1140023D01*
X1005053Y1140048D01*
X1005022Y1140079D01*
X1004928Y1140147D01*
X1004809Y1140222D01*
X1004672Y1140304D01*
X1004515Y1140379D01*
X1004334Y1140447D01*
X1004328D01*
X1004309Y1140454D01*
X1004284Y1140466D01*
X1004240Y1140472D01*
X1004191Y1140485D01*
X1004134Y1140504D01*
X1004066Y1140516D01*
X1003984Y1140535D01*
X1003903Y1140547D01*
X1003809Y1140560D01*
X1003703Y1140579D01*
X1003597Y1140591D01*
X1003478Y1140604D01*
X1003360Y1140610D01*
X1003097Y1140616D01*
D02*
G37*
G36*
X865901Y1109949D02*
X865851D01*
X865820Y1109943D01*
X865776Y1109936D01*
X865726Y1109930D01*
X865608Y1109899D01*
X865470Y1109849D01*
X865401Y1109818D01*
X865326Y1109780D01*
X865258Y1109736D01*
X865183Y1109680D01*
X865114Y1109618D01*
X865045Y1109549D01*
X865039Y1109543D01*
X865026Y1109530D01*
X865014Y1109505D01*
X864989Y1109474D01*
X864964Y1109436D01*
X864933Y1109387D01*
X864895Y1109330D01*
X864864Y1109261D01*
X864833Y1109187D01*
X864795Y1109105D01*
X864764Y1109018D01*
X864739Y1108918D01*
X864714Y1108812D01*
X864695Y1108699D01*
X864689Y1108580D01*
X864683Y1108456D01*
Y1108449D01*
Y1108424D01*
Y1108393D01*
X864689Y1108343D01*
X864695Y1108293D01*
X864702Y1108224D01*
X864714Y1108156D01*
X864726Y1108074D01*
X864770Y1107912D01*
X864795Y1107824D01*
X864833Y1107737D01*
X864876Y1107649D01*
X864920Y1107568D01*
X864976Y1107487D01*
X865039Y1107412D01*
X865045Y1107406D01*
X865058Y1107393D01*
X865076Y1107374D01*
X865101Y1107349D01*
X865139Y1107325D01*
X865176Y1107287D01*
X865226Y1107256D01*
X865283Y1107218D01*
X865345Y1107181D01*
X865408Y1107150D01*
X865564Y1107087D01*
X865645Y1107062D01*
X865739Y1107043D01*
X865833Y1107031D01*
X865932Y1107025D01*
X865982D01*
X866020Y1107031D01*
X866064Y1107037D01*
X866120Y1107043D01*
X866176Y1107056D01*
X866245Y1107075D01*
X866382Y1107118D01*
X866457Y1107150D01*
X866538Y1107187D01*
X866613Y1107231D01*
X866689Y1107287D01*
X866764Y1107343D01*
X866832Y1107412D01*
X866838Y1107418D01*
X866851Y1107431D01*
X866863Y1107449D01*
X866888Y1107481D01*
X866920Y1107518D01*
X866951Y1107562D01*
X866982Y1107618D01*
X867013Y1107681D01*
X867051Y1107749D01*
X867082Y1107824D01*
X867113Y1107906D01*
X867145Y1107993D01*
X867170Y1108087D01*
X867182Y1108193D01*
X867195Y1108299D01*
X867201Y1108412D01*
Y1108418D01*
Y1108430D01*
Y1108449D01*
Y1108481D01*
X867195Y1108518D01*
Y1108562D01*
X867182Y1108662D01*
X867157Y1108780D01*
X867132Y1108912D01*
X867088Y1109049D01*
X867032Y1109193D01*
Y1109199D01*
X867026Y1109212D01*
X867013Y1109230D01*
X867001Y1109255D01*
X866963Y1109318D01*
X866907Y1109399D01*
X866838Y1109493D01*
X866757Y1109586D01*
X866657Y1109674D01*
X866551Y1109755D01*
X866545D01*
X866538Y1109761D01*
X866520Y1109774D01*
X866495Y1109786D01*
X866439Y1109818D01*
X866357Y1109849D01*
X866257Y1109886D01*
X866145Y1109918D01*
X866026Y1109943D01*
X865901Y1109949D01*
D02*
G37*
G36*
X873368Y1109730D02*
X871900D01*
X871850Y1109724D01*
X871787D01*
X871718Y1109718D01*
X871644D01*
X871481Y1109705D01*
X871319Y1109680D01*
X871156Y1109655D01*
X871081Y1109636D01*
X871012Y1109618D01*
X871006D01*
X870994Y1109611D01*
X870975Y1109605D01*
X870950Y1109593D01*
X870887Y1109568D01*
X870806Y1109530D01*
X870713Y1109480D01*
X870619Y1109424D01*
X870525Y1109355D01*
X870437Y1109280D01*
X870431Y1109274D01*
X870425Y1109268D01*
X870406Y1109249D01*
X870387Y1109224D01*
X870362Y1109193D01*
X870331Y1109162D01*
X870263Y1109068D01*
X870188Y1108949D01*
X870106Y1108812D01*
X870031Y1108655D01*
X869963Y1108474D01*
Y1108468D01*
X869956Y1108449D01*
X869944Y1108424D01*
X869938Y1108381D01*
X869925Y1108331D01*
X869906Y1108274D01*
X869894Y1108206D01*
X869875Y1108124D01*
X869863Y1108043D01*
X869850Y1107949D01*
X869831Y1107843D01*
X869819Y1107737D01*
X869806Y1107618D01*
X869800Y1107499D01*
X869794Y1107237D01*
Y1107225D01*
Y1107193D01*
Y1107143D01*
X869800Y1107075D01*
X869806Y1106987D01*
X869813Y1106893D01*
X869819Y1106787D01*
X869838Y1106668D01*
X869850Y1106550D01*
X869875Y1106425D01*
X869931Y1106169D01*
X869969Y1106044D01*
X870013Y1105919D01*
X870069Y1105806D01*
X870125Y1105700D01*
X870131Y1105694D01*
X870138Y1105675D01*
X870156Y1105650D01*
X870181Y1105612D01*
X870219Y1105569D01*
X870256Y1105519D01*
X870350Y1105406D01*
X870469Y1105281D01*
X870606Y1105163D01*
X870762Y1105056D01*
X870844Y1105006D01*
X870931Y1104969D01*
X870937D01*
X870950Y1104963D01*
X870969Y1104956D01*
X870994Y1104950D01*
X871031Y1104938D01*
X871075Y1104925D01*
X871131Y1104913D01*
X871194Y1104900D01*
X871269Y1104894D01*
X871344Y1104881D01*
X871437Y1104869D01*
X871537Y1104856D01*
X871644Y1104850D01*
X871762Y1104844D01*
X871887Y1104838D01*
X873368D01*
Y1109730D01*
D02*
G37*
G36*
X796193Y1019966D02*
X796181D01*
X796150D01*
X796100D01*
X796031Y1019960D01*
X795943Y1019954D01*
X795850Y1019947D01*
X795743Y1019941D01*
X795625Y1019922D01*
X795506Y1019910D01*
X795381Y1019885D01*
X795125Y1019829D01*
X795000Y1019791D01*
X794875Y1019747D01*
X794762Y1019691D01*
X794656Y1019635D01*
X794650Y1019629D01*
X794631Y1019622D01*
X794606Y1019604D01*
X794569Y1019579D01*
X794525Y1019541D01*
X794475Y1019504D01*
X794362Y1019410D01*
X794238Y1019291D01*
X794119Y1019154D01*
X794013Y1018998D01*
X793963Y1018916D01*
X793925Y1018829D01*
Y1018823D01*
X793919Y1018810D01*
X793913Y1018791D01*
X793906Y1018766D01*
X793894Y1018729D01*
X793881Y1018685D01*
X793869Y1018629D01*
X793856Y1018566D01*
X793850Y1018491D01*
X793838Y1018417D01*
X793825Y1018323D01*
X793813Y1018223D01*
X793806Y1018117D01*
X793800Y1017998D01*
X793794Y1017873D01*
Y1016392D01*
X798686D01*
Y1017860D01*
X798680Y1017910D01*
Y1017973D01*
X798674Y1018042D01*
Y1018117D01*
X798661Y1018279D01*
X798636Y1018441D01*
X798611Y1018604D01*
X798593Y1018679D01*
X798574Y1018748D01*
Y1018754D01*
X798568Y1018766D01*
X798561Y1018785D01*
X798549Y1018810D01*
X798524Y1018873D01*
X798486Y1018954D01*
X798437Y1019047D01*
X798380Y1019141D01*
X798311Y1019235D01*
X798236Y1019323D01*
X798230Y1019329D01*
X798224Y1019335D01*
X798205Y1019354D01*
X798180Y1019372D01*
X798149Y1019398D01*
X798118Y1019429D01*
X798024Y1019497D01*
X797905Y1019572D01*
X797768Y1019654D01*
X797612Y1019729D01*
X797430Y1019797D01*
X797424D01*
X797405Y1019804D01*
X797381Y1019816D01*
X797337Y1019822D01*
X797287Y1019835D01*
X797231Y1019854D01*
X797162Y1019866D01*
X797081Y1019885D01*
X796999Y1019897D01*
X796906Y1019910D01*
X796799Y1019929D01*
X796693Y1019941D01*
X796574Y1019954D01*
X796456Y1019960D01*
X796193Y1019966D01*
D02*
G37*
G36*
X801000Y897827D02*
X800925D01*
X800919D01*
X800906D01*
X800881D01*
X800850Y897821D01*
X800819D01*
X800775Y897815D01*
X800675Y897790D01*
X800556Y897752D01*
X800438Y897702D01*
X800313Y897627D01*
X800256Y897577D01*
X800200Y897527D01*
X800194Y897521D01*
X800188Y897515D01*
X800175Y897496D01*
X800150Y897471D01*
X800106Y897409D01*
X800050Y897321D01*
X799994Y897215D01*
X799944Y897090D01*
X799913Y896946D01*
X799906Y896865D01*
X799900Y896784D01*
Y896740D01*
X799906Y896709D01*
Y896671D01*
X799913Y896621D01*
X799938Y896521D01*
X799969Y896403D01*
X800025Y896278D01*
X800094Y896153D01*
X800144Y896090D01*
X800194Y896034D01*
X800200D01*
X800206Y896021D01*
X800244Y895990D01*
X800306Y895940D01*
X800388Y895890D01*
X800488Y895834D01*
X800606Y895784D01*
X800738Y895753D01*
X800806Y895747D01*
X800881Y895740D01*
X800888D01*
X800900D01*
X800925D01*
X800956Y895747D01*
X800994D01*
X801037Y895753D01*
X801144Y895778D01*
X801262Y895809D01*
X801387Y895859D01*
X801512Y895934D01*
X801569Y895978D01*
X801625Y896028D01*
Y896034D01*
X801637Y896040D01*
X801650Y896059D01*
X801668Y896084D01*
X801719Y896146D01*
X801768Y896234D01*
X801818Y896340D01*
X801868Y896471D01*
X801900Y896621D01*
X801906Y896703D01*
X801912Y896790D01*
Y896834D01*
X801906Y896865D01*
Y896902D01*
X801900Y896953D01*
X801875Y897053D01*
X801843Y897171D01*
X801794Y897296D01*
X801725Y897421D01*
X801681Y897477D01*
X801631Y897534D01*
X801625Y897540D01*
X801618Y897546D01*
X801600Y897559D01*
X801581Y897577D01*
X801518Y897627D01*
X801437Y897684D01*
X801331Y897734D01*
X801212Y897784D01*
X801075Y897815D01*
X801000Y897827D01*
D02*
G37*
G36*
X803868Y898090D02*
X803862D01*
X803843D01*
X803812D01*
X803774Y898083D01*
X803724Y898077D01*
X803668Y898071D01*
X803605Y898058D01*
X803537Y898040D01*
X803387Y897996D01*
X803312Y897965D01*
X803231Y897927D01*
X803156Y897884D01*
X803074Y897834D01*
X802999Y897777D01*
X802931Y897709D01*
X802924Y897702D01*
X802912Y897690D01*
X802893Y897671D01*
X802874Y897640D01*
X802843Y897602D01*
X802812Y897559D01*
X802781Y897509D01*
X802743Y897452D01*
X802706Y897384D01*
X802674Y897315D01*
X802612Y897152D01*
X802593Y897065D01*
X802574Y896971D01*
X802562Y896871D01*
X802556Y896765D01*
Y896709D01*
X802562Y896671D01*
X802568Y896628D01*
X802574Y896571D01*
X802587Y896509D01*
X802599Y896440D01*
X802643Y896296D01*
X802674Y896221D01*
X802712Y896140D01*
X802756Y896065D01*
X802800Y895990D01*
X802862Y895915D01*
X802924Y895847D01*
X802931Y895840D01*
X802943Y895834D01*
X802962Y895815D01*
X802993Y895790D01*
X803024Y895765D01*
X803068Y895734D01*
X803118Y895697D01*
X803174Y895665D01*
X803243Y895634D01*
X803312Y895597D01*
X803468Y895540D01*
X803556Y895515D01*
X803643Y895503D01*
X803743Y895490D01*
X803843Y895484D01*
X803849D01*
X803855D01*
X803874D01*
X803899D01*
X803968Y895490D01*
X804049Y895503D01*
X804149Y895522D01*
X804262Y895553D01*
X804374Y895590D01*
X804493Y895640D01*
X804499D01*
X804505Y895647D01*
X804543Y895672D01*
X804599Y895709D01*
X804668Y895759D01*
X804749Y895822D01*
X804830Y895903D01*
X804911Y895996D01*
X804980Y896109D01*
Y896115D01*
X804986Y896122D01*
X804993Y896140D01*
X805005Y896165D01*
X805036Y896228D01*
X805061Y896315D01*
X805093Y896415D01*
X805124Y896534D01*
X805143Y896659D01*
X805149Y896790D01*
Y896846D01*
X805143Y896884D01*
X805136Y896934D01*
X805130Y896990D01*
X805118Y897053D01*
X805105Y897121D01*
X805061Y897265D01*
X805030Y897346D01*
X804999Y897421D01*
X804955Y897502D01*
X804911Y897577D01*
X804855Y897652D01*
X804793Y897721D01*
X804787Y897727D01*
X804774Y897740D01*
X804755Y897752D01*
X804724Y897777D01*
X804693Y897809D01*
X804649Y897840D01*
X804599Y897871D01*
X804543Y897908D01*
X804480Y897940D01*
X804405Y897971D01*
X804249Y898034D01*
X804162Y898058D01*
X804068Y898071D01*
X803968Y898083D01*
X803868Y898090D01*
D02*
G37*
G36*
X802437Y892966D02*
X802425D01*
X802393D01*
X802343D01*
X802275Y892960D01*
X802187Y892954D01*
X802093Y892947D01*
X801987Y892941D01*
X801868Y892922D01*
X801750Y892910D01*
X801625Y892885D01*
X801369Y892829D01*
X801244Y892791D01*
X801119Y892747D01*
X801006Y892691D01*
X800900Y892635D01*
X800894Y892629D01*
X800875Y892622D01*
X800850Y892604D01*
X800813Y892579D01*
X800769Y892541D01*
X800719Y892504D01*
X800606Y892410D01*
X800481Y892291D01*
X800363Y892154D01*
X800256Y891998D01*
X800206Y891916D01*
X800169Y891829D01*
Y891823D01*
X800163Y891810D01*
X800156Y891791D01*
X800150Y891766D01*
X800138Y891729D01*
X800125Y891685D01*
X800113Y891629D01*
X800100Y891566D01*
X800094Y891491D01*
X800081Y891416D01*
X800069Y891323D01*
X800056Y891223D01*
X800050Y891116D01*
X800044Y890998D01*
X800038Y890873D01*
Y889392D01*
X804930D01*
Y890860D01*
X804924Y890910D01*
Y890973D01*
X804918Y891042D01*
Y891116D01*
X804905Y891279D01*
X804880Y891441D01*
X804855Y891604D01*
X804836Y891679D01*
X804818Y891748D01*
Y891754D01*
X804811Y891766D01*
X804805Y891785D01*
X804793Y891810D01*
X804768Y891873D01*
X804730Y891954D01*
X804680Y892048D01*
X804624Y892141D01*
X804555Y892235D01*
X804480Y892322D01*
X804474Y892329D01*
X804468Y892335D01*
X804449Y892354D01*
X804424Y892373D01*
X804393Y892398D01*
X804362Y892429D01*
X804268Y892497D01*
X804149Y892572D01*
X804012Y892654D01*
X803855Y892729D01*
X803674Y892797D01*
X803668D01*
X803649Y892804D01*
X803624Y892816D01*
X803580Y892822D01*
X803531Y892835D01*
X803474Y892854D01*
X803406Y892866D01*
X803324Y892885D01*
X803243Y892897D01*
X803149Y892910D01*
X803043Y892929D01*
X802937Y892941D01*
X802818Y892954D01*
X802700Y892960D01*
X802437Y892966D01*
D02*
G37*
G36*
X883931Y776101D02*
X883925D01*
X883900D01*
X883869D01*
X883819Y776095D01*
X883762Y776088D01*
X883694Y776082D01*
X883625Y776070D01*
X883544Y776057D01*
X883375Y776013D01*
X883281Y775982D01*
X883194Y775951D01*
X883106Y775907D01*
X883019Y775857D01*
X882931Y775801D01*
X882856Y775739D01*
X882850Y775732D01*
X882838Y775720D01*
X882819Y775701D01*
X882794Y775676D01*
X882763Y775639D01*
X882731Y775601D01*
X882694Y775551D01*
X882656Y775495D01*
X882581Y775370D01*
X882519Y775220D01*
X882494Y775139D01*
X882475Y775058D01*
X882463Y774964D01*
X882457Y774870D01*
Y774820D01*
X882463Y774783D01*
X882469Y774739D01*
X882481Y774683D01*
X882494Y774626D01*
X882513Y774558D01*
X882531Y774489D01*
X882563Y774414D01*
X882594Y774339D01*
X882638Y774264D01*
X882688Y774189D01*
X882744Y774108D01*
X882813Y774033D01*
X882888Y773958D01*
X882894Y773952D01*
X882906Y773939D01*
X882931Y773920D01*
X882963Y773895D01*
X883006Y773870D01*
X883056Y773833D01*
X883119Y773802D01*
X883187Y773764D01*
X883262Y773727D01*
X883344Y773695D01*
X883438Y773658D01*
X883531Y773633D01*
X883637Y773608D01*
X883750Y773589D01*
X883869Y773577D01*
X883994Y773570D01*
X884000D01*
X884019D01*
X884050D01*
X884093Y773577D01*
X884150Y773583D01*
X884206Y773589D01*
X884275Y773602D01*
X884350Y773614D01*
X884506Y773658D01*
X884587Y773689D01*
X884668Y773727D01*
X884756Y773764D01*
X884837Y773814D01*
X884912Y773870D01*
X884987Y773933D01*
X884993Y773939D01*
X885006Y773952D01*
X885024Y773970D01*
X885043Y774002D01*
X885074Y774033D01*
X885106Y774077D01*
X885143Y774127D01*
X885174Y774183D01*
X885212Y774251D01*
X885249Y774320D01*
X885306Y774476D01*
X885331Y774558D01*
X885350Y774651D01*
X885362Y774745D01*
X885368Y774845D01*
Y774901D01*
X885362Y774939D01*
X885356Y774983D01*
X885350Y775039D01*
X885337Y775101D01*
X885318Y775164D01*
X885275Y775307D01*
X885243Y775382D01*
X885206Y775457D01*
X885162Y775532D01*
X885112Y775607D01*
X885056Y775676D01*
X884987Y775745D01*
X884981Y775751D01*
X884968Y775757D01*
X884950Y775776D01*
X884918Y775801D01*
X884881Y775826D01*
X884831Y775857D01*
X884775Y775889D01*
X884712Y775926D01*
X884643Y775957D01*
X884562Y775988D01*
X884475Y776020D01*
X884381Y776045D01*
X884281Y776070D01*
X884168Y776088D01*
X884056Y776095D01*
X883931Y776101D01*
D02*
G37*
G36*
X884987Y771046D02*
X884975D01*
X884943D01*
X884893D01*
X884825Y771040D01*
X884737Y771034D01*
X884643Y771027D01*
X884537Y771021D01*
X884418Y771002D01*
X884300Y770990D01*
X884175Y770965D01*
X883919Y770909D01*
X883794Y770871D01*
X883669Y770827D01*
X883556Y770771D01*
X883450Y770715D01*
X883444Y770709D01*
X883425Y770702D01*
X883400Y770684D01*
X883363Y770659D01*
X883319Y770621D01*
X883269Y770584D01*
X883156Y770490D01*
X883031Y770371D01*
X882913Y770234D01*
X882806Y770078D01*
X882756Y769996D01*
X882719Y769909D01*
Y769903D01*
X882713Y769890D01*
X882706Y769871D01*
X882700Y769846D01*
X882688Y769809D01*
X882675Y769765D01*
X882663Y769709D01*
X882650Y769646D01*
X882644Y769571D01*
X882631Y769497D01*
X882619Y769403D01*
X882606Y769303D01*
X882600Y769196D01*
X882594Y769078D01*
X882588Y768953D01*
Y767472D01*
X887480D01*
Y768940D01*
X887474Y768990D01*
Y769053D01*
X887468Y769122D01*
Y769196D01*
X887455Y769359D01*
X887430Y769521D01*
X887405Y769684D01*
X887386Y769759D01*
X887368Y769828D01*
Y769834D01*
X887361Y769846D01*
X887355Y769865D01*
X887343Y769890D01*
X887318Y769953D01*
X887280Y770034D01*
X887230Y770127D01*
X887174Y770221D01*
X887105Y770315D01*
X887030Y770403D01*
X887024Y770409D01*
X887018Y770415D01*
X886999Y770434D01*
X886974Y770452D01*
X886943Y770478D01*
X886912Y770509D01*
X886818Y770577D01*
X886699Y770652D01*
X886562Y770734D01*
X886405Y770809D01*
X886224Y770877D01*
X886218D01*
X886199Y770884D01*
X886174Y770896D01*
X886131Y770902D01*
X886080Y770915D01*
X886024Y770934D01*
X885956Y770946D01*
X885874Y770965D01*
X885793Y770977D01*
X885699Y770990D01*
X885593Y771009D01*
X885487Y771021D01*
X885368Y771034D01*
X885249Y771040D01*
X884987Y771046D01*
D02*
G37*
%LPD*%
D12*
X1002450Y680920D02*
Y705920D01*
X991450Y680920D02*
X1002450D01*
X991450D02*
Y705920D01*
X1002450D01*
X1205030Y820000D02*
Y831000D01*
X1180030D02*
X1205030D01*
X1180030Y820000D02*
Y831000D01*
Y820000D02*
X1205030D01*
X1185760Y936940D02*
X1196760D01*
X1185760Y911940D02*
Y936940D01*
Y911940D02*
X1196760D01*
Y936940D01*
X1213800Y1002880D02*
Y1013880D01*
X1188800D02*
X1213800D01*
X1188800Y1002880D02*
Y1013880D01*
Y1002880D02*
X1213800D01*
X1113370Y1116530D02*
X1124370D01*
Y1141530D01*
X1113370D02*
X1124370D01*
X1113370Y1116530D02*
Y1141530D01*
X999070Y1112720D02*
X1010070D01*
Y1137720D01*
X999070D02*
X1010070D01*
X999070Y1112720D02*
Y1137720D01*
X897690Y1103210D02*
Y1114210D01*
X872690D02*
X897690D01*
X872690Y1103210D02*
Y1114210D01*
Y1103210D02*
X897690D01*
X792060Y992070D02*
X803060D01*
Y1017070D01*
X792060D02*
X803060D01*
X792060Y992070D02*
Y1017070D01*
X798410Y865070D02*
X809410D01*
Y890070D01*
X798410D02*
X809410D01*
X798410Y865070D02*
Y890070D01*
X880960Y743150D02*
X891960D01*
Y768150D01*
X880960D02*
X891960D01*
X880960Y743150D02*
Y768150D01*
M02*
