G04*
G04 #@! TF.GenerationSoftware,Altium Limited,Altium Designer,26.7.1 (11)*
G04*
G04 Layer_Color=65535*
G04 Board_Origin=0|0*
%FSLAX44Y44*%
%MOMM*%
G71*
G04*
G04 #@! TF.SameCoordinates,9F73497C-8F47-4EB9-A377-0E366E99F9EA*
G04*
G04*
G04 #@! TF.FilePolarity,Positive*
G04*
G01*
G75*
%ADD10C,0.6000*%
%ADD11C,0.2500*%
%ADD12C,0.2000*%
%ADD13C,0.2540*%
D10*
X1087570Y853840D02*
G03*
X1087570Y853840I-3000J0D01*
G01*
X917410Y1010010D02*
G03*
X917410Y1010010I-3000J0D01*
G01*
D11*
X1107420Y840440D02*
G03*
X1107420Y840440I-1250J0D01*
G01*
X894060Y1020110D02*
G03*
X894060Y1020110I-1250J0D01*
G01*
X998200Y711420D02*
G03*
X998200Y711420I-1250J0D01*
G01*
X1211780Y825500D02*
G03*
X1211780Y825500I-1250J0D01*
G01*
X1192510Y942440D02*
G03*
X1192510Y942440I-1250J0D01*
G01*
X1220550Y1008380D02*
G03*
X1220550Y1008380I-1250J0D01*
G01*
X1120120Y1111030D02*
G03*
X1120120Y1111030I-1250J0D01*
G01*
X1005820Y1107220D02*
G03*
X1005820Y1107220I-1250J0D01*
G01*
X904440Y1108710D02*
G03*
X904440Y1108710I-1250J0D01*
G01*
X798810Y986570D02*
G03*
X798810Y986570I-1250J0D01*
G01*
X805160Y859570D02*
G03*
X805160Y859570I-1250J0D01*
G01*
X887710Y737650D02*
G03*
X887710Y737650I-1250J0D01*
G01*
D12*
X1074420Y843840D02*
G03*
X1061720Y843840I-6350J0D01*
G01*
X924560Y1020010D02*
G03*
X937260Y1020010I6350J0D01*
G01*
X1218003Y617860D02*
Y691360D01*
Y698360D02*
Y707860D01*
X1118002D02*
X1218003D01*
X1118002Y617860D02*
X1218003D01*
X1118002D02*
Y639360D01*
Y646362D02*
Y707860D01*
X1112001Y636860D02*
Y648860D01*
Y636860D02*
X1118002Y639358D01*
X1112001Y648860D02*
X1118002Y646362D01*
X1218003Y698360D02*
X1224003Y700858D01*
Y688858D02*
Y700858D01*
X1218003Y691356D02*
X1224003Y688858D01*
X1041570Y1040840D02*
X1094570D01*
X1041570Y843840D02*
X1061720D01*
X1074420D02*
X1094570D01*
X1041570D02*
Y1040840D01*
X1094570Y843840D02*
Y1040840D01*
X904410Y918010D02*
X957410D01*
X937260Y1020010D02*
X957410D01*
X904410D02*
X924560D01*
X957410Y918010D02*
Y1020010D01*
X904410Y918010D02*
Y1020010D01*
X1005450Y684920D02*
Y701920D01*
X988450Y684920D02*
Y701920D01*
X1184030Y834000D02*
X1201030D01*
X1184030Y817000D02*
X1201030D01*
X1182760Y915940D02*
Y932940D01*
X1199760Y915940D02*
Y932940D01*
X1192800Y1016880D02*
X1209800D01*
X1192800Y999880D02*
X1209800D01*
X1127370Y1120530D02*
Y1137530D01*
X1110370Y1120530D02*
Y1137530D01*
X1013070Y1116720D02*
Y1133720D01*
X996070Y1116720D02*
Y1133720D01*
X876690Y1117210D02*
X893690D01*
X876690Y1100210D02*
X893690D01*
X806060Y996070D02*
Y1013070D01*
X789060Y996070D02*
Y1013070D01*
X812410Y869070D02*
Y886070D01*
X795410Y869070D02*
Y886070D01*
X894960Y747150D02*
Y764150D01*
X877960Y747150D02*
Y764150D01*
D13*
X1098550Y693418D02*
X1093472D01*
X1096011D01*
Y680722D01*
X1093472Y678183D01*
X1090932D01*
X1088393Y680722D01*
X1103628Y678183D02*
X1108707D01*
X1106168D01*
Y693418D01*
X1103628Y690878D01*
X988695Y964057D02*
Y979292D01*
X996312D01*
X998852Y976753D01*
Y971674D01*
X996312Y969135D01*
X988695D01*
X993773D02*
X998852Y964057D01*
X1014087D02*
X1003930D01*
X1014087Y974214D01*
Y976753D01*
X1011548Y979292D01*
X1006469D01*
X1003930Y976753D01*
X1141095Y970407D02*
Y985642D01*
X1148712D01*
X1151252Y983103D01*
Y978025D01*
X1148712Y975485D01*
X1141095D01*
X1146173D02*
X1151252Y970407D01*
X1163948D02*
Y985642D01*
X1156330Y978025D01*
X1166487D01*
X987933Y767715D02*
X972698D01*
Y775332D01*
X975237Y777872D01*
X980315D01*
X982855Y775332D01*
Y767715D01*
Y772793D02*
X987933Y777872D01*
X975237Y782950D02*
X972698Y785489D01*
Y790568D01*
X975237Y793107D01*
X977776D01*
X980315Y790568D01*
Y788028D01*
Y790568D01*
X982855Y793107D01*
X985394D01*
X987933Y790568D01*
Y785489D01*
X985394Y782950D01*
X1118235Y778383D02*
Y763148D01*
X1110618D01*
X1108078Y765687D01*
Y770766D01*
X1110618Y773305D01*
X1118235D01*
X1113157D02*
X1108078Y778383D01*
X1103000D02*
X1097922D01*
X1100461D01*
Y763148D01*
X1103000Y765687D01*
X1007995Y869318D02*
X1010534Y871858D01*
Y876936D01*
X1007995Y879475D01*
X997838D01*
X995299Y876936D01*
Y871858D01*
X997838Y869318D01*
X995299Y854083D02*
Y864240D01*
X1005456Y854083D01*
X1007995D01*
X1010534Y856622D01*
Y861701D01*
X1007995Y864240D01*
X932812Y839085D02*
X930273Y841624D01*
X925194D01*
X922655Y839085D01*
Y828928D01*
X925194Y826389D01*
X930273D01*
X932812Y828928D01*
X937890Y826389D02*
X942968D01*
X940429D01*
Y841624D01*
X937890Y839085D01*
X884809Y1045586D02*
Y1032890D01*
X887348Y1030351D01*
X892427D01*
X894966Y1032890D01*
Y1045586D01*
X910201Y1030351D02*
X900044D01*
X910201Y1040508D01*
Y1043047D01*
X907662Y1045586D01*
X902583D01*
X900044Y1043047D01*
X1111632Y814964D02*
Y827660D01*
X1109093Y830199D01*
X1104014D01*
X1101475Y827660D01*
Y814964D01*
X1096397Y830199D02*
X1091318D01*
X1093858D01*
Y814964D01*
X1096397Y817503D01*
X1002665Y656976D02*
Y672211D01*
X992509D01*
X977274Y656976D02*
X987430D01*
Y672211D01*
X977274D01*
X987430Y664594D02*
X982352D01*
X972195Y656976D02*
Y672211D01*
X964578D01*
X962038Y669672D01*
Y659515D01*
X964578Y656976D01*
X972195D01*
X956960Y672211D02*
X951882D01*
X954421D01*
Y656976D01*
X956960Y659515D01*
X944264D02*
X941725Y656976D01*
X936647D01*
X934108Y659515D01*
Y669672D01*
X936647Y672211D01*
X941725D01*
X944264Y669672D01*
Y659515D01*
X885823Y792094D02*
Y776859D01*
X895980D01*
X911215Y792094D02*
X901058D01*
Y776859D01*
X911215D01*
X901058Y784476D02*
X906136D01*
X916293Y792094D02*
Y776859D01*
X923911D01*
X926450Y779398D01*
Y789555D01*
X923911Y792094D01*
X916293D01*
X931528Y779398D02*
X934067Y776859D01*
X939146D01*
X941685Y779398D01*
Y789555D01*
X939146Y792094D01*
X934067D01*
X931528Y789555D01*
Y787016D01*
X934067Y784476D01*
X941685D01*
X803273Y914014D02*
Y898779D01*
X813430D01*
X828665Y914014D02*
X818508D01*
Y898779D01*
X828665D01*
X818508Y906396D02*
X823586D01*
X833743Y914014D02*
Y898779D01*
X841361D01*
X843900Y901318D01*
Y911475D01*
X841361Y914014D01*
X833743D01*
X848978Y911475D02*
X851517Y914014D01*
X856596D01*
X859135Y911475D01*
Y908936D01*
X856596Y906396D01*
X859135Y903857D01*
Y901318D01*
X856596Y898779D01*
X851517D01*
X848978Y901318D01*
Y903857D01*
X851517Y906396D01*
X848978Y908936D01*
Y911475D01*
X851517Y906396D02*
X856596D01*
X796923Y1041014D02*
Y1025779D01*
X807080D01*
X822315Y1041014D02*
X812158D01*
Y1025779D01*
X822315D01*
X812158Y1033397D02*
X817236D01*
X827393Y1041014D02*
Y1025779D01*
X835011D01*
X837550Y1028318D01*
Y1038475D01*
X835011Y1041014D01*
X827393D01*
X842628D02*
X852785D01*
Y1038475D01*
X842628Y1028318D01*
Y1025779D01*
X848746Y1108073D02*
X863981D01*
Y1118230D01*
X848746Y1133465D02*
Y1123308D01*
X863981D01*
Y1133465D01*
X856364Y1123308D02*
Y1128386D01*
X848746Y1138543D02*
X863981D01*
Y1146161D01*
X861442Y1148700D01*
X851285D01*
X848746Y1146161D01*
Y1138543D01*
Y1163935D02*
X851285Y1158857D01*
X856364Y1153778D01*
X861442D01*
X863981Y1156317D01*
Y1161396D01*
X861442Y1163935D01*
X858903D01*
X856364Y1161396D01*
Y1153778D01*
X1003933Y1161664D02*
Y1146429D01*
X1014090D01*
X1029325Y1161664D02*
X1019168D01*
Y1146429D01*
X1029325D01*
X1019168Y1154046D02*
X1024246D01*
X1034403Y1161664D02*
Y1146429D01*
X1042021D01*
X1044560Y1148968D01*
Y1159125D01*
X1042021Y1161664D01*
X1034403D01*
X1059795D02*
X1049638D01*
Y1154046D01*
X1054716Y1156586D01*
X1057256D01*
X1059795Y1154046D01*
Y1148968D01*
X1057256Y1146429D01*
X1052177D01*
X1049638Y1148968D01*
X1118233Y1165474D02*
Y1150239D01*
X1128390D01*
X1143625Y1165474D02*
X1133468D01*
Y1150239D01*
X1143625D01*
X1133468Y1157857D02*
X1138546D01*
X1148703Y1165474D02*
Y1150239D01*
X1156321D01*
X1158860Y1152778D01*
Y1162935D01*
X1156321Y1165474D01*
X1148703D01*
X1171556Y1150239D02*
Y1165474D01*
X1163938Y1157857D01*
X1174095D01*
X1164856Y1007743D02*
X1180091D01*
Y1017900D01*
X1164856Y1033135D02*
Y1022978D01*
X1180091D01*
Y1033135D01*
X1172474Y1022978D02*
Y1028056D01*
X1164856Y1038213D02*
X1180091D01*
Y1045831D01*
X1177552Y1048370D01*
X1167395D01*
X1164856Y1045831D01*
Y1038213D01*
X1167395Y1053448D02*
X1164856Y1055987D01*
Y1061066D01*
X1167395Y1063605D01*
X1169934D01*
X1172474Y1061066D01*
Y1058527D01*
Y1061066D01*
X1175013Y1063605D01*
X1177552D01*
X1180091Y1061066D01*
Y1055987D01*
X1177552Y1053448D01*
X1191897Y887996D02*
Y903231D01*
X1181740D01*
X1166505Y887996D02*
X1176662D01*
Y903231D01*
X1166505D01*
X1176662Y895613D02*
X1171584D01*
X1161427Y887996D02*
Y903231D01*
X1153809D01*
X1151270Y900692D01*
Y890535D01*
X1153809Y887996D01*
X1161427D01*
X1136035Y903231D02*
X1146192D01*
X1136035Y893074D01*
Y890535D01*
X1138574Y887996D01*
X1143653D01*
X1146192Y890535D01*
X1156086Y824863D02*
X1171321D01*
Y835020D01*
X1156086Y850255D02*
Y840098D01*
X1171321D01*
Y850255D01*
X1163704Y840098D02*
Y845176D01*
X1156086Y855333D02*
X1171321D01*
Y862951D01*
X1168782Y865490D01*
X1158625D01*
X1156086Y862951D01*
Y855333D01*
X1171321Y870568D02*
Y875647D01*
Y873107D01*
X1156086D01*
X1158625Y870568D01*
M02*
