G04*
G04 #@! TF.GenerationSoftware,Altium Limited,Altium Designer,26.7.1 (11)*
G04*
G04 Layer_Physical_Order=2*
G04 Layer_Color=16711680*
G04 Board_Origin=0|0*
%FSLAX44Y44*%
%MOMM*%
G71*
G04*
G04 #@! TF.SameCoordinates,9F73497C-8F47-4EB9-A377-0E366E99F9EA*
G04*
G04*
G04 #@! TF.FilePolarity,Positive*
G04*
G01*
G75*
%ADD13C,0.2540*%
%ADD29C,1.9500*%
G04:AMPARAMS|DCode=30|XSize=1.95mm|YSize=1.95mm|CornerRadius=0.4875mm|HoleSize=0mm|Usage=FLASHONLY|Rotation=0.000|XOffset=0mm|YOffset=0mm|HoleType=Round|Shape=RoundedRectangle|*
%AMROUNDEDRECTD30*
21,1,1.9500,0.9750,0,0,0.0*
21,1,0.9750,1.9500,0,0,0.0*
1,1,0.9750,0.4875,-0.4875*
1,1,0.9750,-0.4875,-0.4875*
1,1,0.9750,-0.4875,0.4875*
1,1,0.9750,0.4875,0.4875*
%
%ADD30ROUNDEDRECTD30*%
%ADD31R,1.5000X1.5000*%
%ADD32C,1.5000*%
%ADD33C,1.2700*%
G36*
X1262380Y584200D02*
X1261110Y582930D01*
X726440D01*
Y1215916D01*
X727710Y1217930D01*
X1262380D01*
Y584200D01*
D02*
G37*
%LPC*%
G36*
X1107492Y1041280D02*
X1107440D01*
Y1032510D01*
X1116210D01*
Y1032562D01*
X1115526Y1035115D01*
X1114204Y1037405D01*
X1112335Y1039274D01*
X1110045Y1040596D01*
X1107492Y1041280D01*
D02*
G37*
G36*
X1104900D02*
X1104848D01*
X1102295Y1040596D01*
X1100005Y1039274D01*
X1098136Y1037405D01*
X1096814Y1035115D01*
X1096130Y1032562D01*
Y1032510D01*
X1104900D01*
Y1041280D01*
D02*
G37*
G36*
X1116210Y1029970D02*
X1107440D01*
Y1021200D01*
X1107492D01*
X1110045Y1021884D01*
X1112335Y1023206D01*
X1114204Y1025075D01*
X1115526Y1027365D01*
X1116210Y1029918D01*
Y1029970D01*
D02*
G37*
G36*
X1104900D02*
X1096130D01*
Y1029918D01*
X1096814Y1027365D01*
X1098136Y1025075D01*
X1100005Y1023206D01*
X1102295Y1021884D01*
X1104848Y1021200D01*
X1104900D01*
Y1029970D01*
D02*
G37*
G36*
X860044Y1141805D02*
X839724D01*
X838237Y1141509D01*
X836977Y1140667D01*
X800486Y1104176D01*
X798730Y1104646D01*
X796390D01*
X794129Y1104040D01*
X792101Y1102870D01*
X790446Y1101215D01*
X789276Y1099187D01*
X788670Y1096926D01*
Y1094586D01*
X789276Y1092325D01*
X790446Y1090297D01*
X792101Y1088642D01*
X794129Y1087472D01*
X796390Y1086866D01*
X798730D01*
X800991Y1087472D01*
X803019Y1088642D01*
X804674Y1090297D01*
X805844Y1092325D01*
X806450Y1094586D01*
Y1096926D01*
X805980Y1098682D01*
X841333Y1134035D01*
X858435D01*
X973578Y1018892D01*
X972239Y1016639D01*
X970332Y1017150D01*
X967688D01*
X965135Y1016466D01*
X962845Y1015144D01*
X960976Y1013275D01*
X959654Y1010985D01*
X958970Y1008432D01*
Y1005788D01*
X959654Y1003235D01*
X960976Y1000945D01*
X962845Y999076D01*
X965135Y997754D01*
X967688Y997070D01*
X970332D01*
X972885Y997754D01*
X975175Y999076D01*
X977044Y1000945D01*
X978366Y1003235D01*
X979050Y1005788D01*
Y1008432D01*
X978539Y1010339D01*
X980792Y1011678D01*
X1002331Y990139D01*
X1003591Y989297D01*
X1005078Y989001D01*
X1020741D01*
X1021691Y987095D01*
X1021853Y986461D01*
X1020614Y984315D01*
X1019930Y981762D01*
Y979118D01*
X1020614Y976565D01*
X1021936Y974275D01*
X1023805Y972406D01*
X1026095Y971084D01*
X1028648Y970400D01*
X1031292D01*
X1033845Y971084D01*
X1036135Y972406D01*
X1038004Y974275D01*
X1039326Y976565D01*
X1040010Y979118D01*
Y981762D01*
X1039326Y984315D01*
X1038087Y986461D01*
X1038249Y987095D01*
X1039200Y989001D01*
X1066715D01*
X1096811Y958905D01*
X1096130Y956362D01*
Y953718D01*
X1096814Y951165D01*
X1098136Y948875D01*
X1100005Y947006D01*
X1102295Y945684D01*
X1104848Y945000D01*
X1107492D01*
X1110045Y945684D01*
X1112335Y947006D01*
X1114204Y948875D01*
X1115526Y951165D01*
X1116210Y953718D01*
Y956362D01*
X1115526Y958915D01*
X1114204Y961205D01*
X1112335Y963074D01*
X1110045Y964396D01*
X1107492Y965080D01*
X1104848D01*
X1102305Y964399D01*
X1071071Y995633D01*
X1069811Y996475D01*
X1068324Y996771D01*
X1038691D01*
X1037639Y999311D01*
X1038004Y999675D01*
X1039326Y1001965D01*
X1040010Y1004518D01*
Y1007162D01*
X1039326Y1009715D01*
X1038004Y1012005D01*
X1036135Y1013874D01*
X1033845Y1015196D01*
X1031292Y1015880D01*
X1028648D01*
X1026105Y1015199D01*
X1022505Y1018799D01*
X1022704Y1021303D01*
X1024965Y1022537D01*
X1026095Y1021884D01*
X1028648Y1021200D01*
X1031292D01*
X1033845Y1021884D01*
X1036135Y1023206D01*
X1038004Y1025075D01*
X1039326Y1027365D01*
X1040010Y1029918D01*
Y1032562D01*
X1039326Y1035115D01*
X1038004Y1037405D01*
X1036135Y1039274D01*
X1033845Y1040596D01*
X1031292Y1041280D01*
X1028648D01*
X1026095Y1040596D01*
X1024965Y1039943D01*
X1022425Y1041329D01*
Y1124698D01*
X1023999Y1125606D01*
X1025654Y1127262D01*
X1026824Y1129289D01*
X1027430Y1131550D01*
Y1133891D01*
X1026824Y1136152D01*
X1025654Y1138179D01*
X1023999Y1139834D01*
X1021971Y1141004D01*
X1019710Y1141610D01*
X1017370D01*
X1015109Y1141004D01*
X1013081Y1139834D01*
X1011426Y1138179D01*
X1010256Y1136152D01*
X1009650Y1133891D01*
Y1131550D01*
X1010256Y1129289D01*
X1011426Y1127262D01*
X1013081Y1125606D01*
X1014655Y1124698D01*
Y1017270D01*
X1014951Y1015783D01*
X1015793Y1014523D01*
X1020611Y1009705D01*
X1019930Y1007162D01*
Y1004518D01*
X1020614Y1001965D01*
X1021936Y999675D01*
X1022301Y999311D01*
X1021248Y996771D01*
X1006687D01*
X862791Y1140667D01*
X861531Y1141509D01*
X860044Y1141805D01*
D02*
G37*
G36*
X902850Y1017150D02*
X894080D01*
Y1008380D01*
X902850D01*
Y1017150D01*
D02*
G37*
G36*
X891540D02*
X882770D01*
Y1008380D01*
X891540D01*
Y1017150D01*
D02*
G37*
G36*
X902850Y1005840D02*
X894080D01*
Y997070D01*
X902850D01*
Y1005840D01*
D02*
G37*
G36*
X891540D02*
X882770D01*
Y997070D01*
X891540D01*
Y1005840D01*
D02*
G37*
G36*
X1107492Y1015880D02*
X1104848D01*
X1102295Y1015196D01*
X1100005Y1013874D01*
X1098136Y1012005D01*
X1096814Y1009715D01*
X1096130Y1007162D01*
Y1004518D01*
X1096814Y1001965D01*
X1098136Y999675D01*
X1100005Y997806D01*
X1102295Y996484D01*
X1104848Y995800D01*
X1107492D01*
X1110045Y996484D01*
X1112335Y997806D01*
X1114204Y999675D01*
X1115526Y1001965D01*
X1116210Y1004518D01*
Y1007162D01*
X1115526Y1009715D01*
X1114204Y1012005D01*
X1112335Y1013874D01*
X1110045Y1015196D01*
X1107492Y1015880D01*
D02*
G37*
G36*
Y990480D02*
X1104848D01*
X1102295Y989796D01*
X1100005Y988474D01*
X1098136Y986605D01*
X1096814Y984315D01*
X1096130Y981762D01*
Y979118D01*
X1096814Y976565D01*
X1098136Y974275D01*
X1100005Y972406D01*
X1102295Y971084D01*
X1104848Y970400D01*
X1107492D01*
X1110045Y971084D01*
X1112335Y972406D01*
X1114204Y974275D01*
X1115526Y976565D01*
X1116210Y979118D01*
Y981762D01*
X1115526Y984315D01*
X1114204Y986605D01*
X1112335Y988474D01*
X1110045Y989796D01*
X1107492Y990480D01*
D02*
G37*
G36*
X864770Y1103510D02*
X862430D01*
X860169Y1102904D01*
X858141Y1101734D01*
X856486Y1100079D01*
X855316Y1098052D01*
X854710Y1095790D01*
Y1093450D01*
X855316Y1091189D01*
X856486Y1089162D01*
X858141Y1087506D01*
X859715Y1086598D01*
Y979170D01*
X860011Y977683D01*
X860853Y976423D01*
X871013Y966263D01*
X872273Y965421D01*
X873760Y965125D01*
X883835D01*
X884887Y962585D01*
X884776Y962475D01*
X883454Y960185D01*
X882770Y957632D01*
Y954988D01*
X883454Y952435D01*
X884776Y950145D01*
X886645Y948276D01*
X888935Y946954D01*
X891488Y946270D01*
X894132D01*
X896675Y946951D01*
X942133Y901493D01*
X943393Y900651D01*
X944880Y900355D01*
X1020620D01*
X1021936Y898075D01*
X1023805Y896206D01*
X1026095Y894884D01*
X1028648Y894200D01*
X1031292D01*
X1033845Y894884D01*
X1036135Y896206D01*
X1038004Y898075D01*
X1039326Y900365D01*
X1040010Y902918D01*
Y905562D01*
X1039326Y908115D01*
X1038004Y910405D01*
X1036623Y911785D01*
X1037176Y913818D01*
X1037353Y914080D01*
X1039893Y914224D01*
X1096130Y857986D01*
Y843400D01*
X1116210D01*
Y863480D01*
X1101624D01*
X1044147Y920957D01*
X1042887Y921799D01*
X1041400Y922095D01*
X1040060D01*
X1038673Y924635D01*
X1039326Y925765D01*
X1040010Y928318D01*
Y928370D01*
X1029970D01*
X1019930D01*
Y928318D01*
X1020614Y925765D01*
X1021267Y924635D01*
X1019881Y922095D01*
X977986D01*
X976933Y924635D01*
X977044Y924745D01*
X978366Y927035D01*
X979050Y929588D01*
Y932232D01*
X978366Y934785D01*
X977044Y937075D01*
X975175Y938944D01*
X972885Y940266D01*
X970332Y940950D01*
X967688D01*
X965135Y940266D01*
X962845Y938944D01*
X960976Y937075D01*
X959654Y934785D01*
X958970Y932232D01*
Y929588D01*
X959654Y927035D01*
X959988Y926457D01*
X958698Y923611D01*
X957843Y923441D01*
X909527Y971757D01*
X908267Y972599D01*
X906780Y972895D01*
X901786D01*
X900733Y975435D01*
X900844Y975545D01*
X902160Y977825D01*
X942001D01*
X959651Y960175D01*
X958970Y957632D01*
Y954988D01*
X959654Y952435D01*
X960976Y950145D01*
X962845Y948276D01*
X965135Y946954D01*
X967688Y946270D01*
X970332D01*
X972885Y946954D01*
X975175Y948276D01*
X977044Y950145D01*
X978366Y952435D01*
X979050Y954988D01*
Y957632D01*
X978366Y960185D01*
X977044Y962475D01*
X975175Y964344D01*
X972885Y965666D01*
X970332Y966350D01*
X967688D01*
X965145Y965669D01*
X946357Y984457D01*
X945097Y985299D01*
X943610Y985595D01*
X902160D01*
X900844Y987875D01*
X898975Y989744D01*
X896685Y991066D01*
X894132Y991750D01*
X891488D01*
X888935Y991066D01*
X886645Y989744D01*
X884776Y987875D01*
X883454Y985585D01*
X882770Y983032D01*
Y980388D01*
X883454Y977835D01*
X884776Y975545D01*
X884887Y975435D01*
X883835Y972895D01*
X875369D01*
X867485Y980779D01*
Y1086598D01*
X869059Y1087506D01*
X870714Y1089162D01*
X871884Y1091189D01*
X872490Y1093450D01*
Y1095790D01*
X871884Y1098052D01*
X870714Y1100079D01*
X869059Y1101734D01*
X867031Y1102904D01*
X864770Y1103510D01*
D02*
G37*
G36*
X970332Y991750D02*
X967688D01*
X965135Y991066D01*
X962845Y989744D01*
X960976Y987875D01*
X959654Y985585D01*
X958970Y983032D01*
Y980388D01*
X959654Y977835D01*
X960976Y975545D01*
X962845Y973676D01*
X965135Y972354D01*
X967688Y971670D01*
X970332D01*
X972875Y972351D01*
X1005633Y939593D01*
X1006893Y938751D01*
X1008380Y938455D01*
X1020994D01*
X1022047Y935915D01*
X1021936Y935805D01*
X1020614Y933515D01*
X1019930Y930962D01*
Y930910D01*
X1029970D01*
X1040010D01*
Y930962D01*
X1039326Y933515D01*
X1038004Y935805D01*
X1037893Y935915D01*
X1038945Y938455D01*
X1076557D01*
X1077466Y936881D01*
X1079121Y935226D01*
X1081149Y934056D01*
X1083410Y933450D01*
X1085750D01*
X1088011Y934056D01*
X1090039Y935226D01*
X1091694Y936881D01*
X1092864Y938909D01*
X1093470Y941170D01*
Y943510D01*
X1092864Y945771D01*
X1091694Y947799D01*
X1090039Y949454D01*
X1088011Y950624D01*
X1085750Y951230D01*
X1083410D01*
X1081149Y950624D01*
X1079121Y949454D01*
X1077466Y947799D01*
X1076557Y946225D01*
X1038945D01*
X1037893Y948765D01*
X1038004Y948875D01*
X1039326Y951165D01*
X1040010Y953718D01*
Y956362D01*
X1039326Y958915D01*
X1038004Y961205D01*
X1036135Y963074D01*
X1033845Y964396D01*
X1031292Y965080D01*
X1028648D01*
X1026095Y964396D01*
X1023805Y963074D01*
X1021936Y961205D01*
X1020614Y958915D01*
X1019930Y956362D01*
Y953718D01*
X1020614Y951165D01*
X1021936Y948875D01*
X1022047Y948765D01*
X1020994Y946225D01*
X1009989D01*
X978369Y977845D01*
X979050Y980388D01*
Y983032D01*
X978366Y985585D01*
X977044Y987875D01*
X975175Y989744D01*
X972885Y991066D01*
X970332Y991750D01*
D02*
G37*
G36*
X1107492Y939680D02*
X1104848D01*
X1102295Y938996D01*
X1100005Y937674D01*
X1098136Y935805D01*
X1096814Y933515D01*
X1096130Y930962D01*
Y928318D01*
X1096814Y925765D01*
X1098136Y923475D01*
X1100005Y921606D01*
X1102295Y920284D01*
X1104848Y919600D01*
X1107492D01*
X1110045Y920284D01*
X1112335Y921606D01*
X1114204Y923475D01*
X1115526Y925765D01*
X1116210Y928318D01*
Y930962D01*
X1115526Y933515D01*
X1114204Y935805D01*
X1112335Y937674D01*
X1110045Y938996D01*
X1107492Y939680D01*
D02*
G37*
G36*
Y914280D02*
X1104848D01*
X1102295Y913596D01*
X1100005Y912274D01*
X1098136Y910405D01*
X1096814Y908115D01*
X1096130Y905562D01*
Y902918D01*
X1096814Y900365D01*
X1098136Y898075D01*
X1100005Y896206D01*
X1102295Y894884D01*
X1104848Y894200D01*
X1107492D01*
X1110045Y894884D01*
X1112335Y896206D01*
X1114204Y898075D01*
X1115526Y900365D01*
X1116210Y902918D01*
Y905562D01*
X1115526Y908115D01*
X1114204Y910405D01*
X1112335Y912274D01*
X1110045Y913596D01*
X1107492Y914280D01*
D02*
G37*
G36*
X1031292Y888880D02*
X1031240D01*
Y880110D01*
X1040010D01*
Y880162D01*
X1039326Y882715D01*
X1038004Y885005D01*
X1036135Y886874D01*
X1033845Y888196D01*
X1031292Y888880D01*
D02*
G37*
G36*
X1028700D02*
X1028648D01*
X1026095Y888196D01*
X1023805Y886874D01*
X1021936Y885005D01*
X1020614Y882715D01*
X1019930Y880162D01*
Y880110D01*
X1028700D01*
Y888880D01*
D02*
G37*
G36*
X1107492D02*
X1104848D01*
X1102295Y888196D01*
X1100005Y886874D01*
X1098136Y885005D01*
X1096814Y882715D01*
X1096130Y880162D01*
Y877518D01*
X1096814Y874965D01*
X1098136Y872675D01*
X1100005Y870806D01*
X1102295Y869484D01*
X1104848Y868800D01*
X1107492D01*
X1110045Y869484D01*
X1112335Y870806D01*
X1114204Y872675D01*
X1115526Y874965D01*
X1116210Y877518D01*
Y880162D01*
X1115526Y882715D01*
X1114204Y885005D01*
X1112335Y886874D01*
X1110045Y888196D01*
X1107492Y888880D01*
D02*
G37*
G36*
X1040010Y877570D02*
X1031240D01*
Y868800D01*
X1031292D01*
X1033845Y869484D01*
X1036135Y870806D01*
X1038004Y872675D01*
X1039326Y874965D01*
X1040010Y877518D01*
Y877570D01*
D02*
G37*
G36*
X1028700D02*
X1019930D01*
Y877518D01*
X1020614Y874965D01*
X1021936Y872675D01*
X1023805Y870806D01*
X1026095Y869484D01*
X1028648Y868800D01*
X1028700D01*
Y877570D01*
D02*
G37*
G36*
X894132Y940950D02*
X891488D01*
X888935Y940266D01*
X886645Y938944D01*
X884776Y937075D01*
X883454Y934785D01*
X882770Y932232D01*
Y929588D01*
X883454Y927035D01*
X884776Y924745D01*
X886645Y922876D01*
X888935Y921554D01*
X891488Y920870D01*
X894132D01*
X896675Y921551D01*
X967533Y850693D01*
X968793Y849851D01*
X970280Y849555D01*
X1020620D01*
X1021936Y847275D01*
X1023805Y845406D01*
X1026095Y844084D01*
X1028648Y843400D01*
X1031292D01*
X1033845Y844084D01*
X1036135Y845406D01*
X1038004Y847275D01*
X1039326Y849565D01*
X1040010Y852118D01*
Y854762D01*
X1039326Y857315D01*
X1038004Y859605D01*
X1036135Y861474D01*
X1033845Y862796D01*
X1031292Y863480D01*
X1028648D01*
X1026095Y862796D01*
X1023805Y861474D01*
X1021936Y859605D01*
X1020620Y857325D01*
X971889D01*
X902169Y927045D01*
X902850Y929588D01*
Y932232D01*
X902166Y934785D01*
X900844Y937075D01*
X898975Y938944D01*
X896685Y940266D01*
X894132Y940950D01*
D02*
G37*
G36*
X1147875Y670214D02*
X1144270D01*
Y659130D01*
X1155354D01*
Y662735D01*
X1155099Y664671D01*
X1154352Y666475D01*
X1153163Y668023D01*
X1151615Y669212D01*
X1149811Y669959D01*
X1147875Y670214D01*
D02*
G37*
G36*
X1141730D02*
X1138125D01*
X1136189Y669959D01*
X1134386Y669212D01*
X1132837Y668023D01*
X1131648Y666475D01*
X1130901Y664671D01*
X1130646Y662735D01*
Y659130D01*
X1141730D01*
Y670214D01*
D02*
G37*
G36*
X1194618Y670150D02*
X1191382D01*
X1188256Y669313D01*
X1185454Y667694D01*
X1183166Y665406D01*
X1181547Y662604D01*
X1180710Y659478D01*
Y656242D01*
X1181547Y653116D01*
X1183166Y650314D01*
X1185454Y648026D01*
X1188256Y646407D01*
X1191382Y645570D01*
X1194618D01*
X1197744Y646407D01*
X1200546Y648026D01*
X1202834Y650314D01*
X1204452Y653116D01*
X1205290Y656242D01*
Y659478D01*
X1204452Y662604D01*
X1202834Y665406D01*
X1200546Y667694D01*
X1197744Y669313D01*
X1194618Y670150D01*
D02*
G37*
G36*
X1155354Y656590D02*
X1144270D01*
Y645506D01*
X1147875D01*
X1149811Y645761D01*
X1151615Y646508D01*
X1153163Y647697D01*
X1154352Y649246D01*
X1155099Y651049D01*
X1155354Y652985D01*
Y656590D01*
D02*
G37*
G36*
X1141730D02*
X1130646D01*
Y652985D01*
X1130901Y651049D01*
X1131648Y649246D01*
X1132837Y647697D01*
X1134386Y646508D01*
X1136189Y645761D01*
X1138125Y645506D01*
X1141730D01*
Y656590D01*
D02*
G37*
%LPD*%
G36*
X954833Y915463D02*
X956093Y914621D01*
X957580Y914325D01*
X1022421D01*
X1022764Y913818D01*
X1023317Y911785D01*
X1021936Y910405D01*
X1020620Y908125D01*
X946489D01*
X902169Y952445D01*
X902850Y954988D01*
Y957632D01*
X902166Y960185D01*
X900844Y962475D01*
X900733Y962585D01*
X901786Y965125D01*
X905171D01*
X954833Y915463D01*
D02*
G37*
D13*
X970280Y853440D02*
X1029970D01*
X892810Y930910D02*
X970280Y853440D01*
X1018540Y1017270D02*
Y1132720D01*
Y1017270D02*
X1029970Y1005840D01*
X863600Y979170D02*
Y1094620D01*
Y979170D02*
X873760Y969010D01*
X906780D01*
X957580Y918210D01*
X1041400D01*
X1106170Y853440D01*
X797560Y1095756D02*
X839724Y1137920D01*
X860044D01*
X1005078Y992886D01*
X1068324D01*
X1106170Y955040D01*
X969010Y981710D02*
X1008380Y942340D01*
X1084580D01*
X943610Y981710D02*
X969010Y956310D01*
X892810Y981710D02*
X943610D01*
X944880Y904240D02*
X1029970D01*
X892810Y956310D02*
X944880Y904240D01*
D29*
X1193000Y657860D02*
D03*
D30*
X1143000D02*
D03*
D31*
X892810Y1007110D02*
D03*
X1106170Y853440D02*
D03*
D32*
Y1031240D02*
D03*
X1029970Y878840D02*
D03*
Y929640D02*
D03*
X892810Y930910D02*
D03*
X969010Y1007110D02*
D03*
X1029970Y853440D02*
D03*
Y1031240D02*
D03*
Y1005840D02*
D03*
Y980440D02*
D03*
Y955040D02*
D03*
Y904240D02*
D03*
X1106170Y1005840D02*
D03*
Y980440D02*
D03*
Y955040D02*
D03*
Y929640D02*
D03*
Y904240D02*
D03*
Y878840D02*
D03*
X969010Y930910D02*
D03*
Y956310D02*
D03*
Y981710D02*
D03*
X892810Y956310D02*
D03*
Y981710D02*
D03*
D33*
X1018540Y1132720D02*
D03*
X863600Y1094620D02*
D03*
X797560Y1095756D02*
D03*
X1084580Y942340D02*
D03*
M02*
