G04*
G04 #@! TF.GenerationSoftware,Altium Limited,Altium Designer,26.7.1 (11)*
G04*
G04 Layer_Color=16711935*
G04 Board_Origin=0|0*
%FSLAX44Y44*%
%MOMM*%
G71*
G04*
G04 #@! TF.SameCoordinates,9F73497C-8F47-4EB9-A377-0E366E99F9EA*
G04*
G04*
G04 #@! TF.FilePolarity,Positive*
G04*
G01*
G75*
%ADD12C,0.2000*%
%ADD35C,0.1000*%
D12*
X1001450Y684920D02*
Y701920D01*
X992450Y684920D02*
X1001450D01*
X992450D02*
Y701920D01*
X1001450D01*
X1201030Y821000D02*
Y830000D01*
X1184030D02*
X1201030D01*
X1184030Y821000D02*
Y830000D01*
Y821000D02*
X1201030D01*
X1186760Y932940D02*
X1195760D01*
X1186760Y915940D02*
Y932940D01*
Y915940D02*
X1195760D01*
Y932940D01*
X1209800Y1003880D02*
Y1012880D01*
X1192800D02*
X1209800D01*
X1192800Y1003880D02*
Y1012880D01*
Y1003880D02*
X1209800D01*
X1114370Y1120530D02*
X1123370D01*
Y1137530D01*
X1114370D02*
X1123370D01*
X1114370Y1120530D02*
Y1137530D01*
X1000070Y1116720D02*
X1009070D01*
Y1133720D01*
X1000070D02*
X1009070D01*
X1000070Y1116720D02*
Y1133720D01*
X893690Y1104210D02*
Y1113210D01*
X876690D02*
X893690D01*
X876690Y1104210D02*
Y1113210D01*
Y1104210D02*
X893690D01*
X793060Y996070D02*
X802060D01*
Y1013070D01*
X793060D02*
X802060D01*
X793060Y996070D02*
Y1013070D01*
X799410Y869070D02*
X808410D01*
Y886070D01*
X799410D02*
X808410D01*
X799410Y869070D02*
Y886070D01*
X881960Y747150D02*
X890960D01*
Y764150D01*
X881960D02*
X890960D01*
X881960Y747150D02*
Y764150D01*
D35*
X1097070Y852840D02*
G03*
X1097070Y852840I-5000J0D01*
G01*
X911910Y1010760D02*
G03*
X911910Y1010760I-5000J0D01*
G01*
X1218003Y617860D02*
Y691360D01*
Y698360D02*
Y707860D01*
X1118002D02*
X1218003D01*
X1118002Y617860D02*
X1218003D01*
X1118002D02*
Y639360D01*
Y646362D02*
Y707860D01*
X1112001Y636860D02*
Y648860D01*
Y636860D02*
X1118002Y639358D01*
X1112001Y648860D02*
X1118002Y646362D01*
X1218003Y698360D02*
X1224003Y700858D01*
Y688858D02*
Y700858D01*
X1218003Y691356D02*
X1224003Y688858D01*
X1035070Y1040840D02*
X1101070D01*
X1035070Y843840D02*
X1101070D01*
X1035070D02*
Y1040840D01*
X1101070Y843840D02*
Y1040840D01*
X897910Y918260D02*
X963910D01*
X897910Y1019760D02*
X963910D01*
Y918260D02*
Y1019760D01*
X897910Y918260D02*
Y1019760D01*
X971150Y875370D02*
X984650D01*
X971150Y854370D02*
X984650D01*
Y875370D01*
X971150Y854370D02*
Y875370D01*
X991240Y943940D02*
X1007740D01*
X991240Y953440D02*
X1007740D01*
Y943940D02*
Y953440D01*
X991240Y943940D02*
Y953440D01*
X1115690Y789000D02*
Y798500D01*
X1099190Y789000D02*
Y798500D01*
Y789000D02*
X1115690D01*
X1099190Y798500D02*
X1115690D01*
X998550Y770260D02*
X1008050D01*
X998550Y786760D02*
X1008050D01*
X998550Y770260D02*
Y786760D01*
X1008050Y770260D02*
Y786760D01*
X926760Y802240D02*
X947760D01*
X926760Y815740D02*
X947760D01*
Y802240D02*
Y815740D01*
X926760Y802240D02*
Y815740D01*
X1143640Y950290D02*
Y959790D01*
X1160140Y950290D02*
Y959790D01*
X1143640D02*
X1160140D01*
X1143640Y950290D02*
X1160140D01*
M02*
