G04*
G04 #@! TF.GenerationSoftware,Altium Limited,Altium Designer,26.7.1 (11)*
G04*
G04 Layer_Color=16711935*
G04 Board_Origin=0|0*
%FSLAX44Y44*%
%MOMM*%
G71*
G04*
G04 #@! TF.SameCoordinates,9F73497C-8F47-4EB9-A377-0E366E99F9EA*
G04*
G04*
G04 #@! TF.FilePolarity,Positive*
G04*
G01*
G75*
%ADD35C,0.1000*%
%ADD36C,0.0500*%
D35*
X996950Y688420D02*
Y698420D01*
X991950Y693420D02*
X1001950D01*
X1192530Y820500D02*
Y830500D01*
X1187530Y825500D02*
X1197530D01*
X1186260Y924440D02*
X1196260D01*
X1191260Y919440D02*
Y929440D01*
X1201300Y1003380D02*
Y1013380D01*
X1196300Y1008380D02*
X1206300D01*
X1113870Y1129030D02*
X1123870D01*
X1118870Y1124030D02*
Y1134030D01*
X999570Y1125220D02*
X1009570D01*
X1004570Y1120220D02*
Y1130220D01*
X885190Y1103710D02*
Y1113710D01*
X880190Y1108710D02*
X890190D01*
X792560Y1004570D02*
X802560D01*
X797560Y999570D02*
Y1009570D01*
X798910Y877570D02*
X808910D01*
X803910Y872570D02*
Y882570D01*
X881460Y755650D02*
X891460D01*
X886460Y750650D02*
Y760650D01*
D36*
X1163002Y662860D02*
X1173002D01*
X1168002Y657860D02*
Y667860D01*
M02*
