G04*
G04 #@! TF.GenerationSoftware,Altium Limited,Altium Designer,26.7.1 (11)*
G04*
G04 Layer_Color=16711935*
G04 Board_Origin=0|0*
%FSLAX44Y44*%
%MOMM*%
G71*
G04*
G04 #@! TF.SameCoordinates,9F73497C-8F47-4EB9-A377-0E366E99F9EA*
G04*
G04*
G04 #@! TF.FilePolarity,Negative*
G04*
G01*
G75*
%ADD24C,2.1532*%
G04:AMPARAMS|DCode=25|XSize=2.1532mm|YSize=2.1532mm|CornerRadius=0.5891mm|HoleSize=0mm|Usage=FLASHONLY|Rotation=0.000|XOffset=0mm|YOffset=0mm|HoleType=Round|Shape=RoundedRectangle|*
%AMROUNDEDRECTD25*
21,1,2.1532,0.9750,0,0,0.0*
21,1,0.9750,2.1532,0,0,0.0*
1,1,1.1782,0.4875,-0.4875*
1,1,1.1782,-0.4875,-0.4875*
1,1,1.1782,-0.4875,0.4875*
1,1,1.1782,0.4875,0.4875*
%
%ADD25ROUNDEDRECTD25*%
%ADD26R,1.7032X1.7032*%
%ADD27C,1.7032*%
%ADD28C,1.4732*%
D24*
X1193000Y657860D02*
D03*
D25*
X1143000D02*
D03*
D26*
X892810Y1007110D02*
D03*
X1106170Y853440D02*
D03*
D27*
Y1031240D02*
D03*
X1029970Y878840D02*
D03*
Y929640D02*
D03*
X892810Y930910D02*
D03*
X969010Y1007110D02*
D03*
X1029970Y853440D02*
D03*
Y1031240D02*
D03*
Y1005840D02*
D03*
Y980440D02*
D03*
Y955040D02*
D03*
Y904240D02*
D03*
X1106170Y1005840D02*
D03*
Y980440D02*
D03*
Y955040D02*
D03*
Y929640D02*
D03*
Y904240D02*
D03*
Y878840D02*
D03*
X969010Y930910D02*
D03*
Y956310D02*
D03*
Y981710D02*
D03*
X892810Y956310D02*
D03*
Y981710D02*
D03*
D28*
X1018540Y1132720D02*
D03*
X863600Y1094620D02*
D03*
X797560Y1095756D02*
D03*
X1084580Y942340D02*
D03*
M02*
