M48
;Layer_Color=9474304
;FILE_FORMAT=4:4
METRIC,LZ
;TYPE=PLATED
T01F00S00C0.7112
T02F00S00C0.9000
T03F00S00C1.3000
%
T01
X0079756Y01095756
X008636Y0109462
X0101854Y0113272
X0108458Y0094234
T02
X0089281Y0093091
Y0095631
Y0098171
Y0100711
X0096901
Y0098171
Y0095631
Y0093091
X0102997Y0092964
Y0095504
Y0098044
Y0100584
Y0103124
X0110617
Y0100584
Y0098044
Y0095504
Y0092964
Y0090424
Y0087884
Y0085344
X0102997
Y0087884
Y0090424
T03
X01193Y0065786
X01143
M30
