G04*
G04 #@! TF.GenerationSoftware,Altium Limited,Altium Designer,26.7.1 (11)*
G04*
G04 Layer_Color=12632256*
G04 Board_Origin=0|0*
%FSLAX44Y44*%
%MOMM*%
G71*
G04*
G04 #@! TF.SameCoordinates,9F73497C-8F47-4EB9-A377-0E366E99F9EA*
G04*
G04*
G04 #@! TF.FilePolarity,Positive*
G04*
G01*
G75*
%ADD29C,1.9500*%
G04:AMPARAMS|DCode=30|XSize=1.95mm|YSize=1.95mm|CornerRadius=0.4875mm|HoleSize=0mm|Usage=FLASHONLY|Rotation=0.000|XOffset=0mm|YOffset=0mm|HoleType=Round|Shape=RoundedRectangle|*
%AMROUNDEDRECTD30*
21,1,1.9500,0.9750,0,0,0.0*
21,1,0.9750,1.9500,0,0,0.0*
1,1,0.9750,0.4875,-0.4875*
1,1,0.9750,-0.4875,-0.4875*
1,1,0.9750,-0.4875,0.4875*
1,1,0.9750,0.4875,0.4875*
%
%ADD30ROUNDEDRECTD30*%
%ADD31R,1.5000X1.5000*%
%ADD32C,1.5000*%
D29*
X1193000Y657860D02*
D03*
D30*
X1143000D02*
D03*
D31*
X892810Y1007110D02*
D03*
X1106170Y853440D02*
D03*
D32*
Y1031240D02*
D03*
X1029970Y878840D02*
D03*
Y929640D02*
D03*
X892810Y930910D02*
D03*
X969010Y1007110D02*
D03*
X1029970Y853440D02*
D03*
Y1031240D02*
D03*
Y1005840D02*
D03*
Y980440D02*
D03*
Y955040D02*
D03*
Y904240D02*
D03*
X1106170Y1005840D02*
D03*
Y980440D02*
D03*
Y955040D02*
D03*
Y929640D02*
D03*
Y904240D02*
D03*
Y878840D02*
D03*
X969010Y930910D02*
D03*
Y956310D02*
D03*
Y981710D02*
D03*
X892810Y956310D02*
D03*
Y981710D02*
D03*
M02*
