G04*
G04 #@! TF.GenerationSoftware,Altium Limited,Altium Designer,26.7.1 (11)*
G04*
G04 Layer_Physical_Order=1*
G04 Layer_Color=255*
G04 Board_Origin=0|0*
%FSLAX44Y44*%
%MOMM*%
G71*
G04*
G04 #@! TF.SameCoordinates,9F73497C-8F47-4EB9-A377-0E366E99F9EA*
G04*
G04*
G04 #@! TF.FilePolarity,Positive*
G04*
G01*
G75*
%ADD13C,0.2540*%
%ADD14R,0.8000X0.9500*%
%ADD15R,1.2000X1.4000*%
%ADD16R,0.9500X0.8000*%
%ADD17R,1.4000X1.2000*%
%ADD18R,0.8000X0.8000*%
%ADD19R,0.8000X0.8000*%
%ADD29C,1.9500*%
G04:AMPARAMS|DCode=30|XSize=1.95mm|YSize=1.95mm|CornerRadius=0.4875mm|HoleSize=0mm|Usage=FLASHONLY|Rotation=0.000|XOffset=0mm|YOffset=0mm|HoleType=Round|Shape=RoundedRectangle|*
%AMROUNDEDRECTD30*
21,1,1.9500,0.9750,0,0,0.0*
21,1,0.9750,1.9500,0,0,0.0*
1,1,0.9750,0.4875,-0.4875*
1,1,0.9750,-0.4875,-0.4875*
1,1,0.9750,-0.4875,0.4875*
1,1,0.9750,0.4875,0.4875*
%
%ADD30ROUNDEDRECTD30*%
%ADD31R,1.5000X1.5000*%
%ADD32C,1.5000*%
%ADD33C,1.2700*%
D13*
X1094740Y1019810D02*
X1106170Y1031240D01*
X1094740Y1000760D02*
Y1019810D01*
Y1000760D02*
X1101090Y994410D01*
X1127760D01*
X1145390Y976780D01*
Y955040D02*
Y976780D01*
X994052Y774700D02*
X996742Y772010D01*
X1003300D01*
X1005840Y878840D02*
X1029970D01*
X994052Y818134D02*
Y867052D01*
X967096Y791178D02*
X994052Y818134D01*
X934720Y791178D02*
X967096D01*
X928760Y797138D02*
X934720Y791178D01*
X928760Y797138D02*
Y808990D01*
X977900Y873370D02*
X1000370D01*
X994052Y774700D02*
Y818134D01*
X1000370Y873370D02*
X1005840Y878840D01*
X994052Y867052D02*
X1000370Y873370D01*
X1100940Y749920D02*
X1193000Y657860D01*
X1100940Y749920D02*
Y793750D01*
X1092962D02*
X1100940D01*
X1062736Y823976D02*
X1092962Y793750D01*
X1062736Y823976D02*
Y982726D01*
X1052322Y993140D02*
X1062736Y982726D01*
X982980Y993140D02*
X1052322D01*
X969010Y1007110D02*
X982980Y993140D01*
X901700Y939800D02*
X969010Y1007110D01*
X892810Y939800D02*
X901700D01*
X892810Y930910D02*
Y939800D01*
X976630Y948690D02*
X985400Y939920D01*
X945760Y808990D02*
Y907660D01*
X969010Y930910D01*
X976630Y948690D02*
X992990D01*
X969010Y956310D02*
X976630Y948690D01*
X969010Y981710D02*
X995680D01*
X1005990Y971400D01*
Y948690D02*
Y971400D01*
X803910Y830700D02*
Y870070D01*
Y830700D02*
X886460Y748150D01*
X949720D01*
X996950Y700920D01*
X796036Y877944D02*
X803910Y870070D01*
X796036Y877944D02*
Y978662D01*
X797560Y980186D01*
Y997070D01*
X892690Y1092200D01*
Y1108710D01*
X901700Y1117720D01*
X1004570D01*
X1059688D01*
X1063498Y1121530D01*
X1118870D01*
X1110996Y1129404D02*
X1118870Y1121530D01*
X1110996Y1129404D02*
Y1158240D01*
X1127252Y1174496D01*
X1145032D01*
X1158390Y1161138D01*
Y955040D02*
Y1161138D01*
Y955040D02*
X1168160D01*
X1191260Y931940D01*
X1200030Y923170D01*
Y825500D02*
Y923170D01*
Y825500D02*
X1208800Y834270D01*
Y1008380D01*
X1094740Y892810D02*
X1106170Y904240D01*
X1094740Y873760D02*
Y892810D01*
Y873760D02*
X1102360Y866140D01*
X1144390D01*
X1185030Y825500D01*
X1106170Y878840D02*
X1153160D01*
X1191260Y916940D01*
X1089660Y913130D02*
X1106170Y929640D01*
X1089660Y848360D02*
Y913130D01*
Y848360D02*
X1120394Y817626D01*
X1211326D01*
X1216660Y822960D01*
Y1015746D01*
X1203706Y1018286D02*
X1216660Y1015746D01*
X1193800Y1008380D02*
X1203706Y1018286D01*
X1106170Y1005840D02*
X1126744Y1026414D01*
Y1128656D01*
X1118870Y1136530D02*
X1126744Y1128656D01*
X1004570Y1132720D02*
X1018540D01*
X863600Y1094620D02*
X877690Y1108710D01*
X797560Y1012070D02*
Y1095756D01*
X803910Y885070D02*
Y963676D01*
X889254Y1049020D01*
X1037590D01*
X1106170Y980440D01*
X881380Y768230D02*
X886460Y763150D01*
X881380Y768230D02*
Y965200D01*
X883920Y967740D01*
X908050D01*
X971550Y1031240D01*
X1029970D01*
X996950Y685920D02*
X1046360Y735330D01*
Y964050D01*
X1029970Y980440D02*
X1046360Y964050D01*
X1084580Y838096D02*
Y942340D01*
Y838096D02*
X1113940Y808736D01*
Y793750D02*
Y808736D01*
X970280Y856370D02*
X977900D01*
X966978Y859672D02*
X970280Y856370D01*
X966978Y859672D02*
Y899160D01*
X985400Y917582D01*
Y939920D01*
X1003300Y785010D02*
Y852290D01*
X1018540Y867530D01*
X1035050D01*
X1041280Y873760D01*
Y892930D01*
X1029970Y904240D02*
X1041280Y892930D01*
D14*
X1145390Y955040D02*
D03*
X1100940Y793750D02*
D03*
X1005990Y948690D02*
D03*
X992990D02*
D03*
X1113940Y793750D02*
D03*
X1158390Y955040D02*
D03*
D15*
X928760Y808990D02*
D03*
X945760D02*
D03*
D16*
X1003300Y772010D02*
D03*
Y785010D02*
D03*
D17*
X977900Y873370D02*
D03*
Y856370D02*
D03*
D18*
X996950Y700920D02*
D03*
Y685920D02*
D03*
X1191260Y916940D02*
D03*
Y931940D02*
D03*
X1118870Y1136530D02*
D03*
Y1121530D02*
D03*
X1004570Y1132720D02*
D03*
Y1117720D02*
D03*
X797560Y1012070D02*
D03*
Y997070D02*
D03*
X803910Y885070D02*
D03*
Y870070D02*
D03*
X886460Y763150D02*
D03*
Y748150D02*
D03*
D19*
X1185030Y825500D02*
D03*
X1200030D02*
D03*
X1193800Y1008380D02*
D03*
X1208800D02*
D03*
X877690Y1108710D02*
D03*
X892690D02*
D03*
D29*
X1193000Y657860D02*
D03*
D30*
X1143000D02*
D03*
D31*
X892810Y1007110D02*
D03*
X1106170Y853440D02*
D03*
D32*
Y1031240D02*
D03*
X1029970Y878840D02*
D03*
Y929640D02*
D03*
X892810Y930910D02*
D03*
X969010Y1007110D02*
D03*
X1029970Y853440D02*
D03*
Y1031240D02*
D03*
Y1005840D02*
D03*
Y980440D02*
D03*
Y955040D02*
D03*
Y904240D02*
D03*
X1106170Y1005840D02*
D03*
Y980440D02*
D03*
Y955040D02*
D03*
Y929640D02*
D03*
Y904240D02*
D03*
Y878840D02*
D03*
X969010Y930910D02*
D03*
Y956310D02*
D03*
Y981710D02*
D03*
X892810Y956310D02*
D03*
Y981710D02*
D03*
D33*
X1018540Y1132720D02*
D03*
X863600Y1094620D02*
D03*
X797560Y1095756D02*
D03*
X1084580Y942340D02*
D03*
M02*
