G04*
G04 #@! TF.GenerationSoftware,Altium Limited,Altium Designer,26.7.1 (11)*
G04*
G04 Layer_Color=8421504*
G04 Board_Origin=0|0*
%FSLAX44Y44*%
%MOMM*%
G71*
G04*
G04 #@! TF.SameCoordinates,9F73497C-8F47-4EB9-A377-0E366E99F9EA*
G04*
G04*
G04 #@! TF.FilePolarity,Positive*
G04*
G01*
G75*
%ADD14R,0.8000X0.9500*%
%ADD15R,1.2000X1.4000*%
%ADD16R,0.9500X0.8000*%
%ADD17R,1.4000X1.2000*%
%ADD18R,0.8000X0.8000*%
%ADD19R,0.8000X0.8000*%
D14*
X1145390Y955040D02*
D03*
X1100940Y793750D02*
D03*
X1005990Y948690D02*
D03*
X992990D02*
D03*
X1113940Y793750D02*
D03*
X1158390Y955040D02*
D03*
D15*
X928760Y808990D02*
D03*
X945760D02*
D03*
D16*
X1003300Y772010D02*
D03*
Y785010D02*
D03*
D17*
X977900Y873370D02*
D03*
Y856370D02*
D03*
D18*
X996950Y700920D02*
D03*
Y685920D02*
D03*
X1191260Y916940D02*
D03*
Y931940D02*
D03*
X1118870Y1136530D02*
D03*
Y1121530D02*
D03*
X1004570Y1132720D02*
D03*
Y1117720D02*
D03*
X797560Y1012070D02*
D03*
Y997070D02*
D03*
X803910Y885070D02*
D03*
Y870070D02*
D03*
X886460Y763150D02*
D03*
Y748150D02*
D03*
D19*
X1185030Y825500D02*
D03*
X1200030D02*
D03*
X1193800Y1008380D02*
D03*
X1208800D02*
D03*
X877690Y1108710D02*
D03*
X892690D02*
D03*
M02*
